<?xml version="1.0" encoding="UTF-8"?>
<!DOCTYPE svg PUBLIC "-//W3C//DTD SVG 1.0//EN" "http://www.w3.org/TR/2001/REC-SVG-20010904/DTD/svg10.dtd">
<!-- Creator: CorelDRAW 2019 -->
<svg xmlns="http://www.w3.org/2000/svg" xml:space="preserve" width="1000px" height="1000px" version="1.0" style="shape-rendering:geometricPrecision; text-rendering:geometricPrecision; image-rendering:optimizeQuality; fill-rule:evenodd; clip-rule:evenodd"
viewBox="0 0 63.72 63.72"
 xmlns:xlink="http://www.w3.org/1999/xlink"
 xmlns:xodm="http://www.corel.com/coreldraw/odm/2003">
 <defs>
  <style type="text/css">
   <![CDATA[
    .str1 {stroke:black;stroke-width:0.32;stroke-linecap:round;stroke-linejoin:round;stroke-miterlimit:2.61313}
    .str0 {stroke:black;stroke-width:0.32;stroke-linecap:round;stroke-linejoin:round;stroke-miterlimit:2.61313}
    .str2 {stroke:red;stroke-width:0.32;stroke-linecap:round;stroke-linejoin:round;stroke-miterlimit:2.61313}
    .fil2 {fill:none}
    .fil0 {fill:black}
    .fil3 {fill:#1A1A1A}
    .fil1 {fill:#B30D0D}
    .fil4 {fill:#F7B183}
    .fil5 {fill:#FCCAA9}
    .fil6 {fill:#1A1A1A;fill-rule:nonzero}
   ]]>
  </style>
    <clipPath id="id0">
     <path d="M31.86 1.96c16.51,0 29.9,13.39 29.9,29.9 0,16.51 -13.39,29.9 -29.9,29.9 -16.51,0 -29.9,-13.39 -29.9,-29.9 0,-16.51 13.39,-29.9 29.9,-29.9z"/>
    </clipPath>
   <clipPath id="id1">
    <path d="M24.62 13.3c-0.65,1.5 -2.71,7.13 0.14,5.66 0.84,-2.88 3.66,-4.29 12.5,-7.06 -5.14,3.24 -8.35,5.45 -6.62,6.37 2.95,-4.54 11.43,-3.79 14.31,-10.08 1.08,7.44 -8.1,9.72 -7.48,13.53 1.42,-2.73 5.32,-4.6 9.46,-5.36 -2.99,1.31 -5.8,4.8 -5.33,7.55 1.9,-5.7 8.26,-4.88 10.82,-11.2 0.55,6.84 -3.57,8.33 -7.64,17.64 2.58,-2.88 3.98,-7.87 9.31,-9.97 -2.69,2.13 -3.76,5.12 -5.47,8.47 -1.39,2.74 -3.76,4.72 -5.12,2.7 -8.28,-12.29 -15.59,-15.84 -24.97,-8.52 2.22,-2.93 -0.94,-2.27 6.09,-9.73z"/>
   </clipPath>
   <clipPath id="id2">
    <path d="M19.05 23.44c10.22,-9.82 19.5,1.87 24.34,8.59 2.36,3.27 6.21,-4.04 8.25,-7.23 -1.19,12.2 -3.26,19.1 -11.89,17.98 -2.04,2.51 -4.2,4.1 -7.2,5.39 -0.93,1.79 -2.68,3.93 -4.77,5.08 1.78,-2.13 1.17,-2.88 1.17,-2.88 -1.66,3.76 -8.74,5.11 -9.41,6.15 2.14,-3.35 0.46,-7.44 -1.58,-10.46 -0.49,-0.72 -0.93,-1.52 -1.31,-2.34 -0.78,-1.74 -1.27,-3.62 -1.36,-5.28 -4.68,-6.84 -0.31,-13.6 3.76,-15z"/>
   </clipPath>
 </defs>
 <g id="Layer_x0020_1">
  <metadata id="CorelCorpID_0Corel-Layer"/>
  <circle class="fil0" cx="31.86" cy="31.86" r="31.86"/>
  <g id="_1329567496">
   <path class="fil1" d="M31.86 1.96c16.51,0 29.9,13.39 29.9,29.9 0,16.51 -13.39,29.9 -29.9,29.9 -16.51,0 -29.9,-13.39 -29.9,-29.9 0,-16.51 13.39,-29.9 29.9,-29.9z"/>
   <g style="clip-path:url(#id0)">
    <g>
     <g>
      <rect class="fil0" x="26.22" y="-19.34" width="0.47" height="52.17"/>
      <rect class="fil0" transform="matrix(0.965926 0.258819 -0.258819 0.965926 39.7191 -17.559)" width="0.47" height="52.17"/>
      <rect class="fil0" transform="matrix(0.866025 0.5 -0.5 0.866025 52.3012 -12.3473)" width="0.47" height="52.17"/>
      <rect class="fil0" transform="matrix(0.707107 0.707107 -0.707107 0.707107 63.1057 -4.05674)" width="0.47" height="52.17"/>
      <rect class="fil0" transform="matrix(0.5 0.866025 -0.866025 0.5 71.3963 6.74777)" width="0.47" height="52.17"/>
      <rect class="fil0" transform="matrix(0.258819 0.965926 -0.965926 0.258819 76.608 19.3299)" width="0.47" height="52.17"/>
      <rect class="fil0" transform="matrix(2.63956E-14 1 -1 2.63956E-14 78.3856 32.8322)" width="0.47" height="52.17"/>
      <rect class="fil0" transform="matrix(-0.258819 0.965926 -0.965926 -0.258819 76.608 46.3344)" width="0.47" height="52.17"/>
      <rect class="fil0" transform="matrix(-0.5 0.866025 -0.866025 -0.5 71.3963 58.9166)" width="0.47" height="52.17"/>
      <rect class="fil0" transform="matrix(-0.707107 0.707107 -0.707107 -0.707107 63.1057 69.7211)" width="0.47" height="52.17"/>
      <rect class="fil0" transform="matrix(-0.866025 0.5 -0.5 -0.866025 52.3012 78.0117)" width="0.47" height="52.17"/>
      <rect class="fil0" transform="matrix(-0.965926 0.258819 -0.258819 -0.965926 39.7191 83.2234)" width="0.47" height="52.17"/>
      <rect class="fil0" x="25.75" y="32.83" width="0.47" height="52.17"/>
      <rect class="fil0" transform="matrix(-0.965926 -0.258819 0.258819 -0.965926 12.7145 83.2234)" width="0.47" height="52.17"/>
      <rect class="fil0" transform="matrix(-0.866025 -0.5 0.5 -0.866025 0.132417 78.0117)" width="0.47" height="52.17"/>
      <rect class="fil0" transform="matrix(-0.707107 -0.707107 0.707107 -0.707107 -10.6721 69.7211)" width="0.47" height="52.17"/>
      <rect class="fil0" transform="matrix(-0.5 -0.866025 0.866025 -0.5 -18.9627 58.9166)" width="0.47" height="52.17"/>
      <rect class="fil0" transform="matrix(-0.258819 -0.965926 0.965926 -0.258819 -24.1744 46.3344)" width="0.47" height="52.17"/>
      <rect class="fil0" transform="matrix(-7.91589E-14 -1 1 -7.91589E-14 -25.952 32.8322)" width="0.47" height="52.17"/>
      <rect class="fil0" transform="matrix(0.258819 -0.965926 0.965926 0.258819 -24.1744 19.3299)" width="0.47" height="52.17"/>
      <rect class="fil0" transform="matrix(0.5 -0.866025 0.866025 0.5 -18.9627 6.74777)" width="0.47" height="52.17"/>
      <rect class="fil0" transform="matrix(0.707107 -0.707107 0.707107 0.707107 -10.6721 -4.05674)" width="0.47" height="52.17"/>
      <rect class="fil0" transform="matrix(0.866025 -0.5 0.5 0.866025 0.132417 -12.3473)" width="0.47" height="52.17"/>
      <rect class="fil0" transform="matrix(0.965926 -0.258819 0.258819 0.965926 12.7145 -17.559)" width="0.47" height="52.17"/>
     </g>
    </g>
   </g>
   <path class="fil2" d="M31.86 1.96c16.51,0 29.9,13.39 29.9,29.9 0,16.51 -13.39,29.9 -29.9,29.9 -16.51,0 -29.9,-13.39 -29.9,-29.9 0,-16.51 13.39,-29.9 29.9,-29.9z"/>
  </g>
  <path class="fil0" d="M30.71 17.6c0.12,-0.16 0.26,-0.32 0.4,-0.47 1.9,-2.05 5.19,-2.99 7.71,-4.1 2.5,-1.1 4.68,-2.45 5.87,-5.04l0.59 -1.29 0.21 1.41c0.49,3.39 -1,5.84 -3.32,8.13 -1.09,1.07 -2.41,2.08 -3.38,3.26 1.43,-1.3 7.21,-4.66 8.78,-2.93 -2.17,0.95 -4.29,2.78 -5.16,5.03 1.57,-2.17 3.99,-3.13 6.1,-4.62 1.69,-1.19 2.86,-2.53 3.64,-4.45l0.67 -1.65 0.14 1.77c0.16,1.89 -0.02,3.63 -0.72,5.4 -0.85,2.16 -2.34,4.13 -3.57,6.1 2.49,-3.21 4.51,-3.84 8.02,-5.23 -2.64,2.1 -4.05,3.09 -5.7,6.28 2.53,-4.06 -0.54,10.09 -0.64,10.41 -0.73,2.42 -1.9,4.93 -4.06,6.38 -1.18,0.8 -2.52,1.18 -3.92,1.28 0.33,0.32 0.69,0.61 1.09,0.85l1.27 0.77 -1.48 0.01c-1.31,0.01 -2.46,-0.62 -3.31,-1.57 -0.08,0.1 -0.16,0.19 -0.24,0.28 0.76,1.83 2.09,3.3 3.9,4.16l0.33 0.16 -0.23 0.71 -0.36 -0.07c-2.17,-0.41 -3.97,-1.57 -5.21,-3.35 -1.04,0.94 -2.15,1.71 -3.36,2.38 0.04,-0.01 0.08,-0.02 0.12,-0.04l1.21 -0.5 -0.69 1.11c-0.8,1.3 -1.88,2.2 -3.37,1.79 -1.03,1.43 -2.4,2.79 -3.94,3.64l-1.96 1.08c0.57,-0.68 1.2,-1.38 1.73,-2.1 -1.58,1.39 -7.13,4.23 -8.79,4.04l0.22 -0.35c1.42,-2.22 1.03,-4.8 0.05,-7.09 -1.48,0.93 -2.49,-1.03 -3.16,-2.06l0.91 0.33 -0.02 -0.03c-1.58,-2.74 -2.55,-6.84 -2.78,-10.02 -1.4,-2.62 -1.75,-5.53 -0.8,-8.36 0.74,-2.17 2.27,-4.25 4.26,-5.43 0.46,-0.61 0.74,-1.16 0.96,-1.9 1.36,-4.55 4.26,-7.18 7.37,-10.48 -0.38,0.88 -3.02,6.82 -2.11,7.5 0.25,0.19 1.22,-4.88 13.96,-6.97 -1.24,0.78 -7.29,4.74 -7.23,5.84zm-12.8 29.74c0.12,-0.08 0.24,-0.18 0.34,-0.26 -0.17,-0.27 -0.34,-0.54 -0.52,-0.8 -0.02,-0.04 -0.05,-0.07 -0.07,-0.11 0.06,0.32 0.13,0.63 0.2,0.94l0.05 0.23z"/>
  <path class="fil3" d="M24.62 13.3c-0.65,1.5 -2.71,7.13 0.14,5.66 0.84,-2.88 3.66,-4.29 12.5,-7.06 -5.14,3.24 -8.35,5.45 -6.62,6.37 2.95,-4.54 11.43,-3.79 14.31,-10.08 1.08,7.44 -8.1,9.72 -7.48,13.53 1.42,-2.73 5.32,-4.6 9.46,-5.36 -2.99,1.31 -5.8,4.8 -5.33,7.55 1.9,-5.7 8.26,-4.88 10.82,-11.2 0.55,6.84 -3.57,8.33 -7.64,17.64 2.58,-2.88 3.98,-7.87 9.31,-9.97 -2.69,2.13 -3.76,5.12 -5.47,8.47 -1.39,2.74 -3.76,4.72 -5.12,2.7 -8.28,-12.29 -15.59,-15.84 -24.97,-8.52 2.22,-2.93 -0.94,-2.27 6.09,-9.73z"/>
  <g style="clip-path:url(#id1)">
   <g id="_1054172168">
    <path id="1" class="fil2 str0" d="M-12.87 22.37c3.47,2.12 6.48,2.88 9.36,2.73 9.12,-0.47 8.99,17.23 6.07,24.75"/>
    <path class="fil2 str0" d="M-12.86 19.38c3.89,-4.39 14.12,-1.02 21.28,-9.8"/>
    <path class="fil2 str0" d="M-21.13 37.79c-1.43,-6.31 -0.63,-10.07 1.85,-11.05 2.95,-1.16 5.89,-4.24 6.51,-5.37 4.12,2.02 7.55,2.8 10.6,3.79 8.03,0.74 8.29,16.44 5.77,23.82"/>
    <path class="fil2 str0" d="M-21.14 40.77c-3.63,-8.44 -1.16,-13.99 1.63,-15.33 2.86,-1.37 6.12,-2.94 6.74,-4.07 4.33,0.71 9.51,0.63 11.94,3.85 6.95,1.95 7.59,15.66 5.47,22.88"/>
    <path class="fil2 str0" d="M-22.49 40.34c-3.16,-6.31 -1.06,-15.09 4.54,-17.73 1.84,-0.87 2.79,-0.67 5.11,-1.54 12.62,-3.94 21.87,12.39 18.52,26.15"/>
    <path class="fil2 str0" d="M-24.31 25.37c2.51,-3.62 9.17,-5.42 11.51,-4.57 12.23,-5.87 21.91,13.02 19.52,25.54"/>
    <path class="fil2 str0" d="M-23.66 23.82c4.78,-4.46 8.99,-4.05 10.85,-3.41 13.65,-5.53 22.41,11.53 20.57,25.05"/>
    <path class="fil2 str0" d="M-22.2 19.78c3.78,-2.27 8.65,-2.4 9.43,0.28 8.1,-4.97 15.23,1.11 18.92,5.47"/>
    <path class="fil2 str1" d="M18.71 24.6c2.32,-2.82 0.73,-4.86 4.4,-8.7 -1.48,2.79 -0.56,4.95 0.26,7.17"/>
    <path class="fil2 str1" d="M24.36 22.31c1.45,-3.85 1.33,-6.34 9.7,-8.84 -5.14,3.07 -7.05,4.74 -7.91,9.56"/>
    <path class="fil2 str1" d="M28.2 23.4c4.35,-8.88 10.21,-6.22 16.09,-12.95 -2.12,5.79 -10.19,8.55 -11.78,15.73"/>
    <path class="fil2 str1" d="M34.85 26.84c2.39,-3.33 4.91,-7.65 8.69,-9.01 -2.71,2.2 -5.66,4.76 -6.25,11.19"/>
    <path class="fil2 str1" d="M38.96 31.07c6.11,-13.6 7.35,-9.1 12.73,-15.63 -3.42,8.37 -9.15,9.61 -11.53,19.08"/>
    <path class="fil2 str1" d="M41.29 37.22c3.27,-2.23 7.01,-11.37 9.33,-13.68 -2.91,5.29 -5.4,14.83 -9.33,16.39"/>
    <path class="fil2 str1" d="M30.48 24.93c1.3,-6.4 8.75,-8.59 13.81,-14.48"/>
    <path class="fil2 str1" d="M39.64 32.88c1.3,-6.4 6.91,-11.04 12.05,-17.44"/>
    <path class="fil2 str1" d="M37.92 31.29c2.18,-6.15 0.48,-7.06 5.62,-13.46"/>
   </g>
  </g>
  <path class="fil2" d="M24.62 13.3c-0.65,1.5 -2.71,7.13 0.14,5.66 0.84,-2.88 3.66,-4.29 12.5,-7.06 -5.14,3.24 -8.35,5.45 -6.62,6.37 2.95,-4.54 11.43,-3.79 14.31,-10.08 1.08,7.44 -8.1,9.72 -7.48,13.53 1.42,-2.73 5.32,-4.6 9.46,-5.36 -2.99,1.31 -5.8,4.8 -5.33,7.55 1.9,-5.7 8.26,-4.88 10.82,-11.2 0.55,6.84 -3.57,8.33 -7.64,17.64 2.58,-2.88 3.98,-7.87 9.31,-9.97 -2.69,2.13 -3.76,5.12 -5.47,8.47 -1.39,2.74 -3.76,4.72 -5.12,2.7 -8.28,-12.29 -15.59,-15.84 -24.97,-8.52 2.22,-2.93 -0.94,-2.27 6.09,-9.73z"/>
  <path class="fil3" d="M19.05 23.44c10.22,-9.82 19.5,1.87 24.34,8.59 2.36,3.27 6.21,-4.04 8.25,-7.23 -1.19,12.2 -3.26,19.1 -11.89,17.98 -2.04,2.51 -4.2,4.1 -7.2,5.39 -0.93,1.79 -2.68,3.93 -4.77,5.08 1.78,-2.13 1.17,-2.88 1.17,-2.88 -1.66,3.76 -8.74,5.11 -9.41,6.15 2.14,-3.35 0.46,-7.44 -1.58,-10.46 -0.49,-0.72 -0.93,-1.52 -1.31,-2.34 -0.78,-1.74 -1.27,-3.62 -1.36,-5.28 -4.68,-6.84 -0.31,-13.6 3.76,-15z"/>
  <g style="clip-path:url(#id2)">
   <g id="_1048396552">
    <path id="1" class="fil2 str0" d="M23.6 23.88c3.71,2.27 6.93,3.08 10,2.92 9.75,-0.5 9.61,18.42 6.49,26.46"/>
    <path class="fil2 str0" d="M23.61 20.69c4.16,-4.7 14.72,-2.03 17.21,0.08"/>
    <path class="fil2 str0" d="M14.77 40.37c-1.53,-6.76 -0.67,-10.77 1.98,-11.82 3.15,-1.24 6.29,-4.53 6.96,-5.74 4.4,2.16 8.07,2.99 11.32,4.06 8.59,0.79 9.03,13.99 9.03,20.48"/>
    <path class="fil2 str0" d="M14.75 43.55c-3.87,-9.02 -1.23,-14.96 1.75,-16.39 3.06,-1.47 6.54,-3.14 7.21,-4.35 4.62,0.76 10.15,0.68 12.75,4.12 8.32,3.42 6.83,14.61 12.07,16.33"/>
    <path class="fil2 str0" d="M13.31 43.09c-3.37,-6.75 -1.13,-16.13 4.85,-18.95 1.98,-0.93 2.99,-0.72 5.47,-1.65 20.14,0.83 18.03,18.43 27.22,15.67"/>
    <path class="fil2 str0" d="M11.38 27.09c2.67,-3.87 9.8,-5.8 12.29,-4.89 13.68,-5.94 21.41,23.06 27.65,9.82"/>
    <path class="fil2 str0" d="M12.07 25.43c5.1,-4.77 9.61,-4.33 11.59,-3.64 16.37,-6.79 18.59,26.12 29.07,4.25"/>
    <path class="fil2 str0" d="M13.62 21.11c4.04,-2.42 9.26,-2.56 10.09,0.3 8.65,-5.31 16.27,1.19 20.22,5.84"/>
   </g>
  </g>
  <path class="fil2" d="M19.05 23.44c10.22,-9.82 19.5,1.87 24.34,8.59 2.36,3.27 6.21,-4.04 8.25,-7.23 -1.19,12.2 -3.26,19.1 -11.89,17.98 -2.04,2.51 -4.2,4.1 -7.2,5.39 -0.93,1.79 -2.68,3.93 -4.77,5.08 1.78,-2.13 1.17,-2.88 1.17,-2.88 -1.66,3.76 -8.74,5.11 -9.41,6.15 2.14,-3.35 0.46,-7.44 -1.58,-10.46 -0.49,-0.72 -0.93,-1.52 -1.31,-2.34 -0.78,-1.74 -1.27,-3.62 -1.36,-5.28 -4.68,-6.84 -0.31,-13.6 3.76,-15z"/>
  <path class="fil4" d="M37.66 40.52c-0.01,-0.08 2.44,-2.02 2.59,-2.86 0.14,-0.75 0.09,-1.42 0.07,-2.18 -0.03,-1 -0.5,-2.41 -1.69,-2.55 -0.51,-0.05 -0.96,0.19 -1.31,0.54 -0.57,0.59 -0.86,1.48 -1.01,2.26l-0.41 2.07 -0.2 -2.1c-0.42,-4.37 -0.58,-6.76 -4.89,-7.58 -3.01,0.88 -6.8,-3.07 -7.32,-4.36 -0.95,3.3 -2.26,3.6 -4.86,5.17 -0.83,0.5 -2.24,1.44 -2.63,3.47 -0.36,0.73 0.11,5.97 0.55,9.49 0.91,2.78 2.55,5.2 4.92,6.7 0.99,0.63 2.01,-0.75 2.01,-1.46 0.3,0.01 0.7,-0.06 1.07,-0.05 0.96,3.29 5.51,1.17 6.93,0.54 2.25,-0.98 4.12,-4 5.54,-5.73 0.51,-0.63 0.15,-0.71 0.64,-1.37z"/>
  <path class="fil5" d="M38.87 39.97c0.8,-0.56 1.21,-1.37 1.38,-2.31 0.14,-0.75 0.09,-1.42 0.07,-2.18 -0.03,-1 -0.5,-2.41 -1.69,-2.55 -0.51,-0.05 -0.96,0.19 -1.31,0.54 -0.96,0.99 -0.43,1.34 -0.69,2.68 -0.37,-3.91 -0.19,-8.44 -5.82,-8.03 -2.49,0.18 -5.9,-2.02 -7.32,-4.36 -0.75,4.74 -0.92,8.53 -0.24,13.97 -0.21,2.55 -1.3,4.8 -1.49,5.55 0.54,0.18 1.28,0.2 1.69,0.11 0.14,1.94 0.07,1.92 0.4,3.73 0.05,0 0.48,-0.05 0.7,-0.04 0.9,3.17 5.04,1.37 6.93,0.54 2.03,-0.88 5.11,-4.84 5.99,-6.5 0.87,-0.88 0.18,-0.46 0.48,-1.21 0.31,-0.8 0.88,0.09 0.92,0.06z"/>
  <path class="fil6" d="M23.57 45.26c0.6,-0.3 2.49,1.5 2.71,1.57 -0.14,0.01 -2.8,-1.08 -4.44,0.21 0.18,-0.11 1.06,-1.97 1.73,-1.78z"/>
  <path class="fil0" d="M38.73 33.46c0.63,-0.06 1.2,0.81 1.28,1.95 0.06,0.87 -0.18,1.64 -0.57,1.98 0.2,-0.4 0.31,-0.96 0.26,-1.57 -0.08,-1.13 -0.65,-2 -1.27,-1.94 -0.15,0.01 -0.29,0.08 -0.41,0.18 0.18,-0.34 0.43,-0.57 0.71,-0.6z"/>
  <path class="fil0" d="M38.07 36.45c0.33,0 0.8,0.33 0.78,0.74 -0.02,0.3 -0.25,0.57 -0.55,0.68 0.17,-0.14 0.29,-0.33 0.3,-0.55 0.02,-0.4 -0.5,-0.73 -0.78,-0.73 -0.28,0 -0.49,-0.51 -0.24,-0.9 -0.06,0.34 0.16,0.76 0.49,0.76z"/>
  <path class="fil0" d="M32.61 28.44c-0.27,-0.03 -6.49,0.14 -9.12,-4.68 1.35,1.3 4.66,3.66 9.21,3.78 3.91,0.11 6.27,2.51 6.39,4.13 0.11,1.5 0.45,3.49 0.57,6.02 0.09,1.99 0.74,5.16 3.46,6.81 -0.86,0.01 -3.4,-0.32 -4.66,-4.69 -0.09,3.13 1.36,6.7 4.84,8.37 -4.13,-0.79 -6.31,-4.26 -6.6,-8.02 -0.23,-3.1 -0.54,-6.13 -0.71,-8.53 -0.18,-2.44 -2.56,-3.1 -3.38,-3.19z"/>
  <path class="fil0" d="M24.01 44.24c2.08,-2.32 8.53,4.72 10.92,3.73 -3.25,5.27 -6.8,-3.41 -10.92,-3.73z"/>
  <path class="fil0" d="M22.99 44.26c-1.41,-1.54 -4.42,4.23 -5.89,3.7 2.36,3.62 3.57,-3.11 5.89,-3.7z"/>
  <path class="fil0" d="M18.39 29.5c0.18,-0.06 4.23,-1.65 5.1,-5.74 -0.78,1.21 -2.96,3.6 -5.8,4.92 -5.17,2.39 -2.99,14.02 -0.36,18.55 -0.98,-4.27 -1.37,-9.15 -1.34,-13.44 -0.15,-2.02 1.06,-3.83 2.4,-4.29z"/>
  <path class="fil0" d="M32.68 35.32c-0.19,-0.39 -0.19,-0.62 -0.43,-0.73 0.16,-0.14 0.34,-0.61 0.34,-1.11 -0.18,0.31 -1.02,0.95 -1.17,0.94 0.51,-0.43 0.4,-0.89 0.45,-1.3 -0.21,0.65 -1.04,1.22 -1.1,1.22 0.24,-0.23 0.03,-0.75 -0.04,-0.75 -0.13,0.52 -1.08,1.01 -1.15,1.01 -0.83,0.05 -4.87,1.11 -5.65,4.29 1.62,-3.11 6.98,-4.18 8.75,-3.57z"/>
  <path class="fil0" d="M17.37 36.25c0.14,-0.43 0.16,-0.67 0.31,-0.81 -0.09,-0.13 -0.16,-0.59 -0.12,-1.11 0.09,0.3 0.55,0.85 0.64,0.82 -0.28,-0.37 -0.18,-0.87 -0.18,-1.28 0.08,0.64 0.55,1.12 0.58,1.11 -0.13,-0.21 0.04,-0.77 0.08,-0.78 0.04,0.53 0.59,0.91 0.63,0.9 0.5,-0.05 2.88,0.51 3.12,3.69 -0.76,-3 -3.94,-3.41 -5.06,-2.54z"/>
  <g id="_1046086264">
   <g>
    <g>
     <path class="fil2 str2" d="M24.96 39.35c-0.01,-0.03 1.6,-0.95 0.86,-1.89"/>
    </g>
    <g>
     <path class="fil2 str2" d="M26.37 39.19c0.52,-1.97 1.92,-0.83 2.35,-2.19"/>
    </g>
    <g>
     <path class="fil2 str2" d="M27.91 37.74c0.24,-0.07 0.48,0.08 0.61,0.35"/>
    </g>
    <g>
     <path class="fil2 str2" d="M24.88 40.59c0.26,0.5 -0.08,0.47 -0.25,0.84"/>
    </g>
    <g>
     <path class="fil2 str2" d="M26.49 40.34c0.5,0.2 -0.12,1.03 0.83,1.22"/>
    </g>
    <g>
     <path class="fil2 str2" d="M28.15 39.81c0.88,0.99 1.29,-0.24 1.91,0.72"/>
    </g>
    <g>
     <path class="fil2 str2" d="M29.44 38.47c0.93,-0.62 1.42,-0.06 2.44,-0.39 0.7,-0.23 1.45,-0.64 1.73,-1.38 0.01,-0.03 0.01,-0.04 0.01,-0.08"/>
    </g>
    <g>
     <path class="fil2 str2" d="M30.68 39.05c0.53,-0.3 -0.5,-0.81 0.09,-0.9 0.32,-0.05 0.42,-0.41 0.52,-0.69"/>
    </g>
    <g>
     <path class="fil2 str2" d="M32.17 37.97c0.32,0.16 -0.02,0.4 0.48,0.57"/>
    </g>
    <g>
     <path class="fil2 str2" d="M26.65 41.2c-0.24,0.03 -0.51,0.05 -0.56,0.33"/>
    </g>
   </g>
   <g>
    <path class="fil2 str2" d="M24.02 40.37c0.15,-1.83 2.92,-0.58 5.42,-1.9 -0.82,1.93 -5.47,2.48 -5.42,1.9z"/>
    <path id="1" class="fil1" d="M24.02 40.37c0.15,-1.83 2.92,-0.58 5.42,-1.9 -0.82,1.93 -5.47,2.48 -5.42,1.9z"/>
   </g>
  </g>
  <g>
   <g>
    <g>
     <path class="fil2 str2" d="M21.41 39.25c0.01,-0.04 -1.25,-0.93 -0.67,-1.89"/>
    </g>
    <g>
     <path class="fil2 str2" d="M20.31 39.1c-0.4,-1.96 -1.49,-0.79 -1.83,-2.16"/>
    </g>
    <g>
     <path class="fil2 str2" d="M19.12 37.68c-0.19,-0.07 -0.38,0.08 -0.48,0.35"/>
    </g>
    <g>
     <path class="fil2 str2" d="M21.47 40.48c-0.19,0.51 0.07,0.47 0.2,0.84"/>
    </g>
    <g>
     <path class="fil2 str2" d="M20.22 40.26c-0.39,0.2 0.1,1.02 -0.65,1.23"/>
    </g>
    <g>
     <path class="fil2 str2" d="M18.92 39.75c-0.68,1.01 -1,-0.23 -1.48,0.74"/>
    </g>
    <g>
     <path class="fil2 str2" d="M17.92 38.42c-0.43,-0.42 -0.69,-0.15 -0.99,-0.31"/>
    </g>
    <g>
     <path class="fil2 str2" d="M16.79 38.61c0.2,-0.05 0.41,-0.12 0.31,-0.44 -0.28,-0.01 -0.48,-0.29 -0.53,-0.61"/>
    </g>
    <g>
     <path class="fil2 str2" d="M20.1 41.12c0.18,0.03 0.39,0.04 0.43,0.32"/>
    </g>
   </g>
   <g>
    <path class="fil2 str2" d="M22.15 40.25c-0.12,-1.82 -2.28,-0.54 -4.23,-1.83 0.64,1.92 4.27,2.42 4.23,1.83z"/>
    <path id="1" class="fil1" d="M22.15 40.25c-0.12,-1.82 -2.28,-0.54 -4.23,-1.83 0.64,1.92 4.27,2.42 4.23,1.83z"/>
   </g>
  </g>
  <g>
   <path class="fil2 str2" d="M22.94 28.9c0.56,1.08 1.04,2.73 1.18,3.9 -0.79,-0.14 -1.64,0.03 -2.41,0.15 0.12,-1.24 0.62,-2.88 1.23,-4.05z"/>
   <path id="1" class="fil1" d="M22.94 28.9c0.56,1.08 1.04,2.73 1.18,3.9 -0.79,-0.14 -1.64,0.03 -2.41,0.15 0.12,-1.24 0.62,-2.88 1.23,-4.05z"/>
  </g>
 </g>
</svg>
