<?xml version="1.0" encoding="UTF-8"?>
<!DOCTYPE svg PUBLIC "-//W3C//DTD SVG 1.0//EN" "http://www.w3.org/TR/2001/REC-SVG-20010904/DTD/svg10.dtd">
<!-- Creator: CorelDRAW 2019 -->
<svg xmlns="http://www.w3.org/2000/svg" xml:space="preserve" width="1000px" height="1000px" version="1.0" style="shape-rendering:geometricPrecision; text-rendering:geometricPrecision; image-rendering:optimizeQuality; fill-rule:evenodd; clip-rule:evenodd"
viewBox="0 0 105.87 105.87"
 xmlns:xlink="http://www.w3.org/1999/xlink"
 xmlns:xodm="http://www.corel.com/coreldraw/odm/2003">
 <defs>
  <style type="text/css">
   <![CDATA[
    .str1 {stroke:black;stroke-width:0.39;stroke-linecap:round;stroke-linejoin:round;stroke-miterlimit:2.61313}
    .str0 {stroke:black;stroke-width:0.39;stroke-linecap:round;stroke-linejoin:round;stroke-miterlimit:2.61313}
    .str2 {stroke:#CC33FF;stroke-width:0.39;stroke-linecap:round;stroke-linejoin:round;stroke-miterlimit:2.61313}
    .fil2 {fill:none}
    .fil0 {fill:black}
    .fil3 {fill:#1A1A1A}
    .fil1 {fill:#990099}
    .fil4 {fill:#F7B183}
    .fil5 {fill:#FCCAA9}
    .fil6 {fill:#1A1A1A;fill-rule:nonzero}
   ]]>
  </style>
    <clipPath id="id0">
     <path d="M52.94 17.32c19.67,0 35.61,15.95 35.61,35.62 0,19.67 -15.94,35.61 -35.61,35.61 -19.67,0 -35.62,-15.94 -35.62,-35.61 0,-19.67 15.95,-35.62 35.62,-35.62z"/>
    </clipPath>
   <clipPath id="id1">
    <path d="M44.31 30.82c-0.77,1.79 -3.22,8.5 0.17,6.75 1,-3.43 4.36,-5.11 14.89,-8.41 -6.12,3.85 -9.95,6.49 -7.89,7.59 3.51,-5.41 13.61,-4.52 17.05,-12.01 1.29,8.86 -9.65,11.58 -8.92,16.11 1.7,-3.25 6.35,-5.48 11.28,-6.38 -3.57,1.56 -6.91,5.72 -6.36,9 2.27,-6.8 9.85,-5.82 12.9,-13.35 0.65,8.15 -4.25,9.92 -9.1,21.02 3.07,-3.44 4.74,-9.38 11.08,-11.88 -3.2,2.54 -4.48,6.09 -6.51,10.09 -1.66,3.26 -4.48,5.62 -6.1,3.22 -9.87,-14.64 -18.57,-18.87 -29.75,-10.15 2.65,-3.49 -1.11,-2.71 7.26,-11.6z"/>
   </clipPath>
   <clipPath id="id2">
    <path d="M37.67 42.9c12.18,-11.7 23.24,2.23 29,10.23 2.81,3.91 7.4,-4.81 9.82,-8.6 -1.41,14.53 -3.88,22.75 -14.16,21.42 -2.43,2.98 -5,4.87 -8.57,6.42 -1.11,2.13 -3.2,4.68 -5.69,6.05 2.13,-2.54 1.4,-3.44 1.4,-3.44 -1.98,4.48 -10.41,6.09 -11.21,7.33 2.55,-3.99 0.55,-8.87 -1.89,-12.46 -0.58,-0.86 -1.1,-1.81 -1.55,-2.79 -0.93,-2.07 -1.52,-4.31 -1.62,-6.29 -5.58,-8.15 -0.37,-16.2 4.47,-17.87z"/>
   </clipPath>
 </defs>
 <g id="Layer_x0020_1">
  <metadata id="CorelCorpID_0Corel-Layer"/>
  <rect class="fil0" width="105.87" height="105.87"/>
  <circle class="fil0" cx="52.94" cy="52.94" r="37.95"/>
  <g id="_1326332864">
   <path class="fil1" d="M52.94 17.32c19.67,0 35.61,15.95 35.61,35.62 0,19.67 -15.94,35.61 -35.61,35.61 -19.67,0 -35.62,-15.94 -35.62,-35.61 0,-19.67 15.95,-35.62 35.62,-35.62z"/>
   <g style="clip-path:url(#id0)">
    <g>
     <g>
      <rect class="fil0" x="46.21" y="-8.05" width="0.56" height="62.15"/>
      <rect class="fil0" transform="matrix(0.965926 0.258819 -0.258819 0.965926 62.297 -5.93442)" width="0.56" height="62.15"/>
      <rect class="fil0" transform="matrix(0.866025 0.5 -0.5 0.866025 77.2853 0.273905)" width="0.56" height="62.15"/>
      <rect class="fil0" transform="matrix(0.707107 0.707107 -0.707107 0.707107 90.1559 10.1499)" width="0.56" height="62.15"/>
      <rect class="fil0" transform="matrix(0.5 0.866025 -0.866025 0.5 100.032 23.0206)" width="0.56" height="62.15"/>
      <rect class="fil0" transform="matrix(0.258819 0.965926 -0.965926 0.258819 106.24 38.0088)" width="0.56" height="62.15"/>
      <rect class="fil0" transform="matrix(2.63956E-14 1 -1 2.63956E-14 108.358 54.0931)" width="0.56" height="62.15"/>
      <rect class="fil0" transform="matrix(-0.258819 0.965926 -0.965926 -0.258819 106.24 70.1775)" width="0.56" height="62.15"/>
      <rect class="fil0" transform="matrix(-0.5 0.866025 -0.866025 -0.5 100.032 85.1657)" width="0.56" height="62.15"/>
      <rect class="fil0" transform="matrix(-0.707107 0.707107 -0.707107 -0.707107 90.1559 98.0363)" width="0.56" height="62.15"/>
      <rect class="fil0" transform="matrix(-0.866025 0.5 -0.5 -0.866025 77.2853 107.912)" width="0.56" height="62.15"/>
      <rect class="fil0" transform="matrix(-0.965926 0.258819 -0.258819 -0.965926 62.297 114.121)" width="0.56" height="62.15"/>
      <rect class="fil0" x="45.65" y="54.09" width="0.56" height="62.15"/>
      <rect class="fil0" transform="matrix(-0.965926 -0.258819 0.258819 -0.965926 30.1284 114.121)" width="0.56" height="62.15"/>
      <rect class="fil0" transform="matrix(-0.866025 -0.5 0.5 -0.866025 15.1402 107.912)" width="0.56" height="62.15"/>
      <rect class="fil0" transform="matrix(-0.707107 -0.707107 0.707107 -0.707107 2.2695 98.0363)" width="0.56" height="62.15"/>
      <rect class="fil0" transform="matrix(-0.5 -0.866025 0.866025 -0.5 -7.60651 85.1657)" width="0.56" height="62.15"/>
      <rect class="fil0" transform="matrix(-0.258819 -0.965926 0.965926 -0.258819 -13.8148 70.1775)" width="0.56" height="62.15"/>
      <rect class="fil0" transform="matrix(-7.91589E-14 -1 1 -7.91589E-14 -15.9324 54.0931)" width="0.56" height="62.15"/>
      <rect class="fil0" transform="matrix(0.258819 -0.965926 0.965926 0.258819 -13.8148 38.0088)" width="0.56" height="62.15"/>
      <rect class="fil0" transform="matrix(0.5 -0.866025 0.866025 0.5 -7.60651 23.0206)" width="0.56" height="62.15"/>
      <rect class="fil0" transform="matrix(0.707107 -0.707107 0.707107 0.707107 2.2695 10.1499)" width="0.56" height="62.15"/>
      <rect class="fil0" transform="matrix(0.866025 -0.5 0.5 0.866025 15.1402 0.273905)" width="0.56" height="62.15"/>
      <rect class="fil0" transform="matrix(0.965926 -0.258819 0.258819 0.965926 30.1284 -5.93442)" width="0.56" height="62.15"/>
     </g>
    </g>
   </g>
   <path class="fil2" d="M52.94 17.32c19.67,0 35.61,15.95 35.61,35.62 0,19.67 -15.94,35.61 -35.61,35.61 -19.67,0 -35.62,-15.94 -35.62,-35.61 0,-19.67 15.95,-35.62 35.62,-35.62z"/>
  </g>
  <path class="fil0" d="M51.56 35.95c0.15,-0.2 0.31,-0.38 0.48,-0.56 2.27,-2.44 6.19,-3.56 9.18,-4.88 2.98,-1.31 5.58,-2.93 7,-6l0.71 -1.55 0.24 1.68c0.59,4.04 -1.18,6.96 -3.96,9.68 -1.3,1.28 -2.87,2.49 -4.02,3.89 1.71,-1.54 8.59,-5.55 10.46,-3.49 -2.59,1.13 -5.11,3.32 -6.15,6 1.87,-2.59 4.75,-3.73 7.27,-5.51 2.01,-1.42 3.41,-3.01 4.34,-5.31l0.8 -1.96 0.17 2.11c0.18,2.26 -0.03,4.33 -0.87,6.44 -1.01,2.57 -2.79,4.91 -4.25,7.26 2.97,-3.82 5.37,-4.57 9.56,-6.23 -3.16,2.51 -4.83,3.68 -6.79,7.48 3.01,-4.83 -0.64,12.02 -0.76,12.41 -0.88,2.87 -2.27,5.86 -4.84,7.6 -1.42,0.95 -3.01,1.4 -4.67,1.52 0.39,0.38 0.82,0.72 1.29,1.01l1.52 0.91 -1.77 0.02c-1.55,0.01 -2.92,-0.74 -3.94,-1.87 -0.1,0.11 -0.19,0.22 -0.28,0.33 0.9,2.19 2.49,3.93 4.64,4.96l0.4 0.19 -0.28 0.84 -0.43 -0.08c-2.59,-0.49 -4.73,-1.87 -6.21,-3.99 -1.23,1.12 -2.56,2.04 -4,2.83 0.05,-0.01 0.1,-0.02 0.15,-0.04l1.43 -0.59 -0.81 1.31c-0.96,1.55 -2.24,2.62 -4.02,2.14 -1.23,1.7 -2.86,3.32 -4.69,4.33l-2.34 1.29c0.68,-0.81 1.44,-1.65 2.06,-2.5 -1.88,1.66 -8.49,5.03 -10.47,4.81l0.27 -0.42c1.69,-2.64 1.23,-5.72 0.05,-8.44 -1.76,1.11 -2.96,-1.23 -3.76,-2.45l1.08 0.38 -0.02 -0.03c-1.89,-3.26 -3.04,-8.15 -3.31,-11.94 -1.67,-3.11 -2.09,-6.58 -0.95,-9.95 0.87,-2.59 2.69,-5.06 5.07,-6.47 0.54,-0.73 0.87,-1.39 1.14,-2.27 1.62,-5.42 5.07,-8.54 8.78,-12.48 -0.45,1.05 -3.6,8.12 -2.51,8.94 0.3,0.22 1.45,-5.82 16.63,-8.31 -1.48,0.93 -8.69,5.64 -8.62,6.96zm-15.24 35.42c0.14,-0.09 0.28,-0.2 0.4,-0.31 -0.2,-0.32 -0.4,-0.64 -0.62,-0.95 -0.02,-0.04 -0.05,-0.08 -0.08,-0.13 0.07,0.38 0.15,0.75 0.24,1.13l0.06 0.26z"/>
  <path class="fil3" d="M44.31 30.82c-0.77,1.79 -3.22,8.5 0.17,6.75 1,-3.43 4.36,-5.11 14.89,-8.41 -6.12,3.85 -9.95,6.49 -7.89,7.59 3.51,-5.41 13.61,-4.52 17.05,-12.01 1.29,8.86 -9.65,11.58 -8.92,16.11 1.7,-3.25 6.35,-5.48 11.28,-6.38 -3.57,1.56 -6.91,5.72 -6.36,9 2.27,-6.8 9.85,-5.82 12.9,-13.35 0.65,8.15 -4.25,9.92 -9.1,21.02 3.07,-3.44 4.74,-9.38 11.08,-11.88 -3.2,2.54 -4.48,6.09 -6.51,10.09 -1.66,3.26 -4.48,5.62 -6.1,3.22 -9.87,-14.64 -18.57,-18.87 -29.75,-10.15 2.65,-3.49 -1.11,-2.71 7.26,-11.6z"/>
  <g style="clip-path:url(#id1)">
   <g id="_1046914976">
    <path id="1" class="fil2 str0" d="M-0.35 41.63c4.14,2.52 7.72,3.43 11.15,3.25 10.86,-0.56 10.71,20.53 7.23,29.49"/>
    <path class="fil2 str0" d="M-0.33 38.07c4.63,-5.23 16.81,-1.22 25.34,-11.68"/>
    <path class="fil2 str0" d="M-10.19 60c-1.7,-7.52 -0.74,-12 2.21,-13.16 3.51,-1.39 7.01,-5.05 7.75,-6.4 4.91,2.41 9,3.33 12.63,4.52 9.57,0.88 9.87,19.58 6.87,28.36"/>
    <path class="fil2 str0" d="M-10.2 63.55c-4.32,-10.06 -1.38,-16.67 1.94,-18.26 3.41,-1.64 7.29,-3.5 8.03,-4.85 5.16,0.84 11.32,0.75 14.22,4.59 8.28,2.32 9.05,18.65 6.52,27.25"/>
    <path class="fil2 str0" d="M-11.81 63.04c-3.76,-7.52 -1.26,-17.98 5.41,-21.12 2.2,-1.04 3.32,-0.8 6.09,-1.84 15.03,-4.7 26.05,14.76 22.06,31.15"/>
    <path class="fil2 str0" d="M-13.97 45.2c2.99,-4.31 10.92,-6.46 13.7,-5.44 14.57,-6.99 26.11,15.51 23.26,30.43"/>
    <path class="fil2 str0" d="M-13.2 43.35c5.69,-5.31 10.71,-4.82 12.92,-4.05 16.26,-6.6 26.7,13.73 24.51,29.84"/>
    <path class="fil2 str0" d="M-11.47 38.54c4.51,-2.69 10.32,-2.86 11.25,0.34 9.64,-5.93 18.13,1.32 22.53,6.51"/>
    <path class="fil2 str1" d="M37.27 44.29c2.77,-3.36 0.87,-5.79 5.25,-10.37 -1.77,3.33 -0.67,5.9 0.3,8.54"/>
    <path class="fil2 str1" d="M44 41.55c1.73,-4.58 1.59,-7.55 11.55,-10.52 -6.12,3.65 -8.4,5.65 -9.42,11.39"/>
    <path class="fil2 str1" d="M48.57 42.85c5.19,-10.57 12.17,-7.4 19.17,-15.42 -2.53,6.89 -12.14,10.18 -14.03,18.74"/>
    <path class="fil2 str1" d="M56.5 46.95c2.84,-3.97 5.84,-9.11 10.34,-10.72 -3.22,2.61 -6.74,5.66 -7.44,13.32"/>
    <path class="fil2 str1" d="M61.39 52c7.28,-16.21 8.76,-10.85 15.17,-18.62 -4.07,9.97 -10.9,11.45 -13.73,22.73"/>
    <path class="fil2 str1" d="M64.17 59.32c3.89,-2.66 8.35,-13.55 11.11,-16.29 -3.46,6.3 -6.44,17.66 -11.11,19.52"/>
    <path class="fil2 str1" d="M51.3 44.69c1.54,-7.64 10.41,-10.25 16.44,-17.26"/>
    <path class="fil2 str1" d="M62.2 54.16c1.55,-7.64 8.24,-13.16 14.36,-20.78"/>
    <path class="fil2 str1" d="M60.16 52.26c2.59,-7.33 0.57,-8.41 6.68,-16.03"/>
   </g>
  </g>
  <path class="fil2" d="M44.31 30.82c-0.77,1.79 -3.22,8.5 0.17,6.75 1,-3.43 4.36,-5.11 14.89,-8.41 -6.12,3.85 -9.95,6.49 -7.89,7.59 3.51,-5.41 13.61,-4.52 17.05,-12.01 1.29,8.86 -9.65,11.58 -8.92,16.11 1.7,-3.25 6.35,-5.48 11.28,-6.38 -3.57,1.56 -6.91,5.72 -6.36,9 2.27,-6.8 9.85,-5.82 12.9,-13.35 0.65,8.15 -4.25,9.92 -9.1,21.02 3.07,-3.44 4.74,-9.38 11.08,-11.88 -3.2,2.54 -4.48,6.09 -6.51,10.09 -1.66,3.26 -4.48,5.62 -6.1,3.22 -9.87,-14.64 -18.57,-18.87 -29.75,-10.15 2.65,-3.49 -1.11,-2.71 7.26,-11.6z"/>
  <path class="fil3" d="M37.67 42.9c12.18,-11.7 23.24,2.23 29,10.23 2.81,3.91 7.4,-4.81 9.82,-8.6 -1.41,14.53 -3.88,22.75 -14.16,21.42 -2.43,2.98 -5,4.87 -8.57,6.42 -1.11,2.13 -3.2,4.68 -5.69,6.05 2.13,-2.54 1.4,-3.44 1.4,-3.44 -1.98,4.48 -10.41,6.09 -11.21,7.33 2.55,-3.99 0.55,-8.87 -1.89,-12.46 -0.58,-0.86 -1.1,-1.81 -1.55,-2.79 -0.93,-2.07 -1.52,-4.31 -1.62,-6.29 -5.58,-8.15 -0.37,-16.2 4.47,-17.87z"/>
  <g style="clip-path:url(#id2)">
   <g id="_1328880128">
    <path id="1" class="fil2 str0" d="M43.09 43.43c4.43,2.7 8.26,3.67 11.92,3.48 11.61,-0.6 11.45,21.94 7.73,31.52"/>
    <path class="fil2 str0" d="M43.11 39.62c4.95,-5.59 17.53,-2.41 20.5,0.1"/>
    <path class="fil2 str0" d="M32.57 63.07c-1.81,-8.04 -0.79,-12.83 2.36,-14.07 3.76,-1.49 7.5,-5.4 8.29,-6.84 5.25,2.57 9.62,3.56 13.5,4.83 10.23,0.94 10.74,16.66 10.74,24.39"/>
    <path class="fil2 str0" d="M32.56 66.86c-4.62,-10.75 -1.47,-17.82 2.08,-19.52 3.64,-1.75 7.79,-3.74 8.58,-5.18 5.51,0.9 12.1,0.8 15.2,4.9 9.91,4.08 8.13,17.41 14.37,19.46"/>
    <path class="fil2 str0" d="M30.84 66.32c-4.02,-8.04 -1.35,-19.22 5.78,-22.58 2.35,-1.11 3.56,-0.85 6.51,-1.96 23.99,0.98 21.48,21.95 32.43,18.65"/>
    <path class="fil2 str0" d="M28.53 47.25c3.19,-4.61 11.68,-6.9 14.65,-5.82 16.3,-7.08 25.5,27.47 32.93,11.7"/>
    <path class="fil2 str0" d="M29.36 45.27c6.08,-5.67 11.45,-5.15 13.81,-4.33 19.5,-8.09 22.14,31.11 34.62,5.06"/>
    <path class="fil2 str0" d="M31.21 40.13c4.81,-2.88 11.02,-3.06 12.02,0.36 10.31,-6.33 19.38,1.42 24.08,6.96"/>
   </g>
  </g>
  <path class="fil2" d="M37.67 42.9c12.18,-11.7 23.24,2.23 29,10.23 2.81,3.91 7.4,-4.81 9.82,-8.6 -1.41,14.53 -3.88,22.75 -14.16,21.42 -2.43,2.98 -5,4.87 -8.57,6.42 -1.11,2.13 -3.2,4.68 -5.69,6.05 2.13,-2.54 1.4,-3.44 1.4,-3.44 -1.98,4.48 -10.41,6.09 -11.21,7.33 2.55,-3.99 0.55,-8.87 -1.89,-12.46 -0.58,-0.86 -1.1,-1.81 -1.55,-2.79 -0.93,-2.07 -1.52,-4.31 -1.62,-6.29 -5.58,-8.15 -0.37,-16.2 4.47,-17.87z"/>
  <path class="fil4" d="M59.84 63.25c-0.01,-0.09 2.91,-2.41 3.09,-3.4 0.16,-0.9 0.11,-1.7 0.08,-2.6 -0.04,-1.19 -0.6,-2.88 -2.01,-3.04 -0.6,-0.06 -1.15,0.22 -1.56,0.65 -0.67,0.69 -1.03,1.75 -1.21,2.68l-0.48 2.48 -0.24 -2.51c-0.5,-5.21 -0.69,-8.05 -5.82,-9.03 -3.59,1.05 -8.11,-3.65 -8.73,-5.2 -1.12,3.94 -2.69,4.3 -5.78,6.16 -1,0.6 -2.67,1.72 -3.14,4.14 -0.43,0.87 0.13,7.11 0.65,11.31 1.09,3.31 3.04,6.19 5.87,7.98 1.18,0.74 2.39,-0.9 2.39,-1.74 0.37,0.01 0.84,-0.08 1.28,-0.07 1.14,3.92 6.56,1.39 8.25,0.65 2.68,-1.17 4.91,-4.76 6.6,-6.83 0.61,-0.75 0.18,-0.84 0.76,-1.63z"/>
  <path class="fil5" d="M61.28 62.6c0.96,-0.67 1.45,-1.64 1.65,-2.75 0.16,-0.9 0.11,-1.7 0.08,-2.6 -0.04,-1.19 -0.6,-2.88 -2.01,-3.04 -0.6,-0.06 -1.15,0.22 -1.56,0.65 -1.14,1.17 -0.51,1.59 -0.82,3.18 -0.45,-4.66 -0.22,-10.05 -6.93,-9.56 -2.97,0.22 -7.03,-2.41 -8.73,-5.2 -0.89,5.65 -1.09,10.16 -0.28,16.64 -0.25,3.05 -1.55,5.72 -1.78,6.62 0.64,0.21 1.53,0.24 2.02,0.13 0.16,2.31 0.08,2.28 0.47,4.44 0.06,0 0.57,-0.06 0.84,-0.05 1.07,3.78 6,1.64 8.25,0.65 2.41,-1.05 6.09,-5.76 7.14,-7.74 1.04,-1.05 0.21,-0.55 0.56,-1.45 0.38,-0.94 1.05,0.12 1.1,0.08z"/>
  <path class="fil6" d="M43.07 68.9c0.7,-0.36 2.96,1.78 3.22,1.87 -0.17,0.01 -3.34,-1.29 -5.29,0.25 0.21,-0.13 1.26,-2.35 2.07,-2.12z"/>
  <path class="fil0" d="M61.12 54.85c0.74,-0.08 1.42,0.96 1.52,2.31 0.08,1.04 -0.21,1.95 -0.68,2.37 0.25,-0.48 0.37,-1.15 0.32,-1.87 -0.1,-1.36 -0.78,-2.4 -1.52,-2.32 -0.18,0.01 -0.34,0.09 -0.49,0.22 0.21,-0.41 0.51,-0.68 0.85,-0.71z"/>
  <path class="fil0" d="M60.33 58.41c0.4,0 0.96,0.39 0.93,0.87 -0.02,0.37 -0.29,0.68 -0.66,0.81 0.21,-0.16 0.35,-0.39 0.36,-0.65 0.03,-0.48 -0.59,-0.87 -0.93,-0.87 -0.33,0 -0.58,-0.61 -0.28,-1.08 -0.08,0.41 0.19,0.92 0.58,0.92z"/>
  <path class="fil0" d="M53.83 48.86c-0.32,-0.03 -7.74,0.17 -10.87,-5.58 1.61,1.55 5.56,4.36 10.97,4.51 4.67,0.13 7.48,2.99 7.62,4.92 0.13,1.79 0.53,4.15 0.67,7.17 0.11,2.37 0.89,6.15 4.13,8.11 -1.03,0.01 -4.05,-0.38 -5.55,-5.58 -0.11,3.72 1.62,7.98 5.76,9.96 -4.92,-0.93 -7.52,-5.07 -7.85,-9.55 -0.28,-3.69 -0.65,-7.3 -0.85,-10.16 -0.22,-2.91 -3.05,-3.69 -4.03,-3.8z"/>
  <path class="fil0" d="M43.59 67.68c2.47,-2.76 10.15,5.62 13.01,4.45 -3.87,6.27 -8.11,-4.07 -13.01,-4.45z"/>
  <path class="fil0" d="M42.36 67.7c-1.67,-1.83 -5.26,5.04 -7,4.42 2.81,4.3 4.24,-3.71 7,-4.42z"/>
  <path class="fil0" d="M36.89 50.13c0.21,-0.07 5.04,-1.97 6.07,-6.85 -0.92,1.45 -3.52,4.3 -6.91,5.86 -6.16,2.85 -3.55,16.71 -0.43,22.1 -1.16,-5.08 -1.62,-10.89 -1.59,-16.01 -0.17,-2.4 1.27,-4.56 2.86,-5.1z"/>
  <path class="fil0" d="M53.91 57.06c-0.23,-0.46 -0.22,-0.74 -0.51,-0.87 0.19,-0.16 0.4,-0.73 0.4,-1.33 -0.21,0.37 -1.21,1.14 -1.39,1.12 0.61,-0.5 0.48,-1.06 0.54,-1.54 -0.26,0.78 -1.24,1.45 -1.31,1.45 0.29,-0.28 0.04,-0.9 -0.05,-0.9 -0.15,0.63 -1.29,1.21 -1.37,1.21 -0.99,0.06 -5.8,1.32 -6.73,5.11 1.93,-3.71 8.31,-4.99 10.42,-4.25z"/>
  <path class="fil0" d="M35.67 58.16c0.18,-0.51 0.19,-0.8 0.38,-0.97 -0.11,-0.14 -0.19,-0.7 -0.15,-1.32 0.1,0.36 0.66,1.02 0.76,0.98 -0.33,-0.44 -0.21,-1.03 -0.21,-1.52 0.1,0.77 0.65,1.33 0.69,1.32 -0.15,-0.24 0.04,-0.92 0.09,-0.92 0.05,0.62 0.7,1.07 0.75,1.07 0.6,-0.07 3.43,0.6 3.72,4.39 -0.9,-3.57 -4.69,-4.06 -6.03,-3.03z"/>
  <g id="_1331626712">
   <g>
    <g>
     <path class="fil2 str2" d="M44.72 61.86c-0.02,-0.04 1.91,-1.13 1.02,-2.26"/>
    </g>
    <g>
     <path class="fil2 str2" d="M46.4 61.66c0.61,-2.34 2.28,-0.98 2.79,-2.61"/>
    </g>
    <g>
     <path class="fil2 str2" d="M48.23 59.94c0.28,-0.09 0.57,0.09 0.72,0.41"/>
    </g>
    <g>
     <path class="fil2 str2" d="M44.63 63.33c0.29,0.6 -0.1,0.56 -0.31,1.01"/>
    </g>
    <g>
     <path class="fil2 str2" d="M46.54 63.04c0.59,0.23 -0.15,1.22 0.98,1.45"/>
    </g>
    <g>
     <path class="fil2 str2" d="M48.52 62.41c1.04,1.18 1.54,-0.3 2.27,0.85"/>
    </g>
    <g>
     <path class="fil2 str2" d="M50.05 60.81c1.11,-0.74 1.7,-0.07 2.9,-0.47 0.84,-0.27 1.73,-0.76 2.07,-1.64 0.02,-0.04 0.01,-0.05 0.01,-0.09"/>
    </g>
    <g>
     <path class="fil2 str2" d="M51.53 61.5c0.63,-0.35 -0.59,-0.96 0.11,-1.07 0.38,-0.06 0.5,-0.49 0.62,-0.82"/>
    </g>
    <g>
     <path class="fil2 str2" d="M53.3 60.21c0.39,0.19 -0.02,0.48 0.57,0.69"/>
    </g>
    <g>
     <path class="fil2 str2" d="M46.73 64.06c-0.29,0.04 -0.6,0.06 -0.67,0.4"/>
    </g>
   </g>
   <g>
    <path class="fil2 str2" d="M43.6 63.07c0.17,-2.18 3.47,-0.69 6.45,-2.26 -0.97,2.3 -6.51,2.96 -6.45,2.26z"/>
    <path id="1" class="fil1" d="M43.6 63.07c0.17,-2.18 3.47,-0.69 6.45,-2.26 -0.97,2.3 -6.51,2.96 -6.45,2.26z"/>
   </g>
  </g>
  <g>
   <g>
    <g>
     <path class="fil2 str2" d="M40.49 61.73c0.01,-0.03 -1.49,-1.1 -0.8,-2.24"/>
    </g>
    <g>
     <path class="fil2 str2" d="M39.18 61.56c-0.48,-2.33 -1.78,-0.95 -2.18,-2.57"/>
    </g>
    <g>
     <path class="fil2 str2" d="M37.75 59.86c-0.22,-0.08 -0.44,0.1 -0.56,0.43"/>
    </g>
    <g>
     <path class="fil2 str2" d="M40.56 63.21c-0.23,0.6 0.08,0.56 0.24,1"/>
    </g>
    <g>
     <path class="fil2 str2" d="M39.07 62.94c-0.46,0.24 0.11,1.22 -0.77,1.47"/>
    </g>
    <g>
     <path class="fil2 str2" d="M37.52 62.33c-0.81,1.2 -1.2,-0.27 -1.77,0.89"/>
    </g>
    <g>
     <path class="fil2 str2" d="M36.33 60.76c-0.51,-0.51 -0.82,-0.18 -1.18,-0.37"/>
    </g>
    <g>
     <path class="fil2 str2" d="M34.99 60.98c0.24,-0.07 0.49,-0.15 0.37,-0.53 -0.34,-0.01 -0.58,-0.34 -0.64,-0.73"/>
    </g>
    <g>
     <path class="fil2 str2" d="M38.92 63.97c0.22,0.03 0.47,0.04 0.52,0.38"/>
    </g>
   </g>
   <g>
    <path class="fil2 str2" d="M41.37 62.93c-0.14,-2.17 -2.72,-0.65 -5.04,-2.17 0.76,2.28 5.08,2.87 5.04,2.17z"/>
    <path id="1" class="fil1" d="M41.37 62.93c-0.14,-2.17 -2.72,-0.65 -5.04,-2.17 0.76,2.28 5.08,2.87 5.04,2.17z"/>
   </g>
  </g>
  <g>
   <path class="fil2 str2" d="M42.31 49.41c0.66,1.28 1.23,3.25 1.4,4.64 -0.93,-0.16 -1.95,0.05 -2.87,0.19 0.14,-1.49 0.74,-3.43 1.47,-4.83z"/>
   <path id="1" class="fil1" d="M42.31 49.41c0.66,1.28 1.23,3.25 1.4,4.64 -0.93,-0.16 -1.95,0.05 -2.87,0.19 0.14,-1.49 0.74,-3.43 1.47,-4.83z"/>
  </g>
 </g>
</svg>
