<?xml version="1.0" encoding="UTF-8"?>
<!DOCTYPE svg PUBLIC "-//W3C//DTD SVG 1.0//EN" "http://www.w3.org/TR/2001/REC-SVG-20010904/DTD/svg10.dtd">
<!-- Creator: CorelDRAW 2019 -->
<svg xmlns="http://www.w3.org/2000/svg" xml:space="preserve" width="1000px" height="1000px" version="1.0" style="shape-rendering:geometricPrecision; text-rendering:geometricPrecision; image-rendering:optimizeQuality; fill-rule:evenodd; clip-rule:evenodd"
viewBox="0 0 86.7 86.7"
 xmlns:xlink="http://www.w3.org/1999/xlink"
 xmlns:xodm="http://www.corel.com/coreldraw/odm/2003">
 <defs>
  <style type="text/css">
   <![CDATA[
    .str1 {stroke:black;stroke-width:0.32;stroke-linecap:round;stroke-linejoin:round;stroke-miterlimit:2.61313}
    .str0 {stroke:black;stroke-width:0.32;stroke-linecap:round;stroke-linejoin:round;stroke-miterlimit:2.61313}
    .str2 {stroke:red;stroke-width:0.32;stroke-linecap:round;stroke-linejoin:round;stroke-miterlimit:2.61313}
    .fil2 {fill:none}
    .fil0 {fill:black}
    .fil3 {fill:#1A1A1A}
    .fil1 {fill:#B30D0D}
    .fil4 {fill:#F7B183}
    .fil5 {fill:#FCCAA9}
    .fil6 {fill:#1A1A1A;fill-rule:nonzero}
   ]]>
  </style>
    <clipPath id="id0">
     <path d="M43.35 14.19c16.1,0 29.16,13.05 29.16,29.16 0,16.1 -13.06,29.16 -29.16,29.16 -16.11,0 -29.16,-13.06 -29.16,-29.16 0,-16.11 13.05,-29.16 29.16,-29.16z"/>
    </clipPath>
   <clipPath id="id1">
    <path d="M36.29 25.24c-0.64,1.46 -2.65,6.95 0.13,5.53 0.82,-2.82 3.57,-4.19 12.2,-6.9 -5.02,3.16 -8.15,5.33 -6.46,6.22 2.87,-4.43 11.14,-3.7 13.96,-9.83 1.05,7.25 -7.91,9.48 -7.3,13.19 1.38,-2.66 5.19,-4.49 9.23,-5.23 -2.92,1.29 -5.66,4.69 -5.21,7.37 1.86,-5.56 8.07,-4.76 10.57,-10.93 0.53,6.68 -3.49,8.13 -7.46,17.22 2.52,-2.82 3.88,-7.68 9.08,-9.73 -2.62,2.08 -3.67,4.99 -5.33,8.26 -1.36,2.67 -3.67,4.61 -5,2.63 -8.08,-11.98 -15.21,-15.44 -24.36,-8.31 2.17,-2.85 -0.91,-2.21 5.95,-9.49z"/>
   </clipPath>
   <clipPath id="id2">
    <path d="M30.85 35.13c9.97,-9.58 19.02,1.82 23.74,8.38 2.3,3.2 6.06,-3.94 8.05,-7.05 -1.16,11.9 -3.18,18.63 -11.6,17.54 -1.99,2.45 -4.1,3.99 -7.02,5.26 -0.91,1.74 -2.62,3.83 -4.65,4.95 1.73,-2.07 1.14,-2.81 1.14,-2.81 -1.62,3.67 -8.52,4.99 -9.18,6 2.09,-3.26 0.45,-7.26 -1.54,-10.2 -0.48,-0.71 -0.91,-1.48 -1.28,-2.29 -0.76,-1.69 -1.24,-3.53 -1.33,-5.15 -4.57,-6.67 -0.3,-13.26 3.67,-14.63z"/>
   </clipPath>
 </defs>
 <g id="Layer_x0020_1">
  <metadata id="CorelCorpID_0Corel-Layer"/>
  <rect class="fil0" width="86.7" height="86.7"/>
  <circle class="fil0" cx="43.35" cy="43.35" r="31.08"/>
  <g id="_1328871344">
   <path class="fil1" d="M43.35 14.19c16.1,0 29.16,13.05 29.16,29.16 0,16.1 -13.06,29.16 -29.16,29.16 -16.11,0 -29.16,-13.06 -29.16,-29.16 0,-16.11 13.05,-29.16 29.16,-29.16z"/>
   <g style="clip-path:url(#id0)">
    <g>
     <g>
      <rect class="fil0" x="37.84" y="-6.59" width="0.46" height="50.89"/>
      <rect class="fil0" transform="matrix(0.965926 0.258819 -0.258819 0.965926 51.0131 -4.85951)" width="0.46" height="50.89"/>
      <rect class="fil0" transform="matrix(0.866025 0.5 -0.5 0.866025 63.2865 0.224292)" width="0.46" height="50.89"/>
      <rect class="fil0" transform="matrix(0.707107 0.707107 -0.707107 0.707107 73.8259 8.31146)" width="0.46" height="50.89"/>
      <rect class="fil0" transform="matrix(0.5 0.866025 -0.866025 0.5 81.9131 18.8509)" width="0.46" height="50.89"/>
      <rect class="fil0" transform="matrix(0.258819 0.965926 -0.965926 0.258819 86.9969 31.1242)" width="0.46" height="50.89"/>
      <rect class="fil0" transform="matrix(2.63956E-14 1 -1 2.63956E-14 88.7309 44.2952)" width="0.46" height="50.89"/>
      <rect class="fil0" transform="matrix(-0.258819 0.965926 -0.965926 -0.258819 86.9969 57.4662)" width="0.46" height="50.89"/>
      <rect class="fil0" transform="matrix(-0.5 0.866025 -0.866025 -0.5 81.9131 69.7396)" width="0.46" height="50.89"/>
      <rect class="fil0" transform="matrix(-0.707107 0.707107 -0.707107 -0.707107 73.8259 80.279)" width="0.46" height="50.89"/>
      <rect class="fil0" transform="matrix(-0.866025 0.5 -0.5 -0.866025 63.2865 88.3661)" width="0.46" height="50.89"/>
      <rect class="fil0" transform="matrix(-0.965926 0.258819 -0.258819 -0.965926 51.0131 93.4499)" width="0.46" height="50.89"/>
      <rect class="fil0" x="37.38" y="44.3" width="0.46" height="50.89"/>
      <rect class="fil0" transform="matrix(-0.965926 -0.258819 0.258819 -0.965926 24.6712 93.4499)" width="0.46" height="50.89"/>
      <rect class="fil0" transform="matrix(-0.866025 -0.5 0.5 -0.866025 12.3978 88.3661)" width="0.46" height="50.89"/>
      <rect class="fil0" transform="matrix(-0.707107 -0.707107 0.707107 -0.707107 1.85842 80.279)" width="0.46" height="50.89"/>
      <rect class="fil0" transform="matrix(-0.5 -0.866025 0.866025 -0.5 -6.22874 69.7396)" width="0.46" height="50.89"/>
      <rect class="fil0" transform="matrix(-0.258819 -0.965926 0.965926 -0.258819 -11.3125 57.4662)" width="0.46" height="50.89"/>
      <rect class="fil0" transform="matrix(-7.91589E-14 -1 1 -7.91589E-14 -13.0465 44.2952)" width="0.46" height="50.89"/>
      <rect class="fil0" transform="matrix(0.258819 -0.965926 0.965926 0.258819 -11.3125 31.1242)" width="0.46" height="50.89"/>
      <rect class="fil0" transform="matrix(0.5 -0.866025 0.866025 0.5 -6.22874 18.8509)" width="0.46" height="50.89"/>
      <rect class="fil0" transform="matrix(0.707107 -0.707107 0.707107 0.707107 1.85842 8.31146)" width="0.46" height="50.89"/>
      <rect class="fil0" transform="matrix(0.866025 -0.5 0.5 0.866025 12.3978 0.224292)" width="0.46" height="50.89"/>
      <rect class="fil0" transform="matrix(0.965926 -0.258819 0.258819 0.965926 24.6712 -4.85951)" width="0.46" height="50.89"/>
     </g>
    </g>
   </g>
   <path class="fil2" d="M43.35 14.19c16.1,0 29.16,13.05 29.16,29.16 0,16.1 -13.06,29.16 -29.16,29.16 -16.11,0 -29.16,-13.06 -29.16,-29.16 0,-16.11 13.05,-29.16 29.16,-29.16z"/>
  </g>
  <path class="fil0" d="M42.22 29.44c0.13,-0.16 0.26,-0.32 0.39,-0.46 1.86,-2 5.07,-2.92 7.52,-4 2.44,-1.07 4.57,-2.39 5.73,-4.91l0.58 -1.27 0.2 1.38c0.48,3.31 -0.97,5.7 -3.24,7.93 -1.06,1.05 -2.35,2.03 -3.29,3.18 1.39,-1.26 7.03,-4.54 8.56,-2.86 -2.12,0.93 -4.19,2.72 -5.03,4.91 1.53,-2.12 3.89,-3.05 5.95,-4.51 1.64,-1.16 2.79,-2.46 3.55,-4.34l0.65 -1.61 0.14 1.73c0.15,1.85 -0.02,3.54 -0.7,5.27 -0.84,2.1 -2.29,4.02 -3.49,5.95 2.44,-3.13 4.4,-3.75 7.83,-5.1 -2.58,2.05 -3.95,3.01 -5.56,6.12 2.47,-3.96 -0.53,9.84 -0.62,10.16 -0.72,2.35 -1.86,4.8 -3.96,6.22 -1.16,0.78 -2.47,1.15 -3.83,1.25 0.32,0.31 0.67,0.59 1.06,0.82l1.24 0.75 -1.45 0.02c-1.27,0.01 -2.39,-0.61 -3.22,-1.53 -0.08,0.09 -0.16,0.18 -0.23,0.27 0.74,1.79 2.04,3.22 3.8,4.06l0.33 0.16 -0.23 0.68 -0.35 -0.06c-2.12,-0.41 -3.88,-1.53 -5.09,-3.27 -1.01,0.91 -2.1,1.67 -3.28,2.32 0.05,-0.01 0.09,-0.02 0.13,-0.04l1.17 -0.48 -0.67 1.08c-0.78,1.26 -1.83,2.14 -3.29,1.75 -1,1.39 -2.34,2.72 -3.84,3.54l-1.91 1.06c0.55,-0.67 1.17,-1.35 1.68,-2.05 -1.54,1.36 -6.95,4.12 -8.57,3.94l0.22 -0.35c1.38,-2.15 1,-4.68 0.04,-6.91 -1.44,0.91 -2.43,-1 -3.08,-2.01l0.89 0.32 -0.02 -0.03c-1.54,-2.66 -2.49,-6.67 -2.71,-9.77 -1.37,-2.55 -1.71,-5.39 -0.78,-8.15 0.72,-2.12 2.21,-4.15 4.15,-5.3 0.45,-0.6 0.72,-1.13 0.94,-1.86 1.32,-4.43 4.15,-6.99 7.19,-10.22 -0.38,0.86 -2.95,6.65 -2.06,7.32 0.25,0.18 1.19,-4.76 13.62,-6.8 -1.21,0.76 -7.11,4.62 -7.06,5.7zm-12.48 29.01c0.11,-0.08 0.23,-0.17 0.33,-0.26 -0.16,-0.26 -0.33,-0.52 -0.51,-0.78 -0.02,-0.03 -0.04,-0.07 -0.06,-0.1 0.05,0.3 0.12,0.61 0.19,0.92l0.05 0.22z"/>
  <path class="fil3" d="M36.29 25.24c-0.64,1.46 -2.65,6.95 0.13,5.53 0.82,-2.82 3.57,-4.19 12.2,-6.9 -5.02,3.16 -8.15,5.33 -6.46,6.22 2.87,-4.43 11.14,-3.7 13.96,-9.83 1.05,7.25 -7.91,9.48 -7.3,13.19 1.38,-2.66 5.19,-4.49 9.23,-5.23 -2.92,1.29 -5.66,4.69 -5.21,7.37 1.86,-5.56 8.07,-4.76 10.57,-10.93 0.53,6.68 -3.49,8.13 -7.46,17.22 2.52,-2.82 3.88,-7.68 9.08,-9.73 -2.62,2.08 -3.67,4.99 -5.33,8.26 -1.36,2.67 -3.67,4.61 -5,2.63 -8.08,-11.98 -15.21,-15.44 -24.36,-8.31 2.17,-2.85 -0.91,-2.21 5.95,-9.49z"/>
  <g style="clip-path:url(#id1)">
   <g id="_1052704096">
    <path id="1" class="fil2 str0" d="M-0.29 34.09c3.39,2.07 6.33,2.81 9.13,2.66 8.9,-0.46 8.77,16.81 5.93,24.15"/>
    <path class="fil2 str0" d="M-0.27 31.17c3.79,-4.28 13.77,-0.99 20.75,-9.56"/>
    <path class="fil2 str0" d="M-8.35 49.14c-1.39,-6.17 -0.6,-9.83 1.81,-10.79 2.88,-1.13 5.75,-4.13 6.35,-5.24 4.03,1.98 7.37,2.73 10.34,3.7 7.84,0.72 8.09,16.04 5.63,23.23"/>
    <path class="fil2 str0" d="M-8.36 52.04c-3.53,-8.24 -1.12,-13.65 1.6,-14.96 2.79,-1.34 5.97,-2.86 6.57,-3.97 4.22,0.69 9.27,0.62 11.65,3.76 6.78,1.91 7.4,15.27 5.33,22.32"/>
    <path class="fil2 str0" d="M-9.67 51.62c-3.08,-6.16 -1.04,-14.72 4.43,-17.29 1.8,-0.85 2.72,-0.66 4.98,-1.51 12.31,-3.85 21.34,12.09 18.07,25.51"/>
    <path class="fil2 str0" d="M-11.44 37.01c2.45,-3.52 8.94,-5.28 11.22,-4.45 11.93,-5.73 21.38,12.7 19.04,24.91"/>
    <path class="fil2 str0" d="M-10.81 35.5c4.66,-4.35 8.77,-3.95 10.58,-3.32 13.32,-5.4 21.87,11.25 20.07,24.44"/>
    <path class="fil2 str0" d="M-9.39 31.56c3.69,-2.21 8.44,-2.34 9.21,0.28 7.89,-4.85 14.84,1.08 18.45,5.33"/>
    <path class="fil2 str1" d="M30.52 36.27c2.26,-2.75 0.71,-4.75 4.3,-8.49 -1.45,2.72 -0.55,4.83 0.25,6.99"/>
    <path class="fil2 str1" d="M36.03 34.03c1.41,-3.76 1.3,-6.19 9.46,-8.62 -5.01,2.99 -6.88,4.62 -7.71,9.33"/>
    <path class="fil2 str1" d="M39.77 35.09c4.25,-8.66 9.97,-6.06 15.7,-12.63 -2.07,5.65 -9.94,8.34 -11.49,15.34"/>
    <path class="fil2 str1" d="M46.27 38.45c2.32,-3.25 4.78,-7.46 8.47,-8.78 -2.64,2.13 -5.52,4.63 -6.1,10.91"/>
    <path class="fil2 str1" d="M50.27 42.58c5.96,-13.27 7.17,-8.88 12.42,-15.25 -3.33,8.17 -8.92,9.38 -11.24,18.62"/>
    <path class="fil2 str1" d="M52.55 48.58c3.18,-2.18 6.83,-11.1 9.09,-13.35 -2.83,5.17 -5.27,14.46 -9.09,15.99"/>
    <path class="fil2 str1" d="M42 36.59c1.27,-6.25 8.53,-8.38 13.47,-14.13"/>
    <path class="fil2 str1" d="M50.94 44.35c1.26,-6.25 6.74,-10.78 11.75,-17.02"/>
    <path class="fil2 str1" d="M49.26 42.79c2.12,-6 0.47,-6.88 5.48,-13.12"/>
   </g>
  </g>
  <path class="fil2" d="M36.29 25.24c-0.64,1.46 -2.65,6.95 0.13,5.53 0.82,-2.82 3.57,-4.19 12.2,-6.9 -5.02,3.16 -8.15,5.33 -6.46,6.22 2.87,-4.43 11.14,-3.7 13.96,-9.83 1.05,7.25 -7.91,9.48 -7.3,13.19 1.38,-2.66 5.19,-4.49 9.23,-5.23 -2.92,1.29 -5.66,4.69 -5.21,7.37 1.86,-5.56 8.07,-4.76 10.57,-10.93 0.53,6.68 -3.49,8.13 -7.46,17.22 2.52,-2.82 3.88,-7.68 9.08,-9.73 -2.62,2.08 -3.67,4.99 -5.33,8.26 -1.36,2.67 -3.67,4.61 -5,2.63 -8.08,-11.98 -15.21,-15.44 -24.36,-8.31 2.17,-2.85 -0.91,-2.21 5.95,-9.49z"/>
  <path class="fil3" d="M30.85 35.13c9.97,-9.58 19.02,1.82 23.74,8.38 2.3,3.2 6.06,-3.94 8.05,-7.05 -1.16,11.9 -3.18,18.63 -11.6,17.54 -1.99,2.45 -4.1,3.99 -7.02,5.26 -0.91,1.74 -2.62,3.83 -4.65,4.95 1.73,-2.07 1.14,-2.81 1.14,-2.81 -1.62,3.67 -8.52,4.99 -9.18,6 2.09,-3.26 0.45,-7.26 -1.54,-10.2 -0.48,-0.71 -0.91,-1.48 -1.28,-2.29 -0.76,-1.69 -1.24,-3.53 -1.33,-5.15 -4.57,-6.67 -0.3,-13.26 3.67,-14.63z"/>
  <g style="clip-path:url(#id2)">
   <g id="_1331052456">
    <path id="1" class="fil2 str0" d="M35.28 35.57c3.63,2.2 6.77,3 9.77,2.84 9.5,-0.49 9.37,17.97 6.32,25.81"/>
    <path class="fil2 str0" d="M35.3 32.45c4.05,-4.58 14.36,-1.98 16.79,0.07"/>
    <path class="fil2 str0" d="M26.67 51.65c-1.48,-6.59 -0.65,-10.51 1.93,-11.53 3.08,-1.21 6.15,-4.42 6.79,-5.6 4.3,2.11 7.88,2.92 11.05,3.96 8.38,0.77 8.8,13.64 8.8,19.97"/>
    <path class="fil2 str0" d="M26.66 54.75c-3.78,-8.8 -1.2,-14.59 1.71,-15.99 2.98,-1.43 6.38,-3.06 7.02,-4.24 4.52,0.74 9.91,0.66 12.45,4.02 8.11,3.34 6.65,14.25 11.77,15.93"/>
    <path class="fil2 str0" d="M25.25 54.31c-3.29,-6.59 -1.1,-15.74 4.74,-18.49 1.92,-0.91 2.91,-0.7 5.33,-1.61 19.64,0.81 17.59,17.97 26.55,15.28"/>
    <path class="fil2 str0" d="M23.36 38.69c2.62,-3.77 9.56,-5.65 12,-4.76 13.34,-5.8 20.88,22.49 26.97,9.58"/>
    <path class="fil2 str0" d="M24.04 37.07c4.98,-4.65 9.37,-4.22 11.31,-3.55 15.97,-6.62 18.13,25.48 28.35,4.15"/>
    <path class="fil2 str0" d="M25.56 32.86c3.94,-2.36 9.02,-2.5 9.84,0.3 8.44,-5.19 15.87,1.16 19.72,5.69"/>
   </g>
  </g>
  <path class="fil2" d="M30.85 35.13c9.97,-9.58 19.02,1.82 23.74,8.38 2.3,3.2 6.06,-3.94 8.05,-7.05 -1.16,11.9 -3.18,18.63 -11.6,17.54 -1.99,2.45 -4.1,3.99 -7.02,5.26 -0.91,1.74 -2.62,3.83 -4.65,4.95 1.73,-2.07 1.14,-2.81 1.14,-2.81 -1.62,3.67 -8.52,4.99 -9.18,6 2.09,-3.26 0.45,-7.26 -1.54,-10.2 -0.48,-0.71 -0.91,-1.48 -1.28,-2.29 -0.76,-1.69 -1.24,-3.53 -1.33,-5.15 -4.57,-6.67 -0.3,-13.26 3.67,-14.63z"/>
  <path class="fil4" d="M49 51.8c-0.01,-0.08 2.39,-1.98 2.53,-2.79 0.14,-0.74 0.09,-1.39 0.07,-2.13 -0.03,-0.97 -0.49,-2.36 -1.65,-2.49 -0.49,-0.05 -0.94,0.18 -1.27,0.53 -0.56,0.57 -0.85,1.44 -1,2.2l-0.39 2.03 -0.2 -2.06c-0.4,-4.26 -0.56,-6.59 -4.77,-7.39 -2.93,0.86 -6.63,-2.99 -7.14,-4.26 -0.92,3.22 -2.2,3.52 -4.74,5.05 -0.81,0.49 -2.18,1.41 -2.56,3.38 -0.35,0.72 0.1,5.83 0.53,9.26 0.89,2.71 2.49,5.08 4.8,6.54 0.97,0.61 1.96,-0.73 1.96,-1.43 0.3,0.01 0.68,-0.06 1.05,-0.05 0.93,3.21 5.37,1.14 6.76,0.53 2.19,-0.95 4.01,-3.9 5.4,-5.59 0.5,-0.61 0.14,-0.69 0.62,-1.33z"/>
  <path class="fil5" d="M50.18 51.26c0.78,-0.55 1.19,-1.34 1.35,-2.25 0.14,-0.74 0.09,-1.39 0.07,-2.13 -0.03,-0.97 -0.49,-2.36 -1.65,-2.49 -0.49,-0.05 -0.94,0.18 -1.27,0.53 -0.94,0.96 -0.43,1.31 -0.68,2.61 -0.36,-3.82 -0.18,-8.23 -5.68,-7.83 -2.42,0.18 -5.75,-1.97 -7.14,-4.26 -0.73,4.63 -0.89,8.32 -0.23,13.63 -0.2,2.49 -1.27,4.68 -1.46,5.41 0.53,0.18 1.25,0.2 1.65,0.12 0.14,1.88 0.07,1.86 0.39,3.63 0.05,0 0.47,-0.05 0.69,-0.04 0.88,3.1 4.91,1.34 6.76,0.53 1.97,-0.86 4.98,-4.72 5.84,-6.34 0.85,-0.86 0.18,-0.45 0.46,-1.18 0.31,-0.78 0.86,0.09 0.9,0.06z"/>
  <path class="fil6" d="M35.26 56.42c0.58,-0.3 2.43,1.46 2.65,1.53 -0.14,0.01 -2.74,-1.05 -4.34,0.21 0.18,-0.11 1.04,-1.93 1.69,-1.74z"/>
  <path class="fil0" d="M50.05 44.91c0.61,-0.06 1.17,0.79 1.25,1.9 0.06,0.85 -0.18,1.6 -0.56,1.93 0.2,-0.39 0.3,-0.93 0.26,-1.53 -0.08,-1.11 -0.64,-1.96 -1.25,-1.9 -0.14,0.02 -0.27,0.08 -0.39,0.19 0.17,-0.34 0.41,-0.56 0.69,-0.59z"/>
  <path class="fil0" d="M49.4 47.83c0.33,0 0.79,0.32 0.76,0.71 -0.01,0.3 -0.23,0.56 -0.53,0.67 0.17,-0.13 0.28,-0.32 0.29,-0.54 0.02,-0.39 -0.49,-0.71 -0.76,-0.71 -0.27,0 -0.48,-0.5 -0.23,-0.88 -0.07,0.33 0.15,0.75 0.47,0.75z"/>
  <path class="fil0" d="M44.08 40.01c-0.26,-0.03 -6.33,0.14 -8.9,-4.57 1.32,1.27 4.55,3.57 8.98,3.7 3.83,0.1 6.13,2.44 6.24,4.02 0.11,1.47 0.44,3.4 0.55,5.87 0.09,1.94 0.73,5.04 3.38,6.65 -0.84,0 -3.32,-0.31 -4.55,-4.58 -0.08,3.06 1.33,6.54 4.72,8.16 -4.03,-0.76 -6.15,-4.15 -6.43,-7.82 -0.22,-3.02 -0.53,-5.98 -0.69,-8.32 -0.18,-2.38 -2.5,-3.02 -3.3,-3.11z"/>
  <path class="fil0" d="M35.69 55.42c2.03,-2.26 8.32,4.61 10.66,3.64 -3.17,5.14 -6.64,-3.33 -10.66,-3.64z"/>
  <path class="fil0" d="M34.69 55.44c-1.37,-1.5 -4.31,4.12 -5.74,3.61 2.3,3.53 3.48,-3.03 5.74,-3.61z"/>
  <path class="fil0" d="M30.21 41.05c0.17,-0.06 4.12,-1.61 4.97,-5.61 -0.75,1.18 -2.88,3.52 -5.66,4.8 -5.04,2.33 -2.91,13.69 -0.35,18.1 -0.95,-4.16 -1.33,-8.93 -1.3,-13.11 -0.15,-1.97 1.04,-3.74 2.34,-4.18z"/>
  <path class="fil0" d="M44.15 46.73c-0.19,-0.38 -0.18,-0.61 -0.42,-0.72 0.16,-0.13 0.33,-0.6 0.33,-1.09 -0.18,0.31 -1,0.94 -1.14,0.92 0.5,-0.41 0.39,-0.87 0.44,-1.26 -0.21,0.63 -1.02,1.18 -1.07,1.18 0.23,-0.22 0.03,-0.73 -0.04,-0.73 -0.13,0.51 -1.06,0.99 -1.13,0.99 -0.81,0.05 -4.75,1.08 -5.51,4.18 1.59,-3.03 6.81,-4.08 8.54,-3.47z"/>
  <path class="fil0" d="M29.21 47.63c0.14,-0.42 0.16,-0.66 0.31,-0.8 -0.09,-0.11 -0.16,-0.57 -0.12,-1.08 0.08,0.3 0.53,0.84 0.62,0.8 -0.27,-0.36 -0.17,-0.84 -0.17,-1.24 0.08,0.63 0.53,1.09 0.56,1.08 -0.12,-0.2 0.04,-0.75 0.08,-0.76 0.04,0.51 0.57,0.88 0.61,0.88 0.49,-0.06 2.81,0.49 3.05,3.6 -0.74,-2.93 -3.84,-3.33 -4.94,-2.48z"/>
  <g id="_1331050152">
   <g>
    <g>
     <path class="fil2 str2" d="M36.62 50.65c-0.02,-0.03 1.56,-0.92 0.84,-1.84"/>
    </g>
    <g>
     <path class="fil2 str2" d="M38 50.5c0.5,-1.92 1.86,-0.81 2.28,-2.14"/>
    </g>
    <g>
     <path class="fil2 str2" d="M39.49 49.08c0.23,-0.07 0.47,0.08 0.6,0.34"/>
    </g>
    <g>
     <path class="fil2 str2" d="M36.54 51.86c0.25,0.49 -0.08,0.46 -0.25,0.82"/>
    </g>
    <g>
     <path class="fil2 str2" d="M38.11 51.62c0.49,0.19 -0.12,1 0.81,1.19"/>
    </g>
    <g>
     <path class="fil2 str2" d="M39.73 51.1c0.85,0.97 1.26,-0.24 1.86,0.7"/>
    </g>
    <g>
     <path class="fil2 str2" d="M40.99 49.79c0.9,-0.6 1.38,-0.06 2.37,-0.38 0.69,-0.22 1.42,-0.62 1.69,-1.34 0.02,-0.04 0.02,-0.04 0.02,-0.08"/>
    </g>
    <g>
     <path class="fil2 str2" d="M42.2 50.36c0.51,-0.29 -0.49,-0.79 0.09,-0.88 0.31,-0.05 0.41,-0.4 0.5,-0.67"/>
    </g>
    <g>
     <path class="fil2 str2" d="M43.65 49.31c0.31,0.15 -0.02,0.39 0.47,0.56"/>
    </g>
    <g>
     <path class="fil2 str2" d="M38.26 52.46c-0.23,0.03 -0.49,0.04 -0.54,0.32"/>
    </g>
   </g>
   <g>
    <path class="fil2 str2" d="M35.7 51.65c0.14,-1.79 2.84,-0.57 5.29,-1.86 -0.8,1.89 -5.34,2.43 -5.29,1.86z"/>
    <path id="1" class="fil1" d="M35.7 51.65c0.14,-1.79 2.84,-0.57 5.29,-1.86 -0.8,1.89 -5.34,2.43 -5.29,1.86z"/>
   </g>
  </g>
  <g>
   <g>
    <g>
     <path class="fil2 str2" d="M33.15 50.55c0.02,-0.03 -1.21,-0.9 -0.65,-1.83"/>
    </g>
    <g>
     <path class="fil2 str2" d="M32.08 50.41c-0.39,-1.91 -1.46,-0.78 -1.78,-2.11"/>
    </g>
    <g>
     <path class="fil2 str2" d="M30.91 49.02c-0.18,-0.07 -0.36,0.08 -0.46,0.35"/>
    </g>
    <g>
     <path class="fil2 str2" d="M33.22 51.76c-0.2,0.49 0.06,0.46 0.19,0.82"/>
    </g>
    <g>
     <path class="fil2 str2" d="M31.99 51.54c-0.38,0.2 0.1,1 -0.63,1.2"/>
    </g>
    <g>
     <path class="fil2 str2" d="M30.73 51.04c-0.67,0.98 -0.98,-0.22 -1.45,0.73"/>
    </g>
    <g>
     <path class="fil2 str2" d="M29.75 49.75c-0.42,-0.41 -0.67,-0.15 -0.97,-0.3"/>
    </g>
    <g>
     <path class="fil2 str2" d="M28.65 49.93c0.2,-0.05 0.4,-0.12 0.3,-0.43 -0.27,-0.01 -0.47,-0.28 -0.52,-0.59"/>
    </g>
    <g>
     <path class="fil2 str2" d="M31.87 52.38c0.18,0.02 0.39,0.04 0.43,0.31"/>
    </g>
   </g>
   <g>
    <path class="fil2 str2" d="M33.87 51.53c-0.11,-1.78 -2.22,-0.53 -4.12,-1.78 0.62,1.87 4.16,2.35 4.12,1.78z"/>
    <path id="1" class="fil1" d="M33.87 51.53c-0.11,-1.78 -2.22,-0.53 -4.12,-1.78 0.62,1.87 4.16,2.35 4.12,1.78z"/>
   </g>
  </g>
  <g>
   <path class="fil2 str2" d="M34.64 40.46c0.55,1.05 1.02,2.66 1.15,3.8 -0.76,-0.13 -1.59,0.04 -2.34,0.15 0.11,-1.21 0.6,-2.81 1.19,-3.95z"/>
   <path id="1" class="fil1" d="M34.64 40.46c0.55,1.05 1.02,2.66 1.15,3.8 -0.76,-0.13 -1.59,0.04 -2.34,0.15 0.11,-1.21 0.6,-2.81 1.19,-3.95z"/>
  </g>
 </g>
</svg>
