<?xml version="1.0" encoding="UTF-8"?>
<!DOCTYPE svg PUBLIC "-//W3C//DTD SVG 1.0//EN" "http://www.w3.org/TR/2001/REC-SVG-20010904/DTD/svg10.dtd">
<!-- Creator: CorelDRAW 2019 -->
<svg xmlns="http://www.w3.org/2000/svg" xml:space="preserve" width="1000px" height="1000px" version="1.0" style="shape-rendering:geometricPrecision; text-rendering:geometricPrecision; image-rendering:optimizeQuality; fill-rule:evenodd; clip-rule:evenodd"
viewBox="0 0 64.06 64.06"
 xmlns:xlink="http://www.w3.org/1999/xlink"
 xmlns:xodm="http://www.corel.com/coreldraw/odm/2003">
 <defs>
  <style type="text/css">
   <![CDATA[
    .str2 {stroke:#99FFFF;stroke-width:0.17;stroke-linecap:round;stroke-miterlimit:2.61313}
    .str1 {stroke:black;stroke-width:0.23;stroke-linecap:round;stroke-linejoin:round;stroke-miterlimit:2.61313}
    .str0 {stroke:black;stroke-width:0.23;stroke-linecap:round;stroke-linejoin:round;stroke-miterlimit:2.61313}
    .str4 {stroke:#99FFFF;stroke-width:0.23;stroke-linecap:round;stroke-linejoin:round;stroke-miterlimit:2.61313}
    .str3 {stroke:#99FFFF;stroke-width:0.17;stroke-linecap:round;stroke-linejoin:round;stroke-miterlimit:2.61313}
    .fil2 {fill:none}
    .fil0 {fill:black}
    .fil1 {fill:#00CCFF}
    .fil8 {fill:aqua}
    .fil3 {fill:#1A1A1A}
    .fil4 {fill:#F7B183}
    .fil5 {fill:#FCCAA9}
    .fil6 {fill:#1A1A1A;fill-rule:nonzero}
    .fil7 {fill:#99FFFF;fill-rule:nonzero}
   ]]>
  </style>
    <clipPath id="id0">
     <path d="M32.03 10.48c11.9,0 21.55,9.65 21.55,21.55 0,11.9 -9.65,21.55 -21.55,21.55 -11.9,0 -21.55,-9.65 -21.55,-21.55 0,-11.9 9.65,-21.55 21.55,-21.55z"/>
    </clipPath>
   <clipPath id="id1">
    <path d="M26.81 18.65c-0.47,1.08 -1.95,5.14 0.11,4.08 0.6,-2.07 2.63,-3.09 9,-5.09 -3.7,2.34 -6.02,3.93 -4.77,4.6 2.12,-3.28 8.24,-2.74 10.32,-7.27 0.77,5.36 -5.84,7.01 -5.4,9.75 1.02,-1.97 3.84,-3.32 6.82,-3.86 -2.15,0.94 -4.18,3.46 -3.84,5.44 1.37,-4.11 5.96,-3.52 7.8,-8.07 0.4,4.93 -2.57,6 -5.51,12.71 1.86,-2.08 2.87,-5.67 6.71,-7.18 -1.94,1.53 -2.71,3.68 -3.94,6.1 -1,1.97 -2.71,3.4 -3.69,1.95 -5.97,-8.86 -11.24,-11.42 -18,-6.15 1.6,-2.1 -0.67,-1.63 4.39,-7.01z"/>
   </clipPath>
   <clipPath id="id2">
    <path d="M22.79 25.96c7.37,-7.08 14.06,1.35 17.55,6.19 1.7,2.36 4.48,-2.91 5.94,-5.21 -0.85,8.79 -2.35,13.77 -8.57,12.96 -1.46,1.81 -3.02,2.95 -5.18,3.89 -0.67,1.29 -1.94,2.83 -3.44,3.66 1.28,-1.54 0.84,-2.08 0.84,-2.08 -1.2,2.71 -6.29,3.69 -6.78,4.43 1.54,-2.41 0.33,-5.36 -1.14,-7.53 -0.36,-0.52 -0.67,-1.1 -0.94,-1.69 -0.57,-1.26 -0.92,-2.61 -0.98,-3.81 -3.38,-4.93 -0.23,-9.8 2.7,-10.81z"/>
   </clipPath>
 </defs>
 <g id="Layer_x0020_1">
  <metadata id="CorelCorpID_0Corel-Layer"/>
  <rect class="fil0" width="64.06" height="64.06"/>
  <circle class="fil0" cx="32.03" cy="32.03" r="22.97"/>
  <g id="_1331590944">
   <path class="fil1" d="M32.03 10.48c11.9,0 21.55,9.65 21.55,21.55 0,11.9 -9.65,21.55 -21.55,21.55 -11.9,0 -21.55,-9.65 -21.55,-21.55 0,-11.9 9.65,-21.55 21.55,-21.55z"/>
   <g style="clip-path:url(#id0)">
    <g>
     <g>
      <rect class="fil0" x="27.96" y="-4.87" width="0.34" height="37.6"/>
      <rect class="fil0" transform="matrix(0.965926 0.258819 -0.258819 0.965926 37.6946 -3.59079)" width="0.34" height="37.6"/>
      <rect class="fil0" transform="matrix(0.866025 0.5 -0.5 0.866025 46.7637 0.165734)" width="0.34" height="37.6"/>
      <rect class="fil0" transform="matrix(0.707107 0.707107 -0.707107 0.707107 54.5514 6.1415)" width="0.34" height="37.6"/>
      <rect class="fil0" transform="matrix(0.5 0.866025 -0.866025 0.5 60.5272 13.9293)" width="0.34" height="37.6"/>
      <rect class="fil0" transform="matrix(0.258819 0.965926 -0.965926 0.258819 64.2837 22.9983)" width="0.34" height="37.6"/>
      <rect class="fil0" transform="matrix(2.63956E-14 1 -1 2.63956E-14 65.565 32.7306)" width="0.34" height="37.6"/>
      <rect class="fil0" transform="matrix(-0.258819 0.965926 -0.965926 -0.258819 64.2837 42.4629)" width="0.34" height="37.6"/>
      <rect class="fil0" transform="matrix(-0.5 0.866025 -0.866025 -0.5 60.5272 51.5319)" width="0.34" height="37.6"/>
      <rect class="fil0" transform="matrix(-0.707107 0.707107 -0.707107 -0.707107 54.5514 59.3197)" width="0.34" height="37.6"/>
      <rect class="fil0" transform="matrix(-0.866025 0.5 -0.5 -0.866025 46.7637 65.2955)" width="0.34" height="37.6"/>
      <rect class="fil0" transform="matrix(-0.965926 0.258819 -0.258819 -0.965926 37.6946 69.052)" width="0.34" height="37.6"/>
      <rect class="fil0" x="27.62" y="32.73" width="0.34" height="37.6"/>
      <rect class="fil0" transform="matrix(-0.965926 -0.258819 0.258819 -0.965926 18.23 69.052)" width="0.34" height="37.6"/>
      <rect class="fil0" transform="matrix(-0.866025 -0.5 0.5 -0.866025 9.161 65.2955)" width="0.34" height="37.6"/>
      <rect class="fil0" transform="matrix(-0.707107 -0.707107 0.707107 -0.707107 1.37323 59.3197)" width="0.34" height="37.6"/>
      <rect class="fil0" transform="matrix(-0.5 -0.866025 0.866025 -0.5 -4.60254 51.5319)" width="0.34" height="37.6"/>
      <rect class="fil0" transform="matrix(-0.258819 -0.965926 0.965926 -0.258819 -8.35906 42.4629)" width="0.34" height="37.6"/>
      <rect class="fil0" transform="matrix(-7.91589E-14 -1 1 -7.91589E-14 -9.64034 32.7306)" width="0.34" height="37.6"/>
      <rect class="fil0" transform="matrix(0.258819 -0.965926 0.965926 0.258819 -8.35906 22.9983)" width="0.34" height="37.6"/>
      <rect class="fil0" transform="matrix(0.5 -0.866025 0.866025 0.5 -4.60254 13.9293)" width="0.34" height="37.6"/>
      <rect class="fil0" transform="matrix(0.707107 -0.707107 0.707107 0.707107 1.37323 6.1415)" width="0.34" height="37.6"/>
      <rect class="fil0" transform="matrix(0.866025 -0.5 0.5 0.866025 9.161 0.165734)" width="0.34" height="37.6"/>
      <rect class="fil0" transform="matrix(0.965926 -0.258819 0.258819 0.965926 18.23 -3.59079)" width="0.34" height="37.6"/>
     </g>
    </g>
   </g>
   <path class="fil2" d="M32.03 10.48c11.9,0 21.55,9.65 21.55,21.55 0,11.9 -9.65,21.55 -21.55,21.55 -11.9,0 -21.55,-9.65 -21.55,-21.55 0,-11.9 9.65,-21.55 21.55,-21.55z"/>
  </g>
  <path class="fil0" d="M31.2 21.75c0.09,-0.12 0.19,-0.23 0.29,-0.34 1.37,-1.47 3.74,-2.15 5.56,-2.95 1.8,-0.79 3.37,-1.77 4.23,-3.63l0.43 -0.94 0.14 1.02c0.36,2.45 -0.71,4.21 -2.39,5.86 -0.79,0.77 -1.74,1.5 -2.43,2.35 1.03,-0.93 5.19,-3.36 6.32,-2.11 -1.56,0.68 -3.09,2.01 -3.72,3.63 1.13,-1.57 2.88,-2.26 4.4,-3.34 1.22,-0.85 2.07,-1.82 2.63,-3.21l0.48 -1.18 0.1 1.27c0.11,1.37 -0.01,2.62 -0.52,3.9 -0.62,1.55 -1.69,2.97 -2.57,4.39 1.79,-2.31 3.25,-2.77 5.78,-3.76 -1.91,1.51 -2.92,2.22 -4.11,4.52 1.82,-2.93 -0.39,7.27 -0.46,7.51 -0.53,1.74 -1.37,3.55 -2.93,4.59 -0.85,0.58 -1.82,0.85 -2.82,0.92 0.23,0.24 0.49,0.44 0.78,0.61l0.92 0.56 -1.07 0.01c-0.94,0.01 -1.77,-0.45 -2.39,-1.13 -0.05,0.07 -0.11,0.13 -0.17,0.2 0.55,1.32 1.51,2.38 2.81,3l0.24 0.12 -0.16 0.5 -0.27 -0.05c-1.56,-0.29 -2.86,-1.13 -3.75,-2.41 -0.75,0.68 -1.55,1.23 -2.42,1.71 0.03,0 0.06,-0.01 0.09,-0.02l0.86 -0.36 -0.49 0.8c-0.58,0.93 -1.36,1.58 -2.43,1.29 -0.74,1.03 -1.73,2.01 -2.84,2.62l-1.41 0.78c0.41,-0.49 0.87,-1 1.24,-1.51 -1.14,1 -5.13,3.04 -6.33,2.91l0.16 -0.26c1.02,-1.59 0.74,-3.46 0.03,-5.1 -1.07,0.67 -1.79,-0.75 -2.28,-1.49l0.66 0.24 -0.01 -0.03c-1.14,-1.97 -1.84,-4.92 -2.01,-7.22 -1,-1.88 -1.26,-3.98 -0.57,-6.02 0.53,-1.57 1.63,-3.06 3.07,-3.92 0.33,-0.44 0.53,-0.83 0.69,-1.37 0.98,-3.28 3.07,-5.17 5.31,-7.55 -0.28,0.63 -2.18,4.91 -1.52,5.41 0.18,0.13 0.88,-3.52 10.06,-5.03 -0.89,0.56 -5.25,3.42 -5.21,4.21zm-9.23 21.44c0.09,-0.06 0.18,-0.13 0.25,-0.19 -0.12,-0.2 -0.25,-0.39 -0.37,-0.58 -0.02,-0.02 -0.04,-0.05 -0.06,-0.07 0.05,0.22 0.1,0.45 0.15,0.67l0.03 0.17z"/>
  <path class="fil3" d="M26.81 18.65c-0.47,1.08 -1.95,5.14 0.11,4.08 0.6,-2.07 2.63,-3.09 9,-5.09 -3.7,2.34 -6.02,3.93 -4.77,4.6 2.12,-3.28 8.24,-2.74 10.32,-7.27 0.77,5.36 -5.84,7.01 -5.4,9.75 1.02,-1.97 3.84,-3.32 6.82,-3.86 -2.15,0.94 -4.18,3.46 -3.84,5.44 1.37,-4.11 5.96,-3.52 7.8,-8.07 0.4,4.93 -2.57,6 -5.51,12.71 1.86,-2.08 2.87,-5.67 6.71,-7.18 -1.94,1.53 -2.71,3.68 -3.94,6.1 -1,1.97 -2.71,3.4 -3.69,1.95 -5.97,-8.86 -11.24,-11.42 -18,-6.15 1.6,-2.1 -0.67,-1.63 4.39,-7.01z"/>
  <g style="clip-path:url(#id1)">
   <g id="_1051937888">
    <path id="1" class="fil2 str0" d="M-0.21 25.19c2.5,1.53 4.67,2.08 6.75,1.97 6.57,-0.34 6.48,12.42 4.37,17.84"/>
    <path class="fil2 str0" d="M-0.2 23.03c2.8,-3.16 10.17,-0.73 15.33,-7.06"/>
    <path class="fil2 str0" d="M-6.17 36.31c-1.02,-4.56 -0.45,-7.27 1.34,-7.97 2.13,-0.84 4.25,-3.06 4.69,-3.87 2.97,1.46 5.45,2.01 7.64,2.73 5.79,0.53 5.98,11.85 4.16,17.17"/>
    <path class="fil2 str0" d="M-6.17 38.46c-2.62,-6.09 -0.84,-10.09 1.17,-11.06 2.07,-0.99 4.42,-2.12 4.86,-2.93 3.12,0.51 6.85,0.45 8.61,2.78 5.01,1.4 5.47,11.28 3.94,16.48"/>
    <path class="fil2 str0" d="M-7.15 38.15c-2.27,-4.56 -0.76,-10.88 3.27,-12.78 1.34,-0.63 2.02,-0.49 3.69,-1.12 9.1,-2.84 15.77,8.93 13.35,18.85"/>
    <path class="fil2 str0" d="M-8.45 27.35c1.8,-2.61 6.61,-3.91 8.29,-3.29 8.81,-4.23 15.79,9.38 14.07,18.41"/>
    <path class="fil2 str0" d="M-7.99 26.23c3.45,-3.21 6.48,-2.91 7.82,-2.45 9.84,-3.99 16.16,8.31 14.83,18.06"/>
    <path class="fil2 str0" d="M-6.94 23.32c2.73,-1.63 6.24,-1.73 6.8,0.21 5.84,-3.59 10.98,0.8 13.64,3.93"/>
    <path class="fil2 str1" d="M22.55 26.8c1.68,-2.03 0.53,-3.51 3.18,-6.27 -1.08,2.01 -0.41,3.56 0.18,5.16"/>
    <path class="fil2 str1" d="M26.62 25.14c1.05,-2.77 0.96,-4.57 6.99,-6.36 -3.7,2.2 -5.08,3.41 -5.7,6.89"/>
    <path class="fil2 str1" d="M29.39 25.93c3.14,-6.4 7.36,-4.48 11.6,-9.33 -1.53,4.17 -7.35,6.16 -8.49,11.33"/>
    <path class="fil2 str1" d="M34.19 28.41c1.71,-2.4 3.53,-5.51 6.26,-6.49 -1.95,1.58 -4.08,3.42 -4.51,8.06"/>
    <path class="fil2 str1" d="M37.15 31.46c4.4,-9.8 5.3,-6.56 9.17,-11.27 -2.46,6.04 -6.59,6.93 -8.3,13.76"/>
    <path class="fil2 str1" d="M38.83 35.89c2.35,-1.6 5.05,-8.19 6.72,-9.85 -2.09,3.81 -3.89,10.68 -6.72,11.81"/>
    <path class="fil2 str1" d="M31.04 27.04c0.93,-4.62 6.3,-6.2 9.95,-10.44"/>
    <path class="fil2 str1" d="M37.64 32.77c0.93,-4.62 4.98,-7.96 8.68,-12.58"/>
    <path class="fil2 str1" d="M36.4 31.62c1.57,-4.43 0.34,-5.09 4.05,-9.7"/>
   </g>
  </g>
  <path class="fil2" d="M26.81 18.65c-0.47,1.08 -1.95,5.14 0.11,4.08 0.6,-2.07 2.63,-3.09 9,-5.09 -3.7,2.34 -6.02,3.93 -4.77,4.6 2.12,-3.28 8.24,-2.74 10.32,-7.27 0.77,5.36 -5.84,7.01 -5.4,9.75 1.02,-1.97 3.84,-3.32 6.82,-3.86 -2.15,0.94 -4.18,3.46 -3.84,5.44 1.37,-4.11 5.96,-3.52 7.8,-8.07 0.4,4.93 -2.57,6 -5.51,12.71 1.86,-2.08 2.87,-5.67 6.71,-7.18 -1.94,1.53 -2.71,3.68 -3.94,6.1 -1,1.97 -2.71,3.4 -3.69,1.95 -5.97,-8.86 -11.24,-11.42 -18,-6.15 1.6,-2.1 -0.67,-1.63 4.39,-7.01z"/>
  <path class="fil3" d="M22.79 25.96c7.37,-7.08 14.06,1.35 17.55,6.19 1.7,2.36 4.48,-2.91 5.94,-5.21 -0.85,8.79 -2.35,13.77 -8.57,12.96 -1.46,1.81 -3.02,2.95 -5.18,3.89 -0.67,1.29 -1.94,2.83 -3.44,3.66 1.28,-1.54 0.84,-2.08 0.84,-2.08 -1.2,2.71 -6.29,3.69 -6.78,4.43 1.54,-2.41 0.33,-5.36 -1.14,-7.53 -0.36,-0.52 -0.67,-1.1 -0.94,-1.69 -0.57,-1.26 -0.92,-2.61 -0.98,-3.81 -3.38,-4.93 -0.23,-9.8 2.7,-10.81z"/>
  <g style="clip-path:url(#id2)">
   <g id="_1051925048">
    <path id="1" class="fil2 str0" d="M26.07 26.28c2.68,1.63 5,2.22 7.22,2.1 7.02,-0.36 6.92,13.28 4.67,19.07"/>
    <path class="fil2 str0" d="M26.08 23.98c3,-3.39 10.61,-1.46 12.41,0.05"/>
    <path class="fil2 str0" d="M19.71 38.16c-1.1,-4.87 -0.48,-7.76 1.43,-8.51 2.27,-0.9 4.54,-3.27 5.01,-4.14 3.18,1.56 5.82,2.15 8.17,2.92 6.19,0.57 6.5,10.08 6.5,14.76"/>
    <path class="fil2 str0" d="M19.7 40.46c-2.79,-6.51 -0.89,-10.79 1.26,-11.82 2.2,-1.05 4.72,-2.26 5.19,-3.13 3.34,0.54 7.32,0.48 9.2,2.97 5.99,2.46 4.92,10.53 8.69,11.77"/>
    <path class="fil2 str0" d="M18.66 40.13c-2.43,-4.87 -0.82,-11.63 3.5,-13.66 1.42,-0.67 2.15,-0.52 3.94,-1.19 14.51,0.6 12.99,13.28 19.62,11.29"/>
    <path class="fil2 str0" d="M17.26 28.59c1.94,-2.79 7.07,-4.18 8.87,-3.52 9.86,-4.29 15.43,16.62 19.92,7.08"/>
    <path class="fil2 str0" d="M17.76 27.39c3.68,-3.43 6.93,-3.11 8.36,-2.62 11.8,-4.9 13.4,18.83 20.95,3.06"/>
    <path class="fil2 str0" d="M18.88 24.28c2.92,-1.74 6.67,-1.85 7.27,0.22 6.24,-3.83 11.73,0.86 14.58,4.21"/>
   </g>
  </g>
  <path class="fil2" d="M22.79 25.96c7.37,-7.08 14.06,1.35 17.55,6.19 1.7,2.36 4.48,-2.91 5.94,-5.21 -0.85,8.79 -2.35,13.77 -8.57,12.96 -1.46,1.81 -3.02,2.95 -5.18,3.89 -0.67,1.29 -1.94,2.83 -3.44,3.66 1.28,-1.54 0.84,-2.08 0.84,-2.08 -1.2,2.71 -6.29,3.69 -6.78,4.43 1.54,-2.41 0.33,-5.36 -1.14,-7.53 -0.36,-0.52 -0.67,-1.1 -0.94,-1.69 -0.57,-1.26 -0.92,-2.61 -0.98,-3.81 -3.38,-4.93 -0.23,-9.8 2.7,-10.81z"/>
  <path class="fil4" d="M36.21 38.27c-0.01,-0.05 1.76,-1.46 1.87,-2.06 0.1,-0.54 0.06,-1.02 0.05,-1.57 -0.03,-0.72 -0.37,-1.74 -1.22,-1.84 -0.37,-0.04 -0.69,0.14 -0.94,0.39 -0.41,0.42 -0.63,1.06 -0.74,1.63l-0.28 1.49 -0.15 -1.51c-0.3,-3.15 -0.42,-4.87 -3.53,-5.47 -2.17,0.64 -4.9,-2.21 -5.27,-3.14 -0.69,2.38 -1.63,2.6 -3.51,3.73 -0.6,0.36 -1.61,1.04 -1.89,2.5 -0.26,0.52 0.08,4.3 0.39,6.84 0.66,2 1.84,3.75 3.55,4.83 0.72,0.45 1.45,-0.54 1.45,-1.05 0.22,0 0.5,-0.05 0.77,-0.04 0.69,2.37 3.97,0.84 5,0.39 1.62,-0.7 2.97,-2.88 3.99,-4.13 0.37,-0.46 0.11,-0.51 0.46,-0.99z"/>
  <path class="fil5" d="M37.08 37.88c0.58,-0.41 0.88,-0.99 1,-1.67 0.1,-0.54 0.06,-1.02 0.05,-1.57 -0.03,-0.72 -0.37,-1.74 -1.22,-1.84 -0.37,-0.04 -0.69,0.14 -0.94,0.39 -0.69,0.71 -0.31,0.97 -0.5,1.93 -0.27,-2.82 -0.14,-6.08 -4.2,-5.79 -1.79,0.13 -4.25,-1.45 -5.27,-3.14 -0.55,3.42 -0.67,6.15 -0.17,10.07 -0.15,1.84 -0.94,3.46 -1.08,4 0.39,0.13 0.92,0.14 1.22,0.08 0.1,1.4 0.05,1.38 0.28,2.69 0.04,0 0.35,-0.04 0.51,-0.03 0.65,2.29 3.63,0.99 5,0.39 1.46,-0.63 3.68,-3.49 4.31,-4.68 0.63,-0.64 0.13,-0.34 0.35,-0.88 0.22,-0.57 0.63,0.07 0.66,0.05z"/>
  <path class="fil6" d="M26.06 41.69c0.43,-0.22 1.79,1.08 1.95,1.13 -0.1,0 -2.02,-0.78 -3.2,0.15 0.13,-0.08 0.76,-1.42 1.25,-1.28z"/>
  <path class="fil0" d="M36.98 33.19c0.45,-0.05 0.86,0.58 0.92,1.4 0.05,0.62 -0.12,1.18 -0.41,1.43 0.15,-0.29 0.22,-0.69 0.19,-1.13 -0.06,-0.82 -0.47,-1.45 -0.92,-1.41 -0.1,0.01 -0.2,0.06 -0.29,0.14 0.13,-0.25 0.31,-0.41 0.51,-0.43z"/>
  <path class="fil0" d="M36.51 35.34c0.23,0 0.57,0.24 0.56,0.53 -0.01,0.22 -0.18,0.41 -0.4,0.49 0.12,-0.1 0.21,-0.24 0.22,-0.39 0.01,-0.3 -0.36,-0.53 -0.57,-0.53 -0.2,0 -0.35,-0.37 -0.17,-0.65 -0.04,0.24 0.12,0.55 0.36,0.55z"/>
  <path class="fil0" d="M32.57 29.57c-0.19,-0.03 -4.68,0.1 -6.57,-3.38 0.97,0.94 3.36,2.64 6.63,2.73 2.83,0.08 4.53,1.81 4.61,2.97 0.08,1.08 0.32,2.52 0.41,4.34 0.07,1.43 0.54,3.72 2.5,4.91 -0.62,0.01 -2.45,-0.23 -3.36,-3.38 -0.07,2.26 0.98,4.83 3.48,6.03 -2.97,-0.57 -4.54,-3.07 -4.75,-5.78 -0.17,-2.23 -0.39,-4.42 -0.51,-6.15 -0.13,-1.76 -1.85,-2.23 -2.44,-2.29z"/>
  <path class="fil0" d="M26.37 40.95c1.5,-1.67 6.15,3.4 7.88,2.69 -2.35,3.8 -4.91,-2.46 -7.88,-2.69z"/>
  <path class="fil0" d="M25.63 40.96c-1.01,-1.1 -3.18,3.05 -4.24,2.68 1.7,2.6 2.57,-2.25 4.24,-2.68z"/>
  <path class="fil0" d="M22.32 30.33c0.13,-0.04 3.05,-1.19 3.68,-4.14 -0.56,0.87 -2.14,2.6 -4.19,3.55 -3.72,1.72 -2.15,10.11 -0.26,13.37 -0.7,-3.08 -0.98,-6.6 -0.96,-9.69 -0.1,-1.45 0.77,-2.76 1.73,-3.09z"/>
  <path class="fil0" d="M32.62 34.53c-0.14,-0.28 -0.13,-0.45 -0.31,-0.53 0.12,-0.1 0.24,-0.44 0.24,-0.81 -0.13,0.23 -0.73,0.69 -0.84,0.68 0.37,-0.3 0.29,-0.64 0.33,-0.93 -0.16,0.47 -0.75,0.88 -0.79,0.87 0.17,-0.16 0.02,-0.54 -0.03,-0.53 -0.1,0.37 -0.78,0.72 -0.83,0.73 -0.6,0.03 -3.51,0.79 -4.07,3.09 1.16,-2.24 5.03,-3.02 6.3,-2.57z"/>
  <path class="fil0" d="M21.58 35.19c0.11,-0.31 0.12,-0.48 0.23,-0.58 -0.06,-0.09 -0.11,-0.43 -0.09,-0.8 0.06,0.21 0.4,0.61 0.46,0.59 -0.2,-0.27 -0.12,-0.63 -0.13,-0.92 0.06,0.46 0.4,0.8 0.42,0.8 -0.09,-0.15 0.03,-0.56 0.06,-0.56 0.03,0.38 0.42,0.65 0.45,0.65 0.36,-0.04 2.08,0.36 2.25,2.66 -0.54,-2.17 -2.84,-2.46 -3.65,-1.84z"/>
  <g id="_1051930424">
   <path class="fil2 str2" d="M27.06 37.43c-0.01,-0.02 1.15,-0.69 0.62,-1.37"/>
   <path class="fil2 str2" d="M28.08 37.31c0.36,-1.42 1.38,-0.59 1.68,-1.58"/>
   <path class="fil2 str2" d="M29.18 36.27c0.17,-0.05 0.35,0.05 0.44,0.25"/>
   <path class="fil2 str2" d="M27 38.32c0.18,0.36 -0.06,0.34 -0.18,0.61"/>
   <path class="fil2 str2" d="M28.16 38.14c0.36,0.14 -0.09,0.74 0.6,0.88"/>
   <path class="fil2 str2" d="M29.36 37.76c0.63,0.72 0.93,-0.18 1.37,0.52"/>
   <path class="fil2 str2" d="M30.29 36.79c0.66,-0.44 1.02,-0.04 1.75,-0.28 0.51,-0.16 1.05,-0.46 1.25,-0.99 0.01,-0.03 0.01,-0.03 0.01,-0.06"/>
   <path class="fil2 str2" d="M31.18 37.21c0.38,-0.21 -0.36,-0.58 0.07,-0.65 0.23,-0.03 0.3,-0.29 0.37,-0.49"/>
   <path class="fil2 str2" d="M32.25 36.43c0.23,0.12 -0.01,0.29 0.35,0.42"/>
   <path class="fil2 str2" d="M28.27 38.76c-0.17,0.02 -0.36,0.04 -0.4,0.24"/>
  </g>
  <g>
   <path class="fil7" d="M30.2 36.75l0.13 0.13 -0.17 0.09 -0.18 0.07 -0.17 0.07 -0.18 0.06 -0.17 0.04 -0.17 0.05 -0.17 0.03 -0.17 0.03 -0.17 0.02 -0.17 0.02 -0.16 0.02 -0.16 0.01 -0.15 0.02 -0.15 0.01 -0.15 0.01 -0.14 0.01 -0.13 0.01 -0.13 0.01 -0.12 0.02 -0.12 0.02 -0.1 0.02 -0.1 0.03 -0.09 0.03 -0.08 0.04 -0.08 0.04 -0.06 0.04 -0.06 0.06 -0.04 0.06 -0.04 0.07 -0.04 0.08 -0.02 0.09 -0.01 0.11 -0.2 -0.02 0.02 -0.12 0.03 -0.12 0.04 -0.11 0.05 -0.09 0.07 -0.08 0.07 -0.08 0.08 -0.06 0.1 -0.05 0.09 -0.05 0.11 -0.03 0.11 -0.03 0.12 -0.03 0.12 -0.02 0.13 -0.01 0.13 -0.02 0.14 -0.01 0.14 -0.01 0.14 -0.01 0.15 -0.01 0.16 -0.01 0.15 -0.02 0.16 -0.01 0.16 -0.02 0.16 -0.03 0.17 -0.02 0.16 -0.04 0.17 -0.04 0.17 -0.04 0.16 -0.06 0.17 -0.06 0.17 -0.07 0.16 -0.09 0.14 0.13 -0.18 -0.08zm0.13 0.13l-0.09 -0.18c0.05,-0.02 0.11,0 0.13,0.05 0.03,0.05 0.01,0.11 -0.04,0.13zm-3.85 1.29l0 0 -0.01 -0.01 0.01 0 0.02 0.01 0.04 0.02 0.06 0.01 0.09 0.01 0.09 0.01 0.11 0 0.12 0 0.13 -0.01 0.14 -0.01 0.15 -0.02 0.16 -0.02 0.16 -0.03 0.16 -0.03 0.17 -0.04 0.16 -0.04 0.17 -0.05 0.17 -0.06 0.17 -0.05 0.16 -0.07 0.16 -0.07 0.16 -0.07 0.14 -0.08 0.14 -0.09 0.14 -0.09 0.12 -0.09 0.11 -0.1 0.1 -0.11 0.09 -0.11 0.07 -0.11 0.06 -0.12 0.18 0.08 -0.07 0.14 -0.08 0.13 -0.1 0.12 -0.11 0.12 -0.13 0.11 -0.13 0.1 -0.14 0.1 -0.15 0.09 -0.15 0.08 -0.17 0.08 -0.16 0.07 -0.17 0.07 -0.18 0.06 -0.17 0.06 -0.17 0.05 -0.18 0.04 -0.17 0.04 -0.17 0.04 -0.16 0.03 -0.16 0.02 -0.16 0.02 -0.14 0.01 -0.14 0.01 -0.13 0 -0.12 0 -0.1 -0.01 -0.1 -0.01 -0.09 -0.02 -0.07 -0.03 -0.06 -0.04 -0.05 -0.07 -0.02 -0.09 0 0 0.2 0.02z"/>
   <path id="1" class="fil8" d="M26.38 38.16c0.11,-1.32 2.1,-0.42 3.91,-1.37 -0.59,1.39 -3.95,1.79 -3.91,1.37z"/>
  </g>
  <g>
   <path class="fil2 str2" d="M24.5 37.35c0.01,-0.02 -0.9,-0.66 -0.48,-1.35"/>
   <path class="fil2 str2" d="M23.71 37.25c-0.29,-1.41 -1.08,-0.57 -1.32,-1.56"/>
   <path class="fil2 str2" d="M22.84 36.22c-0.13,-0.05 -0.27,0.06 -0.34,0.26"/>
   <path class="fil2 str2" d="M24.54 38.25c-0.14,0.36 0.05,0.33 0.15,0.6"/>
   <path class="fil2 str2" d="M23.64 38.08c-0.28,0.15 0.07,0.74 -0.47,0.89"/>
   <path class="fil2 str2" d="M22.7 37.72c-0.49,0.72 -0.72,-0.17 -1.07,0.53"/>
   <path class="fil2 str2" d="M21.98 36.76c-0.31,-0.3 -0.5,-0.11 -0.71,-0.22"/>
   <path class="fil2 str3" d="M21.17 36.9c0.14,-0.04 0.3,-0.09 0.22,-0.32 -0.2,-0.01 -0.34,-0.21 -0.38,-0.44"/>
   <path class="fil2 str2" d="M23.55 38.7c0.13,0.02 0.28,0.03 0.32,0.24"/>
  </g>
  <g>
   <path class="fil7" d="M22.05 36.72l-0.14 0.08 0.11 -0.13 0.13 0.08 0.12 0.07 0.13 0.06 0.13 0.05 0.13 0.05 0.13 0.04 0.13 0.03 0.13 0.02 0.13 0.03 0.12 0.01 0.13 0.02 0.12 0.01 0.12 0.01 0.11 0.01 0.12 0.01 0.11 0 0.11 0.01 0.1 0.02 0.1 0.01 0.09 0.02 0.09 0.02 0.09 0.03 0.08 0.04 0.08 0.04 0.07 0.05 0.07 0.06 0.06 0.07 0.05 0.09 0.04 0.09 0.03 0.11 0.02 0.11 0.02 0.13 -0.16 0.02 -0.01 -0.11 -0.02 -0.09 -0.02 -0.08 -0.03 -0.07 -0.04 -0.06 -0.04 -0.06 -0.05 -0.04 -0.06 -0.04 -0.06 -0.04 -0.07 -0.03 -0.08 -0.02 -0.08 -0.02 -0.09 -0.02 -0.1 -0.02 -0.1 -0.01 -0.1 -0.01 -0.11 -0.01 -0.12 0 -0.11 -0.01 -0.12 -0.01 -0.13 -0.01 -0.12 -0.02 -0.13 -0.02 -0.13 -0.02 -0.14 -0.03 -0.13 -0.03 -0.13 -0.04 -0.14 -0.04 -0.14 -0.06 -0.13 -0.06 -0.14 -0.08 -0.14 -0.08 0.11 -0.13zm-0.11 0.13c-0.03,-0.02 -0.05,-0.08 -0.03,-0.13 0.02,-0.05 0.07,-0.07 0.11,-0.05l-0.08 0.18zm3.01 1.24l0.16 -0.02 0 0 -0.02 0.09 -0.03 0.06 -0.06 0.05 -0.05 0.03 -0.07 0.02 -0.07 0.01 -0.09 0.01 -0.09 0 -0.1 0 -0.11 0 -0.11 -0.01 -0.12 -0.02 -0.13 -0.02 -0.13 -0.03 -0.13 -0.03 -0.13 -0.04 -0.14 -0.04 -0.13 -0.05 -0.14 -0.05 -0.13 -0.06 -0.14 -0.06 -0.13 -0.07 -0.12 -0.08 -0.12 -0.08 -0.12 -0.09 -0.11 -0.1 -0.1 -0.1 -0.1 -0.1 -0.09 -0.12 -0.07 -0.12 -0.07 -0.13 -0.05 -0.14 0.14 -0.08 0.05 0.12 0.05 0.11 0.07 0.11 0.08 0.1 0.09 0.1 0.09 0.09 0.1 0.09 0.11 0.08 0.12 0.08 0.12 0.07 0.12 0.07 0.13 0.06 0.13 0.06 0.13 0.05 0.13 0.05 0.14 0.04 0.13 0.04 0.12 0.03 0.13 0.02 0.12 0.02 0.11 0.02 0.11 0.01 0.11 0.01 0.09 0 0.08 -0.01 0.08 -0.01 0.06 -0.01 0.05 -0.01 0.04 -0.02 0.01 -0.01 0 0 0 0.01 0 0z"/>
   <path id="1" class="fil8" d="M25.03 38.08c-0.08,-1.32 -1.64,-0.39 -3.05,-1.32 0.46,1.39 3.08,1.74 3.05,1.32z"/>
  </g>
  <g>
   <path class="fil2 str4" d="M25.6 29.9c0.4,0.77 0.75,1.96 0.85,2.81 -0.57,-0.1 -1.18,0.02 -1.74,0.11 0.09,-0.9 0.45,-2.08 0.89,-2.92z"/>
   <path id="1" class="fil8" d="M25.6 29.9c0.4,0.77 0.75,1.96 0.85,2.81 -0.57,-0.1 -1.18,0.02 -1.74,0.11 0.09,-0.9 0.45,-2.08 0.89,-2.92z"/>
  </g>
 </g>
</svg>
