<?xml version="1.0" encoding="UTF-8"?>
<!DOCTYPE svg PUBLIC "-//W3C//DTD SVG 1.0//EN" "http://www.w3.org/TR/2001/REC-SVG-20010904/DTD/svg10.dtd">
<!-- Creator: CorelDRAW 2019 -->
<svg xmlns="http://www.w3.org/2000/svg" xml:space="preserve" width="1000px" height="1000px" version="1.0" style="shape-rendering:geometricPrecision; text-rendering:geometricPrecision; image-rendering:optimizeQuality; fill-rule:evenodd; clip-rule:evenodd"
viewBox="0 0 73.64 73.64"
 xmlns:xlink="http://www.w3.org/1999/xlink"
 xmlns:xodm="http://www.corel.com/coreldraw/odm/2003">
 <defs>
  <style type="text/css">
   <![CDATA[
    .str1 {stroke:black;stroke-width:0.27;stroke-linecap:round;stroke-linejoin:round;stroke-miterlimit:2.61313}
    .str0 {stroke:black;stroke-width:0.27;stroke-linecap:round;stroke-linejoin:round;stroke-miterlimit:2.61313}
    .str2 {stroke:#6B95FF;stroke-width:0.27;stroke-linecap:round;stroke-linejoin:round;stroke-miterlimit:2.61313}
    .fil2 {fill:none}
    .fil0 {fill:black}
    .fil1 {fill:#033BF5}
    .fil3 {fill:#1A1A1A}
    .fil4 {fill:#F7B183}
    .fil5 {fill:#FCCAA9}
    .fil6 {fill:#1A1A1A;fill-rule:nonzero}
   ]]>
  </style>
    <clipPath id="id0">
     <path d="M36.82 12.05c13.68,0 24.77,11.09 24.77,24.77 0,13.68 -11.09,24.77 -24.77,24.77 -13.68,0 -24.77,-11.09 -24.77,-24.77 0,-13.68 11.09,-24.77 24.77,-24.77z"/>
    </clipPath>
   <clipPath id="id1">
    <path d="M30.82 21.44c-0.54,1.24 -2.24,5.91 0.12,4.69 0.69,-2.39 3.03,-3.55 10.36,-5.85 -4.27,2.68 -6.93,4.52 -5.49,5.28 2.44,-3.76 9.47,-3.15 11.85,-8.35 0.9,6.16 -6.71,8.05 -6.2,11.2 1.18,-2.26 4.41,-3.81 7.85,-4.44 -2.48,1.09 -4.81,3.99 -4.43,6.26 1.58,-4.72 6.85,-4.04 8.98,-9.28 0.45,5.67 -2.96,6.9 -6.34,14.62 2.14,-2.39 3.3,-6.52 7.71,-8.26 -2.22,1.76 -3.11,4.23 -4.52,7.01 -1.16,2.27 -3.12,3.91 -4.25,2.24 -6.86,-10.18 -12.91,-13.12 -20.69,-7.06 1.84,-2.42 -0.77,-1.88 5.05,-8.06z"/>
   </clipPath>
   <clipPath id="id2">
    <path d="M26.2 29.84c8.47,-8.14 16.16,1.55 20.17,7.12 1.95,2.71 5.15,-3.35 6.83,-5.99 -0.98,10.11 -2.7,15.82 -9.85,14.9 -1.69,2.08 -3.48,3.39 -5.96,4.47 -0.77,1.47 -2.22,3.25 -3.95,4.2 1.47,-1.76 0.97,-2.39 0.97,-2.39 -1.38,3.12 -7.24,4.24 -7.8,5.1 1.77,-2.77 0.39,-6.17 -1.31,-8.66 -0.41,-0.6 -0.77,-1.26 -1.08,-1.95 -0.65,-1.44 -1.06,-3 -1.13,-4.37 -3.88,-5.67 -0.26,-11.27 3.11,-12.43z"/>
   </clipPath>
 </defs>
 <g id="Layer_x0020_1">
  <metadata id="CorelCorpID_0Corel-Layer"/>
  <rect class="fil0" width="73.64" height="73.64"/>
  <circle class="fil0" cx="36.82" cy="36.82" r="26.4"/>
  <g id="_1046929288">
   <path class="fil1" d="M36.82 12.05c13.68,0 24.77,11.09 24.77,24.77 0,13.68 -11.09,24.77 -24.77,24.77 -13.68,0 -24.77,-11.09 -24.77,-24.77 0,-13.68 11.09,-24.77 24.77,-24.77z"/>
   <g style="clip-path:url(#id0)">
    <g>
     <g>
      <rect class="fil0" x="32.14" y="-5.6" width="0.39" height="43.22"/>
      <rect class="fil0" transform="matrix(0.965926 0.258819 -0.258819 0.965926 43.3294 -4.12756)" width="0.39" height="43.22"/>
      <rect class="fil0" transform="matrix(0.866025 0.5 -0.5 0.866025 53.7542 0.190509)" width="0.39" height="43.22"/>
      <rect class="fil0" transform="matrix(0.707107 0.707107 -0.707107 0.707107 62.7061 7.05956)" width="0.39" height="43.22"/>
      <rect class="fil0" transform="matrix(0.5 0.866025 -0.866025 0.5 69.5751 16.0115)" width="0.39" height="43.22"/>
      <rect class="fil0" transform="matrix(0.258819 0.965926 -0.965926 0.258819 73.8932 26.4362)" width="0.39" height="43.22"/>
      <rect class="fil0" transform="matrix(2.63956E-14 1 -1 2.63956E-14 75.366 37.6234)" width="0.39" height="43.22"/>
      <rect class="fil0" transform="matrix(-0.258819 0.965926 -0.965926 -0.258819 73.8932 48.8105)" width="0.39" height="43.22"/>
      <rect class="fil0" transform="matrix(-0.5 0.866025 -0.866025 -0.5 69.5751 59.2352)" width="0.39" height="43.22"/>
      <rect class="fil0" transform="matrix(-0.707107 0.707107 -0.707107 -0.707107 62.7061 68.1871)" width="0.39" height="43.22"/>
      <rect class="fil0" transform="matrix(-0.866025 0.5 -0.5 -0.866025 53.7542 75.0562)" width="0.39" height="43.22"/>
      <rect class="fil0" transform="matrix(-0.965926 0.258819 -0.258819 -0.965926 43.3294 79.3743)" width="0.39" height="43.22"/>
      <rect class="fil0" x="31.75" y="37.62" width="0.39" height="43.22"/>
      <rect class="fil0" transform="matrix(-0.965926 -0.258819 0.258819 -0.965926 20.9552 79.3743)" width="0.39" height="43.22"/>
      <rect class="fil0" transform="matrix(-0.866025 -0.5 0.5 -0.866025 10.5304 75.0562)" width="0.39" height="43.22"/>
      <rect class="fil0" transform="matrix(-0.707107 -0.707107 0.707107 -0.707107 1.5785 68.1871)" width="0.39" height="43.22"/>
      <rect class="fil0" transform="matrix(-0.5 -0.866025 0.866025 -0.5 -5.29055 59.2352)" width="0.39" height="43.22"/>
      <rect class="fil0" transform="matrix(-0.258819 -0.965926 0.965926 -0.258819 -9.60862 48.8105)" width="0.39" height="43.22"/>
      <rect class="fil0" transform="matrix(-7.91589E-14 -1 1 -7.91589E-14 -11.0814 37.6234)" width="0.39" height="43.22"/>
      <rect class="fil0" transform="matrix(0.258819 -0.965926 0.965926 0.258819 -9.60862 26.4362)" width="0.39" height="43.22"/>
      <rect class="fil0" transform="matrix(0.5 -0.866025 0.866025 0.5 -5.29055 16.0115)" width="0.39" height="43.22"/>
      <rect class="fil0" transform="matrix(0.707107 -0.707107 0.707107 0.707107 1.5785 7.05956)" width="0.39" height="43.22"/>
      <rect class="fil0" transform="matrix(0.866025 -0.5 0.5 0.866025 10.5304 0.190509)" width="0.39" height="43.22"/>
      <rect class="fil0" transform="matrix(0.965926 -0.258819 0.258819 0.965926 20.9552 -4.12756)" width="0.39" height="43.22"/>
     </g>
    </g>
   </g>
   <path class="fil2" d="M36.82 12.05c13.68,0 24.77,11.09 24.77,24.77 0,13.68 -11.09,24.77 -24.77,24.77 -13.68,0 -24.77,-11.09 -24.77,-24.77 0,-13.68 11.09,-24.77 24.77,-24.77z"/>
  </g>
  <path class="fil0" d="M35.86 25c0.11,-0.13 0.22,-0.26 0.33,-0.39 1.58,-1.69 4.31,-2.47 6.39,-3.39 2.07,-0.91 3.88,-2.03 4.87,-4.18l0.49 -1.07 0.17 1.17c0.41,2.81 -0.82,4.84 -2.75,6.73 -0.91,0.89 -2,1.73 -2.8,2.71 1.19,-1.08 5.98,-3.86 7.27,-2.43 -1.79,0.79 -3.55,2.31 -4.27,4.17 1.3,-1.8 3.3,-2.59 5.06,-3.83 1.39,-0.98 2.37,-2.09 3.01,-3.69l0.56 -1.37 0.11 1.47c0.13,1.57 -0.02,3.01 -0.6,4.48 -0.7,1.79 -1.94,3.42 -2.95,5.05 2.06,-2.66 3.73,-3.18 6.64,-4.33 -2.19,1.74 -3.35,2.55 -4.72,5.2 2.1,-3.36 -0.45,8.36 -0.53,8.63 -0.61,2 -1.57,4.08 -3.36,5.28 -0.99,0.67 -2.09,0.98 -3.25,1.06 0.27,0.27 0.57,0.5 0.9,0.7l1.05 0.64 -1.23 0.01c-1.08,0.01 -2.03,-0.51 -2.74,-1.3 -0.06,0.08 -0.13,0.16 -0.2,0.23 0.64,1.52 1.74,2.74 3.24,3.45l0.27 0.14 -0.19 0.58 -0.3 -0.06c-1.8,-0.34 -3.29,-1.3 -4.32,-2.77 -0.86,0.77 -1.78,1.42 -2.78,1.97 0.03,-0.01 0.07,-0.02 0.1,-0.03l1 -0.41 -0.57 0.91c-0.66,1.08 -1.56,1.82 -2.79,1.49 -0.86,1.18 -1.99,2.31 -3.26,3.01l-1.63 0.9c0.47,-0.57 1,-1.15 1.43,-1.74 -1.31,1.15 -5.9,3.5 -7.28,3.34l0.18 -0.29c1.18,-1.83 0.86,-3.98 0.04,-5.87 -1.23,0.77 -2.06,-0.86 -2.62,-1.71l0.76 0.27 -0.02 -0.02c-1.31,-2.27 -2.11,-5.67 -2.3,-8.3 -1.16,-2.17 -1.45,-4.58 -0.66,-6.93 0.61,-1.8 1.87,-3.52 3.52,-4.5 0.38,-0.51 0.61,-0.96 0.8,-1.58 1.12,-3.76 3.53,-5.94 6.11,-8.67 -0.32,0.72 -2.51,5.64 -1.75,6.21 0.21,0.16 1.01,-4.04 11.57,-5.78 -1.03,0.65 -6.04,3.93 -6,4.84zm-10.6 24.64c0.1,-0.06 0.2,-0.14 0.28,-0.21 -0.14,-0.23 -0.28,-0.45 -0.43,-0.67 -0.02,-0.03 -0.04,-0.06 -0.06,-0.08 0.05,0.26 0.11,0.52 0.17,0.78l0.04 0.18z"/>
  <path class="fil3" d="M30.82 21.44c-0.54,1.24 -2.24,5.91 0.12,4.69 0.69,-2.39 3.03,-3.55 10.36,-5.85 -4.27,2.68 -6.93,4.52 -5.49,5.28 2.44,-3.76 9.47,-3.15 11.85,-8.35 0.9,6.16 -6.71,8.05 -6.2,11.2 1.18,-2.26 4.41,-3.81 7.85,-4.44 -2.48,1.09 -4.81,3.99 -4.43,6.26 1.58,-4.72 6.85,-4.04 8.98,-9.28 0.45,5.67 -2.96,6.9 -6.34,14.62 2.14,-2.39 3.3,-6.52 7.71,-8.26 -2.22,1.76 -3.11,4.23 -4.52,7.01 -1.16,2.27 -3.12,3.91 -4.25,2.24 -6.86,-10.18 -12.91,-13.12 -20.69,-7.06 1.84,-2.42 -0.77,-1.88 5.05,-8.06z"/>
  <g style="clip-path:url(#id1)">
   <g id="_1331636408">
    <path id="1" class="fil2 str0" d="M-0.24 28.96c2.88,1.75 5.37,2.38 7.75,2.26 7.56,-0.39 7.45,14.27 5.03,20.51"/>
    <path class="fil2 str0" d="M-0.23 26.48c3.22,-3.64 11.69,-0.85 17.63,-8.12"/>
    <path class="fil2 str0" d="M-7.09 41.73c-1.18,-5.23 -0.52,-8.34 1.54,-9.15 2.44,-0.97 4.88,-3.52 5.39,-4.46 3.42,1.68 6.26,2.32 8.78,3.15 6.66,0.61 6.87,13.62 4.78,19.73"/>
    <path class="fil2 str0" d="M-7.1 44.2c-3,-6.99 -0.95,-11.59 1.36,-12.7 2.37,-1.14 5.07,-2.44 5.58,-3.38 3.59,0.59 7.88,0.53 9.89,3.2 5.76,1.61 6.29,12.97 4.53,18.95"/>
    <path class="fil2 str0" d="M-8.22 43.85c-2.61,-5.23 -0.87,-12.51 3.77,-14.69 1.53,-0.72 2.31,-0.56 4.23,-1.28 10.46,-3.27 18.12,10.26 15.35,21.66"/>
    <path class="fil2 str0" d="M-9.72 31.44c2.08,-3 7.6,-4.49 9.53,-3.79 10.14,-4.86 18.16,10.79 16.18,21.17"/>
    <path class="fil2 str0" d="M-9.18 30.15c3.96,-3.69 7.45,-3.35 8.99,-2.82 11.31,-4.58 18.57,9.55 17.04,20.76"/>
    <path class="fil2 str0" d="M-7.98 26.81c3.14,-1.88 7.18,-1.99 7.82,0.23 6.71,-4.12 12.62,0.92 15.68,4.53"/>
    <path class="fil2 str1" d="M25.92 30.8c1.93,-2.33 0.61,-4.02 3.65,-7.2 -1.23,2.31 -0.47,4.1 0.21,5.93"/>
    <path class="fil2 str1" d="M30.6 28.9c1.2,-3.19 1.11,-5.25 8.04,-7.32 -4.26,2.54 -5.84,3.93 -6.55,7.92"/>
    <path class="fil2 str1" d="M33.78 29.81c3.61,-7.36 8.47,-5.15 13.34,-10.73 -1.76,4.79 -8.45,7.08 -9.76,13.03"/>
    <path class="fil2 str1" d="M39.3 32.65c1.97,-2.75 4.06,-6.33 7.19,-7.45 -2.24,1.81 -4.69,3.93 -5.17,9.26"/>
    <path class="fil2 str1" d="M42.7 36.17c5.06,-11.28 6.09,-7.55 10.55,-12.96 -2.83,6.94 -7.58,7.97 -9.55,15.81"/>
    <path class="fil2 str1" d="M44.63 41.26c2.71,-1.85 5.81,-9.42 7.73,-11.33 -2.41,4.38 -4.48,12.28 -7.73,13.57"/>
    <path class="fil2 str1" d="M35.68 31.08c1.07,-5.31 7.24,-7.12 11.44,-12"/>
    <path class="fil2 str1" d="M43.26 37.67c1.08,-5.31 5.73,-9.16 9.99,-14.46"/>
    <path class="fil2 str1" d="M41.84 36.35c1.8,-5.1 0.4,-5.85 4.65,-11.15"/>
   </g>
  </g>
  <path class="fil2" d="M30.82 21.44c-0.54,1.24 -2.24,5.91 0.12,4.69 0.69,-2.39 3.03,-3.55 10.36,-5.85 -4.27,2.68 -6.93,4.52 -5.49,5.28 2.44,-3.76 9.47,-3.15 11.85,-8.35 0.9,6.16 -6.71,8.05 -6.2,11.2 1.18,-2.26 4.41,-3.81 7.85,-4.44 -2.48,1.09 -4.81,3.99 -4.43,6.26 1.58,-4.72 6.85,-4.04 8.98,-9.28 0.45,5.67 -2.96,6.9 -6.34,14.62 2.14,-2.39 3.3,-6.52 7.71,-8.26 -2.22,1.76 -3.11,4.23 -4.52,7.01 -1.16,2.27 -3.12,3.91 -4.25,2.24 -6.86,-10.18 -12.91,-13.12 -20.69,-7.06 1.84,-2.42 -0.77,-1.88 5.05,-8.06z"/>
  <path class="fil3" d="M26.2 29.84c8.47,-8.14 16.16,1.55 20.17,7.12 1.95,2.71 5.15,-3.35 6.83,-5.99 -0.98,10.11 -2.7,15.82 -9.85,14.9 -1.69,2.08 -3.48,3.39 -5.96,4.47 -0.77,1.47 -2.22,3.25 -3.95,4.2 1.47,-1.76 0.97,-2.39 0.97,-2.39 -1.38,3.12 -7.24,4.24 -7.8,5.1 1.77,-2.77 0.39,-6.17 -1.31,-8.66 -0.41,-0.6 -0.77,-1.26 -1.08,-1.95 -0.65,-1.44 -1.06,-3 -1.13,-4.37 -3.88,-5.67 -0.26,-11.27 3.11,-12.43z"/>
  <g style="clip-path:url(#id2)">
   <g id="_1332484208">
    <path id="1" class="fil2 str0" d="M29.97 30.21c3.08,1.87 5.74,2.55 8.29,2.42 8.08,-0.42 7.96,15.25 5.38,21.92"/>
    <path class="fil2 str0" d="M29.98 27.56c3.45,-3.89 12.2,-1.68 14.26,0.07"/>
    <path class="fil2 str0" d="M22.65 43.87c-1.26,-5.6 -0.55,-8.93 1.65,-9.79 2.61,-1.03 5.21,-3.76 5.76,-4.76 3.65,1.79 6.69,2.48 9.39,3.36 7.11,0.65 7.47,11.59 7.47,16.97"/>
    <path class="fil2 str0" d="M22.65 46.51c-3.22,-7.48 -1.03,-12.4 1.44,-13.59 2.54,-1.21 5.42,-2.6 5.97,-3.6 3.83,0.63 8.42,0.56 10.57,3.41 6.89,2.84 5.65,12.11 10,13.54"/>
    <path class="fil2 str0" d="M21.45 46.13c-2.8,-5.6 -0.94,-13.37 4.02,-15.71 1.64,-0.77 2.48,-0.59 4.53,-1.36 16.68,0.68 14.94,15.26 22.55,12.97"/>
    <path class="fil2 str0" d="M19.85 32.86c2.22,-3.2 8.12,-4.8 10.18,-4.04 11.34,-4.93 17.74,19.1 22.91,8.13"/>
    <path class="fil2 str0" d="M20.42 31.49c4.23,-3.95 7.96,-3.58 9.6,-3.02 13.57,-5.62 15.41,21.65 24.09,3.53"/>
    <path class="fil2 str0" d="M21.71 27.91c3.34,-2 7.66,-2.12 8.35,0.25 7.18,-4.4 13.48,0.99 16.76,4.84"/>
   </g>
  </g>
  <path class="fil2" d="M26.2 29.84c8.47,-8.14 16.16,1.55 20.17,7.12 1.95,2.71 5.15,-3.35 6.83,-5.99 -0.98,10.11 -2.7,15.82 -9.85,14.9 -1.69,2.08 -3.48,3.39 -5.96,4.47 -0.77,1.47 -2.22,3.25 -3.95,4.2 1.47,-1.76 0.97,-2.39 0.97,-2.39 -1.38,3.12 -7.24,4.24 -7.8,5.1 1.77,-2.77 0.39,-6.17 -1.31,-8.66 -0.41,-0.6 -0.77,-1.26 -1.08,-1.95 -0.65,-1.44 -1.06,-3 -1.13,-4.37 -3.88,-5.67 -0.26,-11.27 3.11,-12.43z"/>
  <path class="fil4" d="M41.62 44c-0.01,-0.07 2.03,-1.68 2.15,-2.38 0.11,-0.62 0.07,-1.17 0.05,-1.8 -0.02,-0.83 -0.41,-2 -1.39,-2.11 -0.42,-0.05 -0.8,0.15 -1.09,0.44 -0.47,0.49 -0.71,1.23 -0.84,1.87l-0.33 1.72 -0.17 -1.74c-0.35,-3.62 -0.48,-5.6 -4.05,-6.28 -2.5,0.73 -5.64,-2.54 -6.07,-3.62 -0.78,2.74 -1.87,2.99 -4.02,4.29 -0.69,0.42 -1.86,1.2 -2.18,2.87 -0.3,0.61 0.09,4.95 0.45,7.87 0.76,2.3 2.11,4.31 4.08,5.55 0.82,0.52 1.67,-0.62 1.66,-1.21 0.26,0.01 0.58,-0.05 0.89,-0.05 0.8,2.73 4.57,0.97 5.74,0.46 1.87,-0.81 3.42,-3.32 4.59,-4.75 0.42,-0.52 0.13,-0.59 0.53,-1.13z"/>
  <path class="fil5" d="M42.62 43.54c0.67,-0.47 1.01,-1.14 1.15,-1.92 0.11,-0.62 0.07,-1.17 0.05,-1.8 -0.02,-0.83 -0.41,-2 -1.39,-2.11 -0.42,-0.05 -0.8,0.15 -1.09,0.44 -0.79,0.82 -0.35,1.11 -0.57,2.22 -0.31,-3.24 -0.15,-6.99 -4.82,-6.65 -2.06,0.15 -4.89,-1.68 -6.07,-3.62 -0.62,3.93 -0.76,7.07 -0.19,11.58 -0.18,2.12 -1.08,3.98 -1.24,4.6 0.44,0.15 1.06,0.16 1.4,0.09 0.12,1.6 0.06,1.59 0.33,3.09 0.04,0 0.4,-0.04 0.58,-0.04 0.75,2.63 4.17,1.15 5.74,0.46 1.68,-0.73 4.24,-4.01 4.97,-5.39 0.72,-0.73 0.15,-0.38 0.39,-1 0.26,-0.66 0.73,0.07 0.76,0.05z"/>
  <path class="fil6" d="M29.95 47.92c0.5,-0.25 2.07,1.24 2.25,1.3 -0.12,0.01 -2.32,-0.89 -3.68,0.18 0.14,-0.09 0.88,-1.64 1.43,-1.48z"/>
  <path class="fil0" d="M42.51 38.15c0.52,-0.05 0.99,0.67 1.06,1.61 0.05,0.72 -0.15,1.36 -0.47,1.64 0.17,-0.33 0.25,-0.79 0.22,-1.3 -0.07,-0.94 -0.55,-1.66 -1.06,-1.61 -0.12,0.01 -0.24,0.07 -0.34,0.15 0.15,-0.28 0.35,-0.47 0.59,-0.49z"/>
  <path class="fil0" d="M41.96 40.62c0.28,0 0.67,0.27 0.65,0.61 -0.02,0.26 -0.2,0.48 -0.46,0.57 0.15,-0.12 0.24,-0.28 0.25,-0.46 0.02,-0.33 -0.41,-0.6 -0.65,-0.6 -0.23,0 -0.4,-0.43 -0.19,-0.75 -0.06,0.28 0.13,0.63 0.4,0.63z"/>
  <path class="fil0" d="M37.44 33.99c-0.22,-0.03 -5.38,0.11 -7.56,-3.89 1.12,1.08 3.87,3.04 7.63,3.14 3.25,0.09 5.2,2.08 5.3,3.42 0.09,1.24 0.37,2.89 0.47,4.99 0.07,1.64 0.61,4.28 2.87,5.64 -0.71,0.01 -2.82,-0.26 -3.86,-3.89 -0.08,2.6 1.13,5.56 4,6.94 -3.42,-0.65 -5.22,-3.53 -5.46,-6.65 -0.19,-2.56 -0.45,-5.08 -0.59,-7.06 -0.15,-2.03 -2.12,-2.57 -2.8,-2.64z"/>
  <path class="fil0" d="M30.32 47.07c1.72,-1.92 7.06,3.92 9.04,3.1 -2.69,4.36 -5.64,-2.83 -9.04,-3.1z"/>
  <path class="fil0" d="M29.47 47.09c-1.17,-1.28 -3.67,3.5 -4.88,3.07 1.96,3 2.95,-2.58 4.88,-3.07z"/>
  <path class="fil0" d="M25.66 34.87c0.14,-0.05 3.5,-1.37 4.22,-4.77 -0.64,1.01 -2.45,2.99 -4.81,4.08 -4.28,1.98 -2.47,11.62 -0.29,15.37 -0.81,-3.53 -1.13,-7.58 -1.11,-11.13 -0.12,-1.68 0.88,-3.18 1.99,-3.55z"/>
  <path class="fil0" d="M37.5 39.69c-0.16,-0.33 -0.16,-0.52 -0.36,-0.61 0.14,-0.11 0.28,-0.51 0.28,-0.92 -0.15,0.26 -0.84,0.79 -0.96,0.78 0.42,-0.35 0.32,-0.74 0.37,-1.08 -0.18,0.54 -0.87,1.01 -0.91,1.01 0.2,-0.19 0.02,-0.62 -0.04,-0.62 -0.1,0.43 -0.89,0.84 -0.95,0.84 -0.69,0.04 -4.04,0.91 -4.68,3.55 1.34,-2.57 5.78,-3.46 7.25,-2.95z"/>
  <path class="fil0" d="M24.81 40.45c0.12,-0.35 0.13,-0.55 0.26,-0.67 -0.07,-0.1 -0.13,-0.49 -0.1,-0.92 0.07,0.25 0.46,0.71 0.53,0.68 -0.23,-0.31 -0.15,-0.72 -0.15,-1.06 0.07,0.54 0.45,0.93 0.48,0.92 -0.11,-0.17 0.03,-0.63 0.07,-0.64 0.03,0.43 0.48,0.75 0.52,0.74 0.41,-0.04 2.39,0.42 2.59,3.06 -0.63,-2.48 -3.27,-2.83 -4.2,-2.11z"/>
  <g id="_985570064">
   <g>
    <g>
     <path class="fil2 str2" d="M31.1 43.02c-0.01,-0.02 1.33,-0.78 0.71,-1.57"/>
    </g>
    <g>
     <path class="fil2 str2" d="M32.27 42.89c0.43,-1.63 1.59,-0.68 1.94,-1.82"/>
    </g>
    <g>
     <path class="fil2 str2" d="M33.54 41.69c0.2,-0.06 0.4,0.06 0.51,0.29"/>
    </g>
    <g>
     <path class="fil2 str2" d="M31.04 44.05c0.21,0.41 -0.07,0.39 -0.21,0.7"/>
    </g>
    <g>
     <path class="fil2 str2" d="M32.37 43.84c0.41,0.17 -0.1,0.85 0.68,1.02"/>
    </g>
    <g>
     <path class="fil2 str2" d="M33.75 43.4c0.72,0.83 1.07,-0.2 1.57,0.6"/>
    </g>
    <g>
     <path class="fil2 str2" d="M34.81 42.29c0.77,-0.51 1.18,-0.05 2.02,-0.32 0.58,-0.19 1.2,-0.53 1.44,-1.14 0.01,-0.03 0.01,-0.04 0.01,-0.07"/>
    </g>
    <g>
     <path class="fil2 str2" d="M35.84 42.77c0.44,-0.24 -0.41,-0.67 0.08,-0.74 0.26,-0.04 0.35,-0.34 0.43,-0.57"/>
    </g>
    <g>
     <path class="fil2 str2" d="M37.08 41.88c0.26,0.13 -0.02,0.33 0.39,0.47"/>
    </g>
    <g>
     <path class="fil2 str2" d="M32.5 44.56c-0.2,0.02 -0.42,0.04 -0.46,0.27"/>
    </g>
   </g>
   <g>
    <path class="fil2 str2" d="M30.32 43.87c0.13,-1.52 2.42,-0.49 4.49,-1.58 -0.67,1.6 -4.53,2.06 -4.49,1.58z"/>
    <path id="1" class="fil1" d="M30.32 43.87c0.13,-1.52 2.42,-0.49 4.49,-1.58 -0.67,1.6 -4.53,2.06 -4.49,1.58z"/>
   </g>
  </g>
  <g>
   <g>
    <g>
     <path class="fil2 str2" d="M28.16 42.94c0.01,-0.03 -1.03,-0.77 -0.55,-1.56"/>
    </g>
    <g>
     <path class="fil2 str2" d="M27.25 42.82c-0.33,-1.62 -1.24,-0.66 -1.51,-1.79"/>
    </g>
    <g>
     <path class="fil2 str2" d="M26.26 41.64c-0.16,-0.06 -0.31,0.07 -0.4,0.29"/>
    </g>
    <g>
     <path class="fil2 str2" d="M28.21 43.96c-0.16,0.42 0.06,0.39 0.17,0.7"/>
    </g>
    <g>
     <path class="fil2 str2" d="M27.17 43.78c-0.32,0.16 0.08,0.84 -0.53,1.02"/>
    </g>
    <g>
     <path class="fil2 str2" d="M26.1 43.35c-0.57,0.84 -0.84,-0.18 -1.23,0.62"/>
    </g>
    <g>
     <path class="fil2 str2" d="M25.27 42.26c-0.36,-0.35 -0.57,-0.13 -0.82,-0.26"/>
    </g>
    <g>
     <path class="fil2 str2" d="M24.33 42.41c0.17,-0.04 0.34,-0.1 0.26,-0.37 -0.23,0 -0.4,-0.23 -0.44,-0.5"/>
    </g>
    <g>
     <path class="fil2 str2" d="M27.07 44.49c0.16,0.02 0.33,0.03 0.36,0.27"/>
    </g>
   </g>
   <g>
    <path class="fil2 str2" d="M28.77 43.77c-0.1,-1.51 -1.88,-0.45 -3.5,-1.51 0.53,1.59 3.53,2 3.5,1.51z"/>
    <path id="1" class="fil1" d="M28.77 43.77c-0.1,-1.51 -1.88,-0.45 -3.5,-1.51 0.53,1.59 3.53,2 3.5,1.51z"/>
   </g>
  </g>
  <g>
   <path class="fil2 str2" d="M29.43 34.37c0.46,0.89 0.86,2.26 0.97,3.23 -0.65,-0.12 -1.35,0.02 -1.99,0.12 0.09,-1.03 0.51,-2.38 1.02,-3.35z"/>
   <path id="1" class="fil1" d="M29.43 34.37c0.46,0.89 0.86,2.26 0.97,3.23 -0.65,-0.12 -1.35,0.02 -1.99,0.12 0.09,-1.03 0.51,-2.38 1.02,-3.35z"/>
  </g>
 </g>
</svg>
