<?xml version="1.0" encoding="UTF-8"?>
<!DOCTYPE svg PUBLIC "-//W3C//DTD SVG 1.0//EN" "http://www.w3.org/TR/2001/REC-SVG-20010904/DTD/svg10.dtd">
<!-- Creator: CorelDRAW 2019 -->
<svg xmlns="http://www.w3.org/2000/svg" xml:space="preserve" width="1000px" height="1000px" version="1.0" style="shape-rendering:geometricPrecision; text-rendering:geometricPrecision; image-rendering:optimizeQuality; fill-rule:evenodd; clip-rule:evenodd"
viewBox="0 0 46.78 46.78"
 xmlns:xlink="http://www.w3.org/1999/xlink"
 xmlns:xodm="http://www.corel.com/coreldraw/odm/2003">
 <defs>
  <style type="text/css">
   <![CDATA[
    .str2 {stroke:#99FFFF;stroke-width:0.17;stroke-linecap:round;stroke-miterlimit:2.61313}
    .str1 {stroke:black;stroke-width:0.24;stroke-linecap:round;stroke-linejoin:round;stroke-miterlimit:2.61313}
    .str0 {stroke:black;stroke-width:0.24;stroke-linecap:round;stroke-linejoin:round;stroke-miterlimit:2.61313}
    .str4 {stroke:#99FFFF;stroke-width:0.24;stroke-linecap:round;stroke-linejoin:round;stroke-miterlimit:2.61313}
    .str3 {stroke:#99FFFF;stroke-width:0.17;stroke-linecap:round;stroke-linejoin:round;stroke-miterlimit:2.61313}
    .fil2 {fill:none}
    .fil0 {fill:black}
    .fil1 {fill:#00CCFF}
    .fil8 {fill:aqua}
    .fil3 {fill:#1A1A1A}
    .fil4 {fill:#F7B183}
    .fil5 {fill:#FCCAA9}
    .fil6 {fill:#1A1A1A;fill-rule:nonzero}
    .fil7 {fill:#99FFFF;fill-rule:nonzero}
   ]]>
  </style>
    <clipPath id="id0">
     <path d="M23.39 1.44c12.12,0 21.95,9.83 21.95,21.95 0,12.12 -9.83,21.95 -21.95,21.95 -12.12,0 -21.95,-9.83 -21.95,-21.95 0,-12.12 9.83,-21.95 21.95,-21.95z"/>
    </clipPath>
   <clipPath id="id1">
    <path d="M18.07 9.76c-0.47,1.1 -1.98,5.24 0.11,4.16 0.61,-2.12 2.69,-3.15 9.18,-5.19 -3.78,2.38 -6.14,4.01 -4.87,4.68 2.17,-3.33 8.39,-2.78 10.51,-7.39 0.79,5.45 -5.95,7.13 -5.5,9.92 1.05,-2 3.91,-3.38 6.95,-3.93 -2.2,0.96 -4.26,3.53 -3.91,5.54 1.4,-4.18 6.06,-3.58 7.94,-8.22 0.41,5.02 -2.62,6.11 -5.61,12.95 1.9,-2.12 2.93,-5.78 6.83,-7.32 -1.97,1.57 -2.76,3.76 -4.01,6.22 -1.02,2.01 -2.76,3.46 -3.76,1.98 -6.08,-9.02 -11.44,-11.63 -18.33,-6.25 1.63,-2.15 -0.69,-1.67 4.47,-7.15z"/>
   </clipPath>
   <clipPath id="id2">
    <path d="M13.98 17.2c7.51,-7.21 14.32,1.38 17.87,6.31 1.73,2.41 4.56,-2.96 6.06,-5.3 -0.88,8.95 -2.4,14.02 -8.73,13.2 -1.5,1.84 -3.08,3 -5.28,3.95 -0.69,1.32 -1.98,2.89 -3.51,3.73 1.31,-1.56 0.86,-2.11 0.86,-2.11 -1.22,2.75 -6.41,3.75 -6.91,4.51 1.58,-2.46 0.35,-5.46 -1.16,-7.68 -0.36,-0.53 -0.68,-1.11 -0.95,-1.72 -0.58,-1.27 -0.94,-2.66 -1.01,-3.87 -3.43,-5.02 -0.22,-9.99 2.76,-11.02z"/>
   </clipPath>
 </defs>
 <g id="Layer_x0020_1">
  <metadata id="CorelCorpID_0Corel-Layer"/>
  <circle class="fil0" cx="23.39" cy="23.39" r="23.39"/>
  <g id="_1351798160">
   <path class="fil1" d="M23.39 1.44c12.12,0 21.95,9.83 21.95,21.95 0,12.12 -9.83,21.95 -21.95,21.95 -12.12,0 -21.95,-9.83 -21.95,-21.95 0,-12.12 9.83,-21.95 21.95,-21.95z"/>
   <g style="clip-path:url(#id0)">
    <g>
     <g>
      <rect class="fil0" x="19.25" y="-14.19" width="0.35" height="38.3"/>
      <rect class="fil0" transform="matrix(0.965926 0.258819 -0.258819 0.965926 29.1577 -12.8901)" width="0.35" height="38.3"/>
      <rect class="fil0" transform="matrix(0.866025 0.5 -0.5 0.866025 38.3943 -9.06416)" width="0.35" height="38.3"/>
      <rect class="fil0" transform="matrix(0.707107 0.707107 -0.707107 0.707107 46.3258 -2.97805)" width="0.35" height="38.3"/>
      <rect class="fil0" transform="matrix(0.5 0.866025 -0.866025 0.5 52.4119 4.95353)" width="0.35" height="38.3"/>
      <rect class="fil0" transform="matrix(0.258819 0.965926 -0.965926 0.258819 56.2378 14.19)" width="0.35" height="38.3"/>
      <rect class="fil0" transform="matrix(2.63956E-14 1 -1 2.63956E-14 57.5428 24.1021)" width="0.35" height="38.3"/>
      <rect class="fil0" transform="matrix(-0.258819 0.965926 -0.965926 -0.258819 56.2378 34.0141)" width="0.35" height="38.3"/>
      <rect class="fil0" transform="matrix(-0.5 0.866025 -0.866025 -0.5 52.4119 43.2506)" width="0.35" height="38.3"/>
      <rect class="fil0" transform="matrix(-0.707107 0.707107 -0.707107 -0.707107 46.3258 51.1822)" width="0.35" height="38.3"/>
      <rect class="fil0" transform="matrix(-0.866025 0.5 -0.5 -0.866025 38.3943 57.2683)" width="0.35" height="38.3"/>
      <rect class="fil0" transform="matrix(-0.965926 0.258819 -0.258819 -0.965926 29.1577 61.0942)" width="0.35" height="38.3"/>
      <rect class="fil0" x="18.9" y="24.1" width="0.35" height="38.3"/>
      <rect class="fil0" transform="matrix(-0.965926 -0.258819 0.258819 -0.965926 9.33373 61.0942)" width="0.35" height="38.3"/>
      <rect class="fil0" transform="matrix(-0.866025 -0.5 0.5 -0.866025 0.0972075 57.2683)" width="0.35" height="38.3"/>
      <rect class="fil0" transform="matrix(-0.707107 -0.707107 0.707107 -0.707107 -7.83437 51.1822)" width="0.35" height="38.3"/>
      <rect class="fil0" transform="matrix(-0.5 -0.866025 0.866025 -0.5 -13.9205 43.2506)" width="0.35" height="38.3"/>
      <rect class="fil0" transform="matrix(-0.258819 -0.965926 0.965926 -0.258819 -17.7464 34.0141)" width="0.35" height="38.3"/>
      <rect class="fil0" transform="matrix(-7.91589E-14 -1 1 -7.91589E-14 -19.0513 24.1021)" width="0.35" height="38.3"/>
      <rect class="fil0" transform="matrix(0.258819 -0.965926 0.965926 0.258819 -17.7464 14.19)" width="0.35" height="38.3"/>
      <rect class="fil0" transform="matrix(0.5 -0.866025 0.866025 0.5 -13.9205 4.95353)" width="0.35" height="38.3"/>
      <rect class="fil0" transform="matrix(0.707107 -0.707107 0.707107 0.707107 -7.83437 -2.97805)" width="0.35" height="38.3"/>
      <rect class="fil0" transform="matrix(0.866025 -0.5 0.5 0.866025 0.0972075 -9.06416)" width="0.35" height="38.3"/>
      <rect class="fil0" transform="matrix(0.965926 -0.258819 0.258819 0.965926 9.33373 -12.8901)" width="0.35" height="38.3"/>
     </g>
    </g>
   </g>
   <path class="fil2" d="M23.39 1.44c12.12,0 21.95,9.83 21.95,21.95 0,12.12 -9.83,21.95 -21.95,21.95 -12.12,0 -21.95,-9.83 -21.95,-21.95 0,-12.12 9.83,-21.95 21.95,-21.95z"/>
  </g>
  <path class="fil0" d="M22.54 12.92c0.09,-0.12 0.19,-0.24 0.3,-0.35 1.39,-1.5 3.81,-2.19 5.66,-3 1.83,-0.81 3.44,-1.8 4.31,-3.7l0.43 -0.95 0.15 1.03c0.36,2.49 -0.73,4.29 -2.43,5.97 -0.81,0.79 -1.78,1.53 -2.48,2.4 1.05,-0.96 5.29,-3.42 6.44,-2.16 -1.59,0.7 -3.15,2.05 -3.79,3.7 1.15,-1.6 2.93,-2.3 4.48,-3.4 1.24,-0.87 2.1,-1.85 2.68,-3.26l0.49 -1.22 0.1 1.31c0.11,1.39 -0.02,2.66 -0.53,3.96 -0.63,1.59 -1.72,3.03 -2.62,4.48 1.83,-2.36 3.31,-2.82 5.89,-3.84 -1.95,1.54 -2.97,2.27 -4.19,4.61 1.86,-2.98 -0.39,7.4 -0.46,7.64 -0.55,1.78 -1.4,3.62 -2.99,4.69 -0.87,0.58 -1.85,0.86 -2.87,0.93 0.24,0.24 0.5,0.45 0.79,0.63l0.94 0.56 -1.09 0.01c-0.96,0.01 -1.8,-0.46 -2.43,-1.15 -0.06,0.07 -0.12,0.14 -0.18,0.2 0.56,1.35 1.54,2.42 2.87,3.06l0.24 0.12 -0.17 0.51 -0.26 -0.05c-1.6,-0.3 -2.92,-1.15 -3.83,-2.45 -0.76,0.68 -1.58,1.25 -2.47,1.74 0.03,-0.01 0.07,-0.01 0.1,-0.03l0.88 -0.36 -0.5 0.81c-0.59,0.96 -1.38,1.61 -2.48,1.32 -0.76,1.05 -1.76,2.05 -2.89,2.67l-1.44 0.79c0.42,-0.5 0.88,-1.01 1.27,-1.54 -1.16,1.02 -5.23,3.1 -6.45,2.96l0.16 -0.25c1.04,-1.63 0.76,-3.53 0.04,-5.2 -1.09,0.68 -1.83,-0.76 -2.33,-1.52l0.67 0.24 -0.01 -0.02c-1.16,-2.01 -1.87,-5.02 -2.04,-7.35 -1.03,-1.92 -1.29,-4.06 -0.59,-6.14 0.54,-1.6 1.66,-3.12 3.13,-3.99 0.33,-0.45 0.54,-0.85 0.7,-1.4 1,-3.33 3.13,-5.26 5.41,-7.69 -0.28,0.65 -2.21,5.01 -1.54,5.51 0.18,0.14 0.89,-3.58 10.24,-5.12 -0.91,0.58 -5.35,3.48 -5.31,4.29zm-9.39 21.83c0.08,-0.06 0.17,-0.13 0.25,-0.19 -0.13,-0.2 -0.25,-0.4 -0.38,-0.59 -0.02,-0.02 -0.04,-0.05 -0.06,-0.08 0.05,0.24 0.1,0.47 0.15,0.7l0.04 0.16z"/>
  <path class="fil3" d="M18.07 9.76c-0.47,1.1 -1.98,5.24 0.11,4.16 0.61,-2.12 2.69,-3.15 9.18,-5.19 -3.78,2.38 -6.14,4.01 -4.87,4.68 2.17,-3.33 8.39,-2.78 10.51,-7.39 0.79,5.45 -5.95,7.13 -5.5,9.92 1.05,-2 3.91,-3.38 6.95,-3.93 -2.2,0.96 -4.26,3.53 -3.91,5.54 1.4,-4.18 6.06,-3.58 7.94,-8.22 0.41,5.02 -2.62,6.11 -5.61,12.95 1.9,-2.12 2.93,-5.78 6.83,-7.32 -1.97,1.57 -2.76,3.76 -4.01,6.22 -1.02,2.01 -2.76,3.46 -3.76,1.98 -6.08,-9.02 -11.44,-11.63 -18.33,-6.25 1.63,-2.15 -0.69,-1.67 4.47,-7.15z"/>
  <g style="clip-path:url(#id1)">
   <g id="_1332908720">
    <path id="1" class="fil2 str0" d="M-9.45 16.42c2.55,1.56 4.76,2.12 6.87,2.01 6.7,-0.35 6.6,12.64 4.46,18.17"/>
    <path class="fil2 str0" d="M-9.44 14.23c2.86,-3.23 10.36,-0.75 15.62,-7.2"/>
    <path class="fil2 str0" d="M-15.51 27.74c-1.05,-4.63 -0.46,-7.39 1.36,-8.11 2.16,-0.86 4.32,-3.11 4.78,-3.94 3.02,1.48 5.54,2.05 7.78,2.78 5.89,0.54 6.08,12.07 4.23,17.48"/>
    <path class="fil2 str0" d="M-15.52 29.93c-2.66,-6.2 -0.85,-10.27 1.2,-11.26 2.1,-1 4.49,-2.15 4.95,-2.98 3.17,0.52 6.97,0.46 8.76,2.83 5.1,1.43 5.57,11.49 4.02,16.79"/>
    <path class="fil2 str0" d="M-16.51 29.62c-2.32,-4.64 -0.78,-11.08 3.33,-13.02 1.36,-0.64 2.05,-0.49 3.76,-1.13 9.26,-2.9 16.05,9.09 13.59,19.19"/>
    <path class="fil2 str0" d="M-17.84 18.62c1.84,-2.65 6.73,-3.98 8.44,-3.35 8.98,-4.31 16.09,9.56 14.33,18.75"/>
    <path class="fil2 str0" d="M-17.37 17.48c3.51,-3.27 6.6,-2.97 7.96,-2.5 10.03,-4.06 16.46,8.47 15.11,18.4"/>
    <path class="fil2 str0" d="M-16.3 14.52c2.78,-1.66 6.36,-1.76 6.93,0.21 5.94,-3.65 11.17,0.81 13.89,4.01"/>
    <path class="fil2 str1" d="M13.73 18.06c1.71,-2.07 0.54,-3.57 3.24,-6.39 -1.09,2.05 -0.42,3.64 0.19,5.26"/>
    <path class="fil2 str1" d="M17.88 16.37c1.07,-2.82 0.98,-4.65 7.12,-6.48 -3.77,2.25 -5.18,3.48 -5.8,7.02"/>
    <path class="fil2 str1" d="M20.7 17.18c3.2,-6.52 7.5,-4.57 11.81,-9.51 -1.55,4.25 -7.48,6.28 -8.64,11.55"/>
    <path class="fil2 str1" d="M25.59 19.7c1.74,-2.44 3.6,-5.61 6.37,-6.61 -1.98,1.61 -4.15,3.49 -4.59,8.21"/>
    <path class="fil2 str1" d="M28.6 22.81c4.49,-9.99 5.4,-6.68 9.34,-11.48 -2.5,6.15 -6.71,7.06 -8.46,14.01"/>
    <path class="fil2 str1" d="M30.31 27.32c2.4,-1.63 5.15,-8.35 6.85,-10.04 -2.13,3.89 -3.97,10.89 -6.85,12.03"/>
    <path class="fil2 str1" d="M22.38 18.3c0.95,-4.7 6.42,-6.31 10.13,-10.63"/>
    <path class="fil2 str1" d="M29.1 24.14c0.95,-4.7 5.08,-8.11 8.84,-12.81"/>
    <path class="fil2 str1" d="M27.84 22.97c1.59,-4.51 0.35,-5.18 4.12,-9.88"/>
   </g>
  </g>
  <path class="fil2" d="M18.07 9.76c-0.47,1.1 -1.98,5.24 0.11,4.16 0.61,-2.12 2.69,-3.15 9.18,-5.19 -3.78,2.38 -6.14,4.01 -4.87,4.68 2.17,-3.33 8.39,-2.78 10.51,-7.39 0.79,5.45 -5.95,7.13 -5.5,9.92 1.05,-2 3.91,-3.38 6.95,-3.93 -2.2,0.96 -4.26,3.53 -3.91,5.54 1.4,-4.18 6.06,-3.58 7.94,-8.22 0.41,5.02 -2.62,6.11 -5.61,12.95 1.9,-2.12 2.93,-5.78 6.83,-7.32 -1.97,1.57 -2.76,3.76 -4.01,6.22 -1.02,2.01 -2.76,3.46 -3.76,1.98 -6.08,-9.02 -11.44,-11.63 -18.33,-6.25 1.63,-2.15 -0.69,-1.67 4.47,-7.15z"/>
  <path class="fil3" d="M13.98 17.2c7.51,-7.21 14.32,1.38 17.87,6.31 1.73,2.41 4.56,-2.96 6.06,-5.3 -0.88,8.95 -2.4,14.02 -8.73,13.2 -1.5,1.84 -3.08,3 -5.28,3.95 -0.69,1.32 -1.98,2.89 -3.51,3.73 1.31,-1.56 0.86,-2.11 0.86,-2.11 -1.22,2.75 -6.41,3.75 -6.91,4.51 1.58,-2.46 0.35,-5.46 -1.16,-7.68 -0.36,-0.53 -0.68,-1.11 -0.95,-1.72 -0.58,-1.27 -0.94,-2.66 -1.01,-3.87 -3.43,-5.02 -0.22,-9.99 2.76,-11.02z"/>
  <g style="clip-path:url(#id2)">
   <g id="_1334219408">
    <path id="1" class="fil2 str0" d="M17.32 17.53c2.73,1.66 5.09,2.26 7.35,2.15 7.15,-0.38 7.05,13.51 4.76,19.42"/>
    <path class="fil2 str0" d="M17.33 15.19c3.05,-3.45 10.81,-1.49 12.64,0.05"/>
    <path class="fil2 str0" d="M10.84 29.63c-1.12,-4.95 -0.49,-7.9 1.45,-8.67 2.32,-0.91 4.63,-3.33 5.11,-4.21 3.24,1.58 5.93,2.19 8.32,2.97 6.3,0.58 6.62,10.27 6.62,15.04"/>
    <path class="fil2 str0" d="M10.83 31.97c-2.84,-6.62 -0.9,-10.98 1.28,-12.03 2.25,-1.08 4.81,-2.31 5.29,-3.19 3.4,0.55 7.46,0.49 9.37,3.02 6.1,2.51 5.01,10.73 8.85,11.99"/>
    <path class="fil2 str0" d="M9.77 31.64c-2.48,-4.96 -0.83,-11.85 3.56,-13.92 1.45,-0.68 2.2,-0.52 4.02,-1.21 14.78,0.61 13.23,13.53 19.98,11.5"/>
    <path class="fil2 str0" d="M8.35 19.88c1.97,-2.83 7.2,-4.25 9.02,-3.58 10.05,-4.37 15.72,16.93 20.3,7.21"/>
    <path class="fil2 str0" d="M8.86 18.67c3.75,-3.5 7.05,-3.18 8.51,-2.68 12.02,-4.98 13.65,19.18 21.34,3.13"/>
    <path class="fil2 str0" d="M10 15.5c2.97,-1.78 6.79,-1.89 7.4,0.22 6.36,-3.9 11.95,0.87 14.85,4.29"/>
   </g>
  </g>
  <path class="fil2" d="M13.98 17.2c7.51,-7.21 14.32,1.38 17.87,6.31 1.73,2.41 4.56,-2.96 6.06,-5.3 -0.88,8.95 -2.4,14.02 -8.73,13.2 -1.5,1.84 -3.08,3 -5.28,3.95 -0.69,1.32 -1.98,2.89 -3.51,3.73 1.31,-1.56 0.86,-2.11 0.86,-2.11 -1.22,2.75 -6.41,3.75 -6.91,4.51 1.58,-2.46 0.35,-5.46 -1.16,-7.68 -0.36,-0.53 -0.68,-1.11 -0.95,-1.72 -0.58,-1.27 -0.94,-2.66 -1.01,-3.87 -3.43,-5.02 -0.22,-9.99 2.76,-11.02z"/>
  <path class="fil4" d="M27.64 29.75c0,-0.06 1.8,-1.49 1.91,-2.1 0.1,-0.56 0.06,-1.05 0.05,-1.6 -0.03,-0.74 -0.37,-1.78 -1.24,-1.87 -0.37,-0.04 -0.71,0.13 -0.96,0.39 -0.42,0.43 -0.64,1.08 -0.75,1.66l-0.29 1.52 -0.15 -1.54c-0.31,-3.21 -0.43,-4.96 -3.59,-5.57 -2.21,0.65 -5,-2.25 -5.38,-3.2 -0.69,2.42 -1.66,2.65 -3.56,3.8 -0.62,0.37 -1.65,1.06 -1.93,2.54 -0.27,0.54 0.07,4.39 0.4,6.97 0.67,2.04 1.87,3.82 3.61,4.92 0.73,0.46 1.48,-0.55 1.47,-1.07 0.23,0.01 0.52,-0.05 0.79,-0.04 0.71,2.42 4.05,0.86 5.09,0.4 1.65,-0.72 3.02,-2.94 4.06,-4.21 0.38,-0.46 0.11,-0.52 0.47,-1z"/>
  <path class="fil5" d="M28.53 29.34c0.59,-0.41 0.89,-1 1.02,-1.69 0.1,-0.56 0.06,-1.05 0.05,-1.6 -0.03,-0.74 -0.37,-1.78 -1.24,-1.87 -0.37,-0.04 -0.71,0.13 -0.96,0.39 -0.71,0.73 -0.32,0.99 -0.51,1.97 -0.27,-2.88 -0.14,-6.2 -4.27,-5.9 -1.83,0.14 -4.33,-1.48 -5.38,-3.2 -0.55,3.48 -0.67,6.26 -0.17,10.25 -0.15,1.88 -0.96,3.53 -1.1,4.08 0.4,0.13 0.94,0.15 1.24,0.08 0.11,1.42 0.06,1.41 0.29,2.74 0.04,0 0.36,-0.04 0.52,-0.03 0.67,2.33 3.7,1.01 5.09,0.4 1.49,-0.65 3.75,-3.55 4.4,-4.77 0.64,-0.65 0.13,-0.34 0.35,-0.89 0.22,-0.59 0.64,0.07 0.67,0.04z"/>
  <path class="fil6" d="M17.31 33.23c0.43,-0.23 1.82,1.09 1.99,1.15 -0.11,0 -2.06,-0.8 -3.27,0.15 0.13,-0.08 0.78,-1.45 1.28,-1.3z"/>
  <path class="fil0" d="M28.43 24.57c0.46,-0.05 0.88,0.59 0.94,1.42 0.05,0.64 -0.13,1.21 -0.42,1.46 0.15,-0.29 0.23,-0.71 0.2,-1.15 -0.06,-0.84 -0.48,-1.48 -0.94,-1.43 -0.11,0.01 -0.21,0.06 -0.3,0.14 0.13,-0.26 0.31,-0.42 0.52,-0.44z"/>
  <path class="fil0" d="M27.95 26.76c0.24,0 0.59,0.24 0.57,0.54 -0.01,0.22 -0.18,0.42 -0.41,0.5 0.13,-0.1 0.22,-0.24 0.23,-0.4 0.01,-0.3 -0.37,-0.54 -0.58,-0.54 -0.2,0 -0.36,-0.38 -0.17,-0.66 -0.05,0.25 0.11,0.56 0.36,0.56z"/>
  <path class="fil0" d="M23.94 20.88c-0.2,-0.02 -4.77,0.1 -6.7,-3.44 0.99,0.96 3.43,2.69 6.76,2.78 2.88,0.08 4.61,1.84 4.7,3.03 0.08,1.1 0.33,2.56 0.41,4.42 0.07,1.46 0.55,3.79 2.54,5 -0.63,0 -2.49,-0.24 -3.42,-3.45 -0.06,2.3 1,4.92 3.55,6.15 -3.03,-0.58 -4.63,-3.13 -4.84,-5.89 -0.17,-2.27 -0.39,-4.5 -0.52,-6.26 -0.13,-1.79 -1.88,-2.27 -2.48,-2.34z"/>
  <path class="fil0" d="M17.63 32.48c1.52,-1.71 6.26,3.46 8.01,2.74 -2.38,3.86 -4.99,-2.51 -8.01,-2.74z"/>
  <path class="fil0" d="M16.87 32.49c-1.03,-1.13 -3.24,3.1 -4.31,2.72 1.73,2.65 2.61,-2.29 4.31,-2.72z"/>
  <path class="fil0" d="M13.5 21.66c0.13,-0.05 3.11,-1.21 3.74,-4.22 -0.57,0.89 -2.17,2.65 -4.26,3.61 -3.79,1.76 -2.19,10.3 -0.26,13.62 -0.71,-3.13 -1,-6.72 -0.98,-9.86 -0.11,-1.49 0.78,-2.82 1.76,-3.15z"/>
  <path class="fil0" d="M23.99 25.93c-0.14,-0.29 -0.14,-0.46 -0.32,-0.54 0.12,-0.1 0.25,-0.45 0.25,-0.82 -0.13,0.23 -0.75,0.71 -0.85,0.69 0.37,-0.31 0.29,-0.65 0.33,-0.95 -0.16,0.48 -0.77,0.9 -0.81,0.9 0.18,-0.17 0.02,-0.55 -0.03,-0.55 -0.09,0.38 -0.79,0.74 -0.85,0.74 -0.6,0.04 -3.57,0.81 -4.14,3.15 1.19,-2.28 5.12,-3.07 6.42,-2.62z"/>
  <path class="fil0" d="M12.75 26.61c0.11,-0.32 0.12,-0.49 0.23,-0.6 -0.06,-0.09 -0.12,-0.43 -0.09,-0.81 0.06,0.22 0.41,0.63 0.47,0.6 -0.2,-0.27 -0.13,-0.63 -0.13,-0.94 0.06,0.48 0.4,0.82 0.43,0.82 -0.1,-0.15 0.02,-0.57 0.05,-0.57 0.03,0.38 0.43,0.66 0.46,0.66 0.37,-0.04 2.12,0.37 2.3,2.71 -0.56,-2.2 -2.9,-2.51 -3.72,-1.87z"/>
  <g id="_710917192">
   <path class="fil2 str2" d="M18.33 28.89c-0.02,-0.03 1.17,-0.7 0.62,-1.39"/>
   <path class="fil2 str2" d="M19.36 28.77c0.38,-1.45 1.41,-0.61 1.72,-1.61"/>
   <path class="fil2 str2" d="M20.49 27.7c0.17,-0.05 0.35,0.06 0.44,0.26"/>
   <path class="fil2 str2" d="M18.27 29.8c0.18,0.36 -0.06,0.34 -0.19,0.62"/>
   <path class="fil2 str2" d="M19.45 29.61c0.36,0.15 -0.09,0.76 0.6,0.9"/>
   <path class="fil2 str2" d="M20.67 29.22c0.64,0.73 0.94,-0.17 1.4,0.53"/>
   <path class="fil2 str2" d="M21.61 28.24c0.68,-0.45 1.05,-0.04 1.79,-0.29 0.51,-0.17 1.06,-0.47 1.27,-1.01 0.01,-0.02 0.01,-0.03 0.01,-0.06"/>
   <path class="fil2 str2" d="M22.52 28.66c0.39,-0.21 -0.36,-0.59 0.07,-0.65 0.23,-0.04 0.31,-0.31 0.38,-0.51"/>
   <path class="fil2 str2" d="M23.62 27.87c0.23,0.12 -0.02,0.3 0.35,0.42"/>
   <path class="fil2 str2" d="M19.56 30.24c-0.17,0.03 -0.37,0.04 -0.41,0.25"/>
  </g>
  <g>
   <path class="fil7" d="M21.52 28.2l0.14 0.13 -0.18 0.09 -0.18 0.07 -0.17 0.07 -0.18 0.06 -0.18 0.05 -0.18 0.04 -0.17 0.04 -0.17 0.03 -0.17 0.02 -0.17 0.02 -0.17 0.02 -0.16 0.01 -0.15 0.01 -0.16 0.02 -0.14 0.01 -0.15 0.01 -0.13 0.01 -0.13 0.01 -0.13 0.02 -0.12 0.02 -0.11 0.02 -0.1 0.03 -0.09 0.03 -0.08 0.04 -0.08 0.04 -0.06 0.05 -0.06 0.05 -0.05 0.07 -0.04 0.07 -0.03 0.08 -0.02 0.09 -0.02 0.11 -0.2 -0.01 0.02 -0.13 0.03 -0.12 0.04 -0.11 0.06 -0.1 0.06 -0.08 0.08 -0.08 0.08 -0.06 0.1 -0.05 0.1 -0.05 0.1 -0.04 0.12 -0.03 0.12 -0.02 0.12 -0.02 0.13 -0.02 0.14 -0.01 0.14 -0.01 0.14 -0.02 0.15 -0.01 0.15 -0.01 0.16 -0.01 0.15 -0.01 0.17 -0.02 0.16 -0.02 0.17 -0.02 0.16 -0.03 0.17 -0.04 0.17 -0.04 0.17 -0.05 0.17 -0.05 0.17 -0.06 0.17 -0.08 0.17 -0.08 0.14 0.13 -0.19 -0.08zm0.14 0.13l-0.09 -0.18c0.05,-0.03 0.11,-0.01 0.13,0.04 0.03,0.05 0.01,0.11 -0.04,0.14zm-3.93 1.31l0 0 0 -0.01 0 0 0.02 0.01 0.05 0.02 0.06 0.01 0.09 0.02 0.09 0 0.12 0.01 0.12 -0.01 0.13 0 0.14 -0.02 0.16 -0.01 0.15 -0.03 0.16 -0.03 0.17 -0.03 0.17 -0.04 0.17 -0.04 0.17 -0.05 0.18 -0.06 0.17 -0.06 0.16 -0.06 0.16 -0.07 0.16 -0.08 0.15 -0.08 0.15 -0.09 0.13 -0.09 0.13 -0.1 0.11 -0.1 0.1 -0.11 0.09 -0.11 0.07 -0.11 0.06 -0.12 0.19 0.08 -0.07 0.14 -0.09 0.13 -0.1 0.13 -0.11 0.12 -0.13 0.11 -0.13 0.1 -0.14 0.1 -0.16 0.09 -0.16 0.09 -0.16 0.08 -0.17 0.07 -0.17 0.07 -0.18 0.06 -0.18 0.06 -0.17 0.05 -0.18 0.05 -0.18 0.04 -0.17 0.03 -0.17 0.03 -0.16 0.03 -0.15 0.01 -0.15 0.02 -0.14 0.01 -0.13 0 -0.12 0 -0.11 -0.01 -0.1 -0.02 -0.09 -0.02 -0.07 -0.03 -0.07 -0.04 -0.05 -0.07 -0.02 -0.08 0 0 0.2 0.01z"/>
   <path id="1" class="fil8" d="M17.63 29.64c0.11,-1.35 2.14,-0.43 3.98,-1.4 -0.6,1.42 -4.01,1.82 -3.98,1.4z"/>
  </g>
  <g>
   <path class="fil2 str2" d="M15.72 28.81c0.01,-0.02 -0.92,-0.68 -0.49,-1.38"/>
   <path class="fil2 str2" d="M14.91 28.71c-0.29,-1.44 -1.1,-0.59 -1.34,-1.59"/>
   <path class="fil2 str2" d="M14.03 27.66c-0.13,-0.05 -0.27,0.06 -0.35,0.26"/>
   <path class="fil2 str2" d="M15.76 29.72c-0.14,0.37 0.05,0.34 0.15,0.62"/>
   <path class="fil2 str2" d="M14.84 29.55c-0.28,0.15 0.07,0.75 -0.47,0.91"/>
   <path class="fil2 str2" d="M13.89 29.18c-0.5,0.74 -0.74,-0.17 -1.09,0.55"/>
   <path class="fil2 str2" d="M13.15 28.21c-0.31,-0.31 -0.5,-0.11 -0.72,-0.23"/>
   <path class="fil2 str3" d="M12.33 28.34c0.15,-0.04 0.3,-0.09 0.23,-0.32 -0.21,-0.01 -0.36,-0.21 -0.4,-0.45"/>
   <path class="fil2 str2" d="M14.75 30.19c0.14,0.02 0.29,0.03 0.32,0.23"/>
  </g>
  <g>
   <path class="fil7" d="M13.23 28.17l-0.15 0.08 0.11 -0.13 0.13 0.08 0.13 0.07 0.14 0.06 0.13 0.05 0.13 0.05 0.13 0.04 0.13 0.03 0.13 0.03 0.13 0.02 0.13 0.02 0.13 0.01 0.12 0.01 0.12 0.01 0.12 0.01 0.12 0.01 0.11 0.01 0.11 0.01 0.1 0.01 0.1 0.02 0.1 0.01 0.09 0.03 0.09 0.03 0.09 0.03 0.07 0.05 0.08 0.05 0.06 0.06 0.06 0.07 0.06 0.09 0.04 0.09 0.03 0.11 0.02 0.12 0.02 0.13 -0.16 0.02 -0.01 -0.11 -0.02 -0.09 -0.02 -0.09 -0.04 -0.07 -0.03 -0.06 -0.05 -0.05 -0.05 -0.05 -0.06 -0.04 -0.06 -0.04 -0.07 -0.03 -0.08 -0.02 -0.09 -0.03 -0.09 -0.01 -0.1 -0.02 -0.1 -0.01 -0.1 -0.01 -0.12 -0.01 -0.11 -0.01 -0.12 -0.01 -0.12 -0.01 -0.13 -0.01 -0.13 -0.01 -0.13 -0.02 -0.13 -0.02 -0.14 -0.03 -0.13 -0.03 -0.14 -0.04 -0.14 -0.05 -0.14 -0.06 -0.14 -0.06 -0.14 -0.08 -0.13 -0.08 0.11 -0.13zm-0.11 0.13c-0.04,-0.03 -0.06,-0.09 -0.04,-0.14 0.02,-0.05 0.07,-0.07 0.11,-0.04l-0.07 0.18zm3.06 1.26l0.16 -0.02 0 0 -0.01 0.09 -0.04 0.07 -0.06 0.04 -0.06 0.03 -0.06 0.02 -0.08 0.02 -0.09 0.01 -0.09 0 -0.1 0 -0.11 -0.01 -0.12 -0.01 -0.12 -0.01 -0.13 -0.03 -0.13 -0.02 -0.13 -0.04 -0.14 -0.03 -0.13 -0.05 -0.14 -0.05 -0.14 -0.05 -0.14 -0.06 -0.13 -0.07 -0.14 -0.07 -0.12 -0.08 -0.13 -0.08 -0.12 -0.09 -0.11 -0.1 -0.11 -0.1 -0.09 -0.11 -0.09 -0.12 -0.08 -0.12 -0.06 -0.13 -0.06 -0.14 0.15 -0.08 0.04 0.12 0.06 0.11 0.07 0.11 0.08 0.1 0.09 0.1 0.09 0.1 0.11 0.09 0.11 0.08 0.12 0.08 0.12 0.08 0.13 0.07 0.13 0.06 0.13 0.06 0.13 0.05 0.14 0.05 0.13 0.04 0.13 0.04 0.13 0.03 0.13 0.02 0.12 0.02 0.12 0.02 0.11 0.01 0.11 0.01 0.09 0 0.09 -0.01 0.07 0 0.07 -0.02 0.05 -0.01 0.04 -0.02 0.01 -0.01 0 0 0 0.01 0 0z"/>
   <path id="1" class="fil8" d="M16.26 29.55c-0.09,-1.34 -1.67,-0.4 -3.11,-1.34 0.47,1.41 3.14,1.77 3.11,1.34z"/>
  </g>
  <g>
   <path class="fil2 str4" d="M16.84 21.22c0.41,0.79 0.76,2 0.86,2.86 -0.57,-0.1 -1.2,0.02 -1.76,0.11 0.08,-0.91 0.45,-2.11 0.9,-2.97z"/>
   <path id="1" class="fil8" d="M16.84 21.22c0.41,0.79 0.76,2 0.86,2.86 -0.57,-0.1 -1.2,0.02 -1.76,0.11 0.08,-0.91 0.45,-2.11 0.9,-2.97z"/>
  </g>
 </g>
</svg>
