<?xml version="1.0" encoding="UTF-8"?>
<!DOCTYPE svg PUBLIC "-//W3C//DTD SVG 1.0//EN" "http://www.w3.org/TR/2001/REC-SVG-20010904/DTD/svg10.dtd">
<!-- Creator: CorelDRAW 2019 -->
<svg xmlns="http://www.w3.org/2000/svg" xml:space="preserve" width="1000px" height="1000px" version="1.0" style="shape-rendering:geometricPrecision; text-rendering:geometricPrecision; image-rendering:optimizeQuality; fill-rule:evenodd; clip-rule:evenodd"
viewBox="0 0 53.92 53.92"
 xmlns:xlink="http://www.w3.org/1999/xlink"
 xmlns:xodm="http://www.corel.com/coreldraw/odm/2003">
 <defs>
  <style type="text/css">
   <![CDATA[
    .str1 {stroke:black;stroke-width:0.27;stroke-linecap:round;stroke-linejoin:round;stroke-miterlimit:2.61313}
    .str0 {stroke:black;stroke-width:0.27;stroke-linecap:round;stroke-linejoin:round;stroke-miterlimit:2.61313}
    .str2 {stroke:#6B95FF;stroke-width:0.27;stroke-linecap:round;stroke-linejoin:round;stroke-miterlimit:2.61313}
    .fil2 {fill:none}
    .fil0 {fill:black}
    .fil1 {fill:#033BF5}
    .fil3 {fill:#1A1A1A}
    .fil4 {fill:#F7B183}
    .fil5 {fill:#FCCAA9}
    .fil6 {fill:#1A1A1A;fill-rule:nonzero}
   ]]>
  </style>
    <clipPath id="id0">
     <path d="M26.96 1.66c13.97,0 25.3,11.33 25.3,25.3 0,13.97 -11.33,25.3 -25.3,25.3 -13.97,0 -25.3,-11.33 -25.3,-25.3 0,-13.97 11.33,-25.3 25.3,-25.3z"/>
    </clipPath>
   <clipPath id="id1">
    <path d="M20.83 11.25c-0.55,1.27 -2.29,6.03 0.12,4.8 0.71,-2.44 3.1,-3.63 10.58,-5.98 -4.35,2.74 -7.07,4.61 -5.6,5.39 2.49,-3.84 9.67,-3.21 12.11,-8.53 0.91,6.29 -6.86,8.23 -6.34,11.45 1.2,-2.31 4.51,-3.9 8.01,-4.54 -2.53,1.11 -4.91,4.07 -4.51,6.39 1.61,-4.82 6.99,-4.13 9.16,-9.48 0.46,5.79 -3.02,7.05 -6.47,14.93 2.19,-2.44 3.37,-6.66 7.88,-8.43 -2.28,1.8 -3.19,4.32 -4.63,7.16 -1.18,2.32 -3.18,4 -4.33,2.29 -7.01,-10.4 -13.19,-13.4 -21.13,-7.21 1.88,-2.48 -0.79,-1.92 5.15,-8.24z"/>
   </clipPath>
   <clipPath id="id2">
    <path d="M16.12 19.83c8.65,-8.31 16.5,1.58 20.59,7.27 2,2.77 5.26,-3.42 6.98,-6.11 -1,10.32 -2.76,16.16 -10.06,15.21 -1.72,2.12 -3.55,3.46 -6.09,4.56 -0.78,1.51 -2.27,3.33 -4.03,4.3 1.5,-1.8 0.99,-2.44 0.99,-2.44 -1.41,3.18 -7.39,4.33 -7.97,5.2 1.82,-2.83 0.4,-6.29 -1.34,-8.84 -0.41,-0.62 -0.78,-1.29 -1.1,-1.99 -0.66,-1.47 -1.08,-3.06 -1.15,-4.47 -3.97,-5.78 -0.27,-11.5 3.18,-12.69z"/>
   </clipPath>
 </defs>
 <g id="Layer_x0020_1">
  <metadata id="CorelCorpID_0Corel-Layer"/>
  <circle class="fil0" cx="26.96" cy="26.96" r="26.96"/>
  <g id="_1049642592">
   <path class="fil1" d="M26.96 1.66c13.97,0 25.3,11.33 25.3,25.3 0,13.97 -11.33,25.3 -25.3,25.3 -13.97,0 -25.3,-11.33 -25.3,-25.3 0,-13.97 11.33,-25.3 25.3,-25.3z"/>
   <g style="clip-path:url(#id0)">
    <g>
     <g>
      <rect class="fil0" x="22.18" y="-16.36" width="0.4" height="44.14"/>
      <rect class="fil0" transform="matrix(0.965926 0.258819 -0.258819 0.965926 33.6092 -14.8579)" width="0.4" height="44.14"/>
      <rect class="fil0" transform="matrix(0.866025 0.5 -0.5 0.866025 44.2558 -10.448)" width="0.4" height="44.14"/>
      <rect class="fil0" transform="matrix(0.707107 0.707107 -0.707107 0.707107 53.3983 -3.4327)" width="0.4" height="44.14"/>
      <rect class="fil0" transform="matrix(0.5 0.866025 -0.866025 0.5 60.4135 5.70977)" width="0.4" height="44.14"/>
      <rect class="fil0" transform="matrix(0.258819 0.965926 -0.965926 0.258819 64.8235 16.3564)" width="0.4" height="44.14"/>
      <rect class="fil0" transform="matrix(2.63956E-14 1 -1 2.63956E-14 66.3277 27.7816)" width="0.4" height="44.14"/>
      <rect class="fil0" transform="matrix(-0.258819 0.965926 -0.965926 -0.258819 64.8235 39.2069)" width="0.4" height="44.14"/>
      <rect class="fil0" transform="matrix(-0.5 0.866025 -0.866025 -0.5 60.4135 49.8535)" width="0.4" height="44.14"/>
      <rect class="fil0" transform="matrix(-0.707107 0.707107 -0.707107 -0.707107 53.3983 58.996)" width="0.4" height="44.14"/>
      <rect class="fil0" transform="matrix(-0.866025 0.5 -0.5 -0.866025 44.2558 66.0112)" width="0.4" height="44.14"/>
      <rect class="fil0" transform="matrix(-0.965926 0.258819 -0.258819 -0.965926 33.6092 70.4212)" width="0.4" height="44.14"/>
      <rect class="fil0" x="21.79" y="27.78" width="0.4" height="44.14"/>
      <rect class="fil0" transform="matrix(-0.965926 -0.258819 0.258819 -0.965926 10.7587 70.4212)" width="0.4" height="44.14"/>
      <rect class="fil0" transform="matrix(-0.866025 -0.5 0.5 -0.866025 0.112048 66.0112)" width="0.4" height="44.14"/>
      <rect class="fil0" transform="matrix(-0.707107 -0.707107 0.707107 -0.707107 -9.03042 58.996)" width="0.4" height="44.14"/>
      <rect class="fil0" transform="matrix(-0.5 -0.866025 0.866025 -0.5 -16.0457 49.8535)" width="0.4" height="44.14"/>
      <rect class="fil0" transform="matrix(-0.258819 -0.965926 0.965926 -0.258819 -20.4557 39.2069)" width="0.4" height="44.14"/>
      <rect class="fil0" transform="matrix(-7.91589E-14 -1 1 -7.91589E-14 -21.9598 27.7816)" width="0.4" height="44.14"/>
      <rect class="fil0" transform="matrix(0.258819 -0.965926 0.965926 0.258819 -20.4557 16.3564)" width="0.4" height="44.14"/>
      <rect class="fil0" transform="matrix(0.5 -0.866025 0.866025 0.5 -16.0457 5.70977)" width="0.4" height="44.14"/>
      <rect class="fil0" transform="matrix(0.707107 -0.707107 0.707107 0.707107 -9.03042 -3.4327)" width="0.4" height="44.14"/>
      <rect class="fil0" transform="matrix(0.866025 -0.5 0.5 0.866025 0.112048 -10.448)" width="0.4" height="44.14"/>
      <rect class="fil0" transform="matrix(0.965926 -0.258819 0.258819 0.965926 10.7587 -14.8579)" width="0.4" height="44.14"/>
     </g>
    </g>
   </g>
   <path class="fil2" d="M26.96 1.66c13.97,0 25.3,11.33 25.3,25.3 0,13.97 -11.33,25.3 -25.3,25.3 -13.97,0 -25.3,-11.33 -25.3,-25.3 0,-13.97 11.33,-25.3 25.3,-25.3z"/>
  </g>
  <path class="fil0" d="M25.98 14.89c0.11,-0.14 0.22,-0.27 0.34,-0.4 1.61,-1.73 4.4,-2.52 6.53,-3.46 2.11,-0.93 3.96,-2.08 4.96,-4.27l0.51 -1.09 0.17 1.19c0.42,2.87 -0.84,4.94 -2.81,6.88 -0.92,0.91 -2.04,1.76 -2.85,2.76 1.2,-1.1 6.1,-3.94 7.42,-2.48 -1.84,0.8 -3.63,2.36 -4.36,4.26 1.32,-1.84 3.37,-2.65 5.16,-3.91 1.43,-1.01 2.42,-2.14 3.08,-3.77l0.57 -1.4 0.12 1.5c0.13,1.61 -0.02,3.08 -0.62,4.58 -0.72,1.82 -1.98,3.49 -3.02,5.16 2.11,-2.72 3.82,-3.25 6.79,-4.43 -2.24,1.78 -3.42,2.61 -4.82,5.32 2.14,-3.44 -0.46,8.53 -0.54,8.8 -0.63,2.05 -1.61,4.17 -3.44,5.4 -1,0.68 -2.13,1 -3.31,1.08 0.27,0.28 0.58,0.52 0.91,0.72l1.08 0.65 -1.26 0.01c-1.1,0.01 -2.07,-0.52 -2.8,-1.32 -0.06,0.08 -0.13,0.15 -0.2,0.23 0.65,1.55 1.77,2.79 3.3,3.53l0.29 0.13 -0.2 0.6 -0.31 -0.06c-1.83,-0.35 -3.36,-1.33 -4.41,-2.84 -0.87,0.8 -1.82,1.45 -2.84,2.02 0.04,-0.01 0.07,-0.02 0.11,-0.04l1.01 -0.42 -0.57 0.94c-0.68,1.1 -1.6,1.86 -2.86,1.52 -0.87,1.21 -2.03,2.36 -3.33,3.07l-1.66 0.92c0.48,-0.58 1.02,-1.17 1.46,-1.77 -1.34,1.17 -6.03,3.57 -7.44,3.41l0.19 -0.3c1.2,-1.87 0.88,-4.06 0.04,-5.99 -1.25,0.78 -2.1,-0.88 -2.67,-1.75l0.77 0.28 -0.01 -0.03c-1.35,-2.31 -2.17,-5.78 -2.36,-8.47 -1.18,-2.22 -1.48,-4.68 -0.68,-7.08 0.63,-1.84 1.92,-3.59 3.61,-4.59 0.38,-0.52 0.62,-0.98 0.81,-1.61 1.15,-3.85 3.6,-6.07 6.23,-8.87 -0.32,0.75 -2.55,5.77 -1.78,6.35 0.21,0.16 1.03,-4.13 11.81,-5.9 -1.05,0.66 -6.16,4.01 -6.12,4.94zm-10.83 25.17c0.11,-0.07 0.21,-0.15 0.29,-0.22 -0.14,-0.23 -0.29,-0.46 -0.44,-0.68 -0.02,-0.03 -0.04,-0.06 -0.06,-0.09 0.06,0.27 0.11,0.53 0.17,0.8l0.04 0.19z"/>
  <path class="fil3" d="M20.83 11.25c-0.55,1.27 -2.29,6.03 0.12,4.8 0.71,-2.44 3.1,-3.63 10.58,-5.98 -4.35,2.74 -7.07,4.61 -5.6,5.39 2.49,-3.84 9.67,-3.21 12.11,-8.53 0.91,6.29 -6.86,8.23 -6.34,11.45 1.2,-2.31 4.51,-3.9 8.01,-4.54 -2.53,1.11 -4.91,4.07 -4.51,6.39 1.61,-4.82 6.99,-4.13 9.16,-9.48 0.46,5.79 -3.02,7.05 -6.47,14.93 2.19,-2.44 3.37,-6.66 7.88,-8.43 -2.28,1.8 -3.19,4.32 -4.63,7.16 -1.18,2.32 -3.18,4 -4.33,2.29 -7.01,-10.4 -13.19,-13.4 -21.13,-7.21 1.88,-2.48 -0.79,-1.92 5.15,-8.24z"/>
  <g style="clip-path:url(#id1)">
   <g id="_1048392352">
    <path id="1" class="fil2 str0" d="M-10.89 18.93c2.94,1.79 5.48,2.44 7.92,2.31 7.71,-0.4 7.61,14.58 5.14,20.95"/>
    <path class="fil2 str0" d="M-10.88 16.4c3.29,-3.72 11.95,-0.87 18,-8.3"/>
    <path class="fil2 str0" d="M-17.88 31.98c-1.21,-5.35 -0.53,-8.53 1.57,-9.35 2.49,-0.99 4.98,-3.59 5.51,-4.55 3.48,1.71 6.39,2.37 8.96,3.21 6.8,0.63 7.02,13.91 4.89,20.15"/>
    <path class="fil2 str0" d="M-17.89 34.5c-3.07,-7.14 -0.98,-11.84 1.38,-12.97 2.42,-1.17 5.18,-2.49 5.71,-3.45 3.66,0.6 8.04,0.54 10.1,3.26 5.88,1.65 6.42,13.25 4.63,19.36"/>
    <path class="fil2 str0" d="M-19.03 34.14c-2.68,-5.34 -0.9,-12.77 3.84,-15 1.56,-0.74 2.36,-0.57 4.33,-1.31 10.67,-3.34 18.5,10.48 15.67,22.13"/>
    <path class="fil2 str0" d="M-20.57 21.47c2.12,-3.06 7.76,-4.59 9.74,-3.87 10.35,-4.97 18.54,11.02 16.52,21.61"/>
    <path class="fil2 str0" d="M-20.02 20.15c4.04,-3.77 7.61,-3.42 9.18,-2.88 11.55,-4.68 18.97,9.76 17.41,21.2"/>
    <path class="fil2 str0" d="M-18.79 16.74c3.2,-1.92 7.33,-2.04 7.99,0.24 6.85,-4.21 12.88,0.94 16.01,4.62"/>
    <path class="fil2 str1" d="M15.83 20.82c1.97,-2.39 0.62,-4.12 3.73,-7.37 -1.26,2.37 -0.48,4.19 0.22,6.07"/>
    <path class="fil2 str1" d="M20.61 18.87c1.23,-3.25 1.13,-5.36 8.21,-7.47 -4.35,2.59 -5.97,4.01 -6.69,8.09"/>
    <path class="fil2 str1" d="M23.86 19.8c3.68,-7.51 8.64,-5.26 13.62,-10.96 -1.8,4.9 -8.63,7.23 -9.97,13.31"/>
    <path class="fil2 str1" d="M29.49 22.71c2.02,-2.82 4.15,-6.47 7.35,-7.62 -2.29,1.86 -4.79,4.02 -5.29,9.47"/>
    <path class="fil2 str1" d="M32.97 26.29c5.17,-11.51 6.22,-7.7 10.77,-13.23 -2.89,7.09 -7.74,8.14 -9.75,16.15"/>
    <path class="fil2 str1" d="M34.94 31.5c2.76,-1.89 5.93,-9.63 7.89,-11.58 -2.46,4.48 -4.57,12.55 -7.89,13.87"/>
    <path class="fil2 str1" d="M25.79 21.1c1.1,-5.42 7.4,-7.28 11.69,-12.26"/>
    <path class="fil2 str1" d="M33.54 27.83c1.1,-5.43 5.85,-9.35 10.2,-14.77"/>
    <path class="fil2 str1" d="M32.09 26.48c1.84,-5.21 0.4,-5.98 4.75,-11.39"/>
   </g>
  </g>
  <path class="fil2" d="M20.83 11.25c-0.55,1.27 -2.29,6.03 0.12,4.8 0.71,-2.44 3.1,-3.63 10.58,-5.98 -4.35,2.74 -7.07,4.61 -5.6,5.39 2.49,-3.84 9.67,-3.21 12.11,-8.53 0.91,6.29 -6.86,8.23 -6.34,11.45 1.2,-2.31 4.51,-3.9 8.01,-4.54 -2.53,1.11 -4.91,4.07 -4.51,6.39 1.61,-4.82 6.99,-4.13 9.16,-9.48 0.46,5.79 -3.02,7.05 -6.47,14.93 2.19,-2.44 3.37,-6.66 7.88,-8.43 -2.28,1.8 -3.19,4.32 -4.63,7.16 -1.18,2.32 -3.18,4 -4.33,2.29 -7.01,-10.4 -13.19,-13.4 -21.13,-7.21 1.88,-2.48 -0.79,-1.92 5.15,-8.24z"/>
  <path class="fil3" d="M16.12 19.83c8.65,-8.31 16.5,1.58 20.59,7.27 2,2.77 5.26,-3.42 6.98,-6.11 -1,10.32 -2.76,16.16 -10.06,15.21 -1.72,2.12 -3.55,3.46 -6.09,4.56 -0.78,1.51 -2.27,3.33 -4.03,4.3 1.5,-1.8 0.99,-2.44 0.99,-2.44 -1.41,3.18 -7.39,4.33 -7.97,5.2 1.82,-2.83 0.4,-6.29 -1.34,-8.84 -0.41,-0.62 -0.78,-1.29 -1.1,-1.99 -0.66,-1.47 -1.08,-3.06 -1.15,-4.47 -3.97,-5.78 -0.27,-11.5 3.18,-12.69z"/>
  <g style="clip-path:url(#id2)">
   <g id="_1048371856">
    <path id="1" class="fil2 str0" d="M19.97 20.21c3.14,1.91 5.86,2.6 8.46,2.47 8.25,-0.43 8.13,15.58 5.49,22.39"/>
    <path class="fil2 str0" d="M19.98 17.5c3.52,-3.97 12.45,-1.71 14.56,0.07"/>
    <path class="fil2 str0" d="M12.49 34.16c-1.28,-5.72 -0.56,-9.12 1.68,-10 2.67,-1.05 5.33,-3.83 5.89,-4.86 3.73,1.83 6.83,2.53 9.58,3.43 7.27,0.67 7.64,11.84 7.64,17.33"/>
    <path class="fil2 str0" d="M12.49 36.85c-3.28,-7.64 -1.05,-12.66 1.47,-13.87 2.59,-1.24 5.54,-2.65 6.1,-3.68 3.91,0.64 8.6,0.57 10.79,3.49 7.04,2.89 5.78,12.36 10.21,13.82"/>
    <path class="fil2 str0" d="M11.26 36.47c-2.85,-5.72 -0.95,-13.66 4.11,-16.04 1.67,-0.79 2.53,-0.61 4.63,-1.4 17.03,0.7 15.25,15.59 23.03,13.26"/>
    <path class="fil2 str0" d="M9.63 22.92c2.26,-3.27 8.29,-4.9 10.4,-4.13 11.58,-5.03 18.11,19.51 23.39,8.31"/>
    <path class="fil2 str0" d="M10.21 21.52c4.32,-4.04 8.13,-3.66 9.81,-3.08 13.85,-5.75 15.73,22.1 24.6,3.59"/>
    <path class="fil2 str0" d="M11.53 17.86c3.41,-2.04 7.83,-2.17 8.53,0.26 7.33,-4.5 13.77,1.01 17.11,4.94"/>
   </g>
  </g>
  <path class="fil2" d="M16.12 19.83c8.65,-8.31 16.5,1.58 20.59,7.27 2,2.77 5.26,-3.42 6.98,-6.11 -1,10.32 -2.76,16.16 -10.06,15.21 -1.72,2.12 -3.55,3.46 -6.09,4.56 -0.78,1.51 -2.27,3.33 -4.03,4.3 1.5,-1.8 0.99,-2.44 0.99,-2.44 -1.41,3.18 -7.39,4.33 -7.97,5.2 1.82,-2.83 0.4,-6.29 -1.34,-8.84 -0.41,-0.62 -0.78,-1.29 -1.1,-1.99 -0.66,-1.47 -1.08,-3.06 -1.15,-4.47 -3.97,-5.78 -0.27,-11.5 3.18,-12.69z"/>
  <path class="fil4" d="M31.87 34.29c-0.01,-0.07 2.06,-1.72 2.19,-2.42 0.12,-0.64 0.07,-1.21 0.05,-1.84 -0.02,-0.85 -0.42,-2.05 -1.42,-2.16 -0.43,-0.05 -0.82,0.15 -1.11,0.45 -0.48,0.5 -0.73,1.25 -0.86,1.91l-0.34 1.76 -0.17 -1.78c-0.36,-3.7 -0.49,-5.72 -4.14,-6.42 -2.55,0.75 -5.76,-2.59 -6.19,-3.69 -0.8,2.8 -1.92,3.05 -4.12,4.38 -0.7,0.42 -1.89,1.22 -2.22,2.93 -0.31,0.62 0.09,5.06 0.46,8.04 0.78,2.35 2.16,4.4 4.17,5.67 0.84,0.53 1.7,-0.64 1.69,-1.24 0.27,0.01 0.6,-0.05 0.91,-0.05 0.82,2.79 4.67,0.99 5.87,0.47 1.9,-0.83 3.48,-3.39 4.68,-4.86 0.44,-0.53 0.13,-0.59 0.55,-1.15z"/>
  <path class="fil5" d="M32.89 33.82c0.68,-0.47 1.03,-1.16 1.17,-1.95 0.12,-0.64 0.07,-1.21 0.05,-1.84 -0.02,-0.85 -0.42,-2.05 -1.42,-2.16 -0.43,-0.05 -0.82,0.15 -1.11,0.45 -0.81,0.84 -0.36,1.14 -0.58,2.27 -0.32,-3.31 -0.16,-7.14 -4.93,-6.8 -2.1,0.16 -4.99,-1.71 -6.19,-3.69 -0.64,4.02 -0.78,7.22 -0.2,11.82 -0.18,2.16 -1.11,4.07 -1.27,4.7 0.46,0.15 1.09,0.17 1.43,0.1 0.12,1.63 0.06,1.62 0.34,3.15 0.04,0 0.41,-0.04 0.59,-0.04 0.77,2.69 4.27,1.17 5.87,0.47 1.71,-0.75 4.32,-4.1 5.07,-5.5 0.74,-0.75 0.15,-0.39 0.4,-1.03 0.26,-0.67 0.74,0.08 0.78,0.05z"/>
  <path class="fil6" d="M19.95 38.3c0.5,-0.26 2.11,1.26 2.29,1.33 -0.12,0 -2.37,-0.92 -3.76,0.18 0.15,-0.1 0.9,-1.68 1.47,-1.51z"/>
  <path class="fil0" d="M32.78 28.32c0.52,-0.06 1.01,0.68 1.07,1.64 0.06,0.74 -0.14,1.39 -0.48,1.68 0.17,-0.34 0.26,-0.81 0.23,-1.33 -0.07,-0.96 -0.56,-1.7 -1.08,-1.64 -0.13,0.01 -0.24,0.06 -0.35,0.15 0.15,-0.29 0.36,-0.48 0.61,-0.5z"/>
  <path class="fil0" d="M32.21 30.85c0.28,0 0.68,0.27 0.66,0.62 -0.01,0.26 -0.2,0.48 -0.46,0.57 0.14,-0.11 0.24,-0.28 0.25,-0.46 0.02,-0.34 -0.42,-0.62 -0.66,-0.62 -0.24,0 -0.41,-0.43 -0.2,-0.76 -0.06,0.29 0.13,0.65 0.41,0.65z"/>
  <path class="fil0" d="M27.59 24.07c-0.22,-0.03 -5.49,0.12 -7.71,-3.97 1.14,1.11 3.94,3.1 7.79,3.21 3.31,0.09 5.31,2.12 5.41,3.49 0.09,1.27 0.38,2.95 0.48,5.09 0.07,1.68 0.63,4.37 2.93,5.77 -0.73,0 -2.88,-0.27 -3.95,-3.97 -0.07,2.65 1.16,5.67 4.1,7.08 -3.5,-0.67 -5.34,-3.61 -5.58,-6.79 -0.2,-2.62 -0.46,-5.19 -0.61,-7.22 -0.15,-2.06 -2.16,-2.62 -2.86,-2.69z"/>
  <path class="fil0" d="M20.32 37.43c1.76,-1.96 7.21,4 9.24,3.16 -2.75,4.46 -5.76,-2.88 -9.24,-3.16z"/>
  <path class="fil0" d="M19.45 37.45c-1.19,-1.3 -3.74,3.58 -4.98,3.13 2,3.06 3.02,-2.63 4.98,-3.13z"/>
  <path class="fil0" d="M15.56 24.97c0.15,-0.06 3.58,-1.4 4.32,-4.87 -0.66,1.03 -2.51,3.05 -4.91,4.17 -4.38,2.02 -2.53,11.87 -0.31,15.69 -0.82,-3.61 -1.15,-7.74 -1.13,-11.37 -0.12,-1.71 0.9,-3.24 2.03,-3.62z"/>
  <path class="fil0" d="M27.65 29.89c-0.16,-0.33 -0.15,-0.53 -0.36,-0.62 0.14,-0.12 0.28,-0.52 0.28,-0.94 -0.15,0.26 -0.86,0.8 -0.98,0.79 0.43,-0.36 0.33,-0.75 0.38,-1.09 -0.18,0.55 -0.88,1.03 -0.93,1.02 0.2,-0.19 0.03,-0.63 -0.03,-0.63 -0.12,0.44 -0.92,0.86 -0.98,0.86 -0.7,0.04 -4.12,0.93 -4.78,3.63 1.37,-2.63 5.91,-3.54 7.4,-3.02z"/>
  <path class="fil0" d="M14.7 30.67c0.12,-0.36 0.13,-0.57 0.26,-0.69 -0.07,-0.1 -0.13,-0.49 -0.1,-0.93 0.07,0.25 0.46,0.72 0.54,0.69 -0.24,-0.31 -0.15,-0.73 -0.15,-1.08 0.07,0.54 0.46,0.95 0.49,0.94 -0.11,-0.17 0.03,-0.65 0.07,-0.66 0.03,0.44 0.49,0.77 0.53,0.76 0.42,-0.05 2.44,0.43 2.64,3.12 -0.64,-2.53 -3.33,-2.88 -4.28,-2.15z"/>
  <g id="_984693304">
   <g>
    <g>
     <path class="fil2 str2" d="M21.12 33.3c-0.01,-0.03 1.36,-0.81 0.73,-1.61"/>
    </g>
    <g>
     <path class="fil2 str2" d="M22.32 33.16c0.43,-1.66 1.62,-0.7 1.98,-1.86"/>
    </g>
    <g>
     <path class="fil2 str2" d="M23.61 31.93c0.21,-0.06 0.41,0.07 0.52,0.3"/>
    </g>
    <g>
     <path class="fil2 str2" d="M21.06 34.34c0.21,0.43 -0.07,0.4 -0.22,0.72"/>
    </g>
    <g>
     <path class="fil2 str2" d="M22.41 34.14c0.43,0.16 -0.1,0.86 0.71,1.03"/>
    </g>
    <g>
     <path class="fil2 str2" d="M23.82 33.69c0.74,0.84 1.09,-0.21 1.61,0.6"/>
    </g>
    <g>
     <path class="fil2 str2" d="M24.91 32.55c0.79,-0.52 1.2,-0.05 2.06,-0.33 0.6,-0.19 1.23,-0.54 1.47,-1.16 0.01,-0.03 0.01,-0.04 0.01,-0.07"/>
    </g>
    <g>
     <path class="fil2 str2" d="M25.96 33.04c0.45,-0.25 -0.42,-0.68 0.08,-0.76 0.27,-0.04 0.36,-0.35 0.44,-0.58"/>
    </g>
    <g>
     <path class="fil2 str2" d="M27.22 32.13c0.27,0.13 -0.02,0.34 0.41,0.48"/>
    </g>
    <g>
     <path class="fil2 str2" d="M22.55 34.86c-0.2,0.03 -0.43,0.04 -0.48,0.28"/>
    </g>
   </g>
   <g>
    <path class="fil2 str2" d="M20.32 34.16c0.13,-1.55 2.47,-0.5 4.59,-1.61 -0.69,1.63 -4.63,2.1 -4.59,1.61z"/>
    <path id="1" class="fil1" d="M20.32 34.16c0.13,-1.55 2.47,-0.5 4.59,-1.61 -0.69,1.63 -4.63,2.1 -4.59,1.61z"/>
   </g>
  </g>
  <g>
   <g>
    <g>
     <path class="fil2 str2" d="M18.12 33.21c0.01,-0.03 -1.06,-0.78 -0.57,-1.59"/>
    </g>
    <g>
     <path class="fil2 str2" d="M17.19 33.09c-0.34,-1.66 -1.27,-0.68 -1.55,-1.83"/>
    </g>
    <g>
     <path class="fil2 str2" d="M16.17 31.88c-0.15,-0.06 -0.31,0.07 -0.4,0.3"/>
    </g>
    <g>
     <path class="fil2 str2" d="M18.17 34.26c-0.17,0.42 0.05,0.39 0.17,0.71"/>
    </g>
    <g>
     <path class="fil2 str2" d="M17.11 34.07c-0.33,0.17 0.08,0.86 -0.55,1.04"/>
    </g>
    <g>
     <path class="fil2 str2" d="M16.01 33.64c-0.58,0.85 -0.85,-0.2 -1.26,0.62"/>
    </g>
    <g>
     <path class="fil2 str2" d="M15.16 32.51c-0.36,-0.35 -0.58,-0.12 -0.84,-0.26"/>
    </g>
    <g>
     <path class="fil2 str2" d="M14.21 32.67c0.17,-0.04 0.35,-0.11 0.26,-0.37 -0.23,-0.01 -0.41,-0.25 -0.45,-0.52"/>
    </g>
    <g>
     <path class="fil2 str2" d="M17.01 34.79c0.15,0.03 0.33,0.04 0.37,0.28"/>
    </g>
   </g>
   <g>
    <path class="fil2 str2" d="M18.74 34.06c-0.1,-1.54 -1.93,-0.46 -3.58,-1.55 0.54,1.63 3.61,2.04 3.58,1.55z"/>
    <path id="1" class="fil1" d="M18.74 34.06c-0.1,-1.54 -1.93,-0.46 -3.58,-1.55 0.54,1.63 3.61,2.04 3.58,1.55z"/>
   </g>
  </g>
  <g>
   <path class="fil2 str2" d="M19.41 24.46c0.47,0.91 0.88,2.3 1,3.29 -0.67,-0.11 -1.39,0.03 -2.04,0.13 0.1,-1.05 0.52,-2.43 1.04,-3.42z"/>
   <path id="1" class="fil1" d="M19.41 24.46c0.47,0.91 0.88,2.3 1,3.29 -0.67,-0.11 -1.39,0.03 -2.04,0.13 0.1,-1.05 0.52,-2.43 1.04,-3.42z"/>
  </g>
 </g>
</svg>
