<?xml version="1.0" encoding="UTF-8"?>
<!DOCTYPE svg PUBLIC "-//W3C//DTD SVG 1.0//EN" "http://www.w3.org/TR/2001/REC-SVG-20010904/DTD/svg10.dtd">
<!-- Creator: CorelDRAW 2019 -->
<svg xmlns="http://www.w3.org/2000/svg" xml:space="preserve" width="1000px" height="1000px" version="1.0" style="shape-rendering:geometricPrecision; text-rendering:geometricPrecision; image-rendering:optimizeQuality; fill-rule:evenodd; clip-rule:evenodd"
viewBox="0 0 78.25 78.25"
 xmlns:xlink="http://www.w3.org/1999/xlink"
 xmlns:xodm="http://www.corel.com/coreldraw/odm/2003">
 <defs>
  <style type="text/css">
   <![CDATA[
    .str1 {stroke:black;stroke-width:0.4;stroke-linecap:round;stroke-linejoin:round;stroke-miterlimit:2.61313}
    .str0 {stroke:black;stroke-width:0.4;stroke-linecap:round;stroke-linejoin:round;stroke-miterlimit:2.61313}
    .str2 {stroke:#CC33FF;stroke-width:0.4;stroke-linecap:round;stroke-linejoin:round;stroke-miterlimit:2.61313}
    .fil2 {fill:none}
    .fil0 {fill:black}
    .fil3 {fill:#1A1A1A}
    .fil1 {fill:#990099}
    .fil4 {fill:#F7B183}
    .fil5 {fill:#FCCAA9}
    .fil6 {fill:#1A1A1A;fill-rule:nonzero}
   ]]>
  </style>
    <clipPath id="id0">
     <path d="M39.13 2.41c20.27,0 36.71,16.44 36.71,36.72 0,20.27 -16.44,36.71 -36.71,36.71 -20.28,0 -36.72,-16.44 -36.72,-36.71 0,-20.28 16.44,-36.72 36.72,-36.72z"/>
    </clipPath>
   <clipPath id="id1">
    <path d="M30.24 16.33c-0.8,1.84 -3.33,8.76 0.17,6.96 1.03,-3.54 4.49,-5.27 15.35,-8.68 -6.31,3.98 -10.26,6.7 -8.13,7.83 3.62,-5.58 14.03,-4.66 17.57,-12.38 1.33,9.13 -9.95,11.94 -9.19,16.61 1.74,-3.35 6.54,-5.65 11.63,-6.58 -3.68,1.61 -7.13,5.9 -6.56,9.27 2.34,-7 10.15,-5.99 13.3,-13.75 0.67,8.4 -4.39,10.22 -9.39,21.66 3.17,-3.54 4.89,-9.66 11.43,-12.24 -3.3,2.61 -4.62,6.28 -6.71,10.4 -1.71,3.36 -4.62,5.8 -6.29,3.31 -10.17,-15.08 -19.14,-19.44 -30.67,-10.46 2.73,-3.59 -1.15,-2.78 7.49,-11.95z"/>
   </clipPath>
   <clipPath id="id2">
    <path d="M23.39 28.78c12.55,-12.06 23.95,2.3 29.89,10.55 2.9,4.02 7.63,-4.96 10.13,-8.87 -1.46,14.98 -4,23.45 -14.6,22.08 -2.5,3.08 -5.16,5.02 -8.84,6.62 -1.14,2.19 -3.29,4.82 -5.86,6.24 2.19,-2.62 1.44,-3.54 1.44,-3.54 -2.04,4.61 -10.73,6.27 -11.56,7.54 2.63,-4.1 0.58,-9.13 -1.94,-12.83 -0.6,-0.89 -1.14,-1.87 -1.6,-2.88 -0.96,-2.14 -1.57,-4.45 -1.67,-6.49 -5.76,-8.4 -0.39,-16.7 4.61,-18.42z"/>
   </clipPath>
 </defs>
 <g id="Layer_x0020_1">
  <metadata id="CorelCorpID_0Corel-Layer"/>
  <circle class="fil0" cx="39.13" cy="39.13" r="39.13"/>
  <g id="_1334627496">
   <path class="fil1" d="M39.13 2.41c20.27,0 36.71,16.44 36.71,36.72 0,20.27 -16.44,36.71 -36.71,36.71 -20.28,0 -36.72,-16.44 -36.72,-36.71 0,-20.28 16.44,-36.72 36.72,-36.72z"/>
   <g style="clip-path:url(#id0)">
    <g>
     <g>
      <rect class="fil0" x="32.2" y="-23.75" width="0.58" height="64.06"/>
      <rect class="fil0" transform="matrix(0.965926 0.258819 -0.258819 0.965926 48.7762 -21.563)" width="0.58" height="64.06"/>
      <rect class="fil0" transform="matrix(0.866025 0.5 -0.5 0.866025 64.2274 -15.1629)" width="0.58" height="64.06"/>
      <rect class="fil0" transform="matrix(0.707107 0.707107 -0.707107 0.707107 77.4956 -4.98179)" width="0.58" height="64.06"/>
      <rect class="fil0" transform="matrix(0.5 0.866025 -0.866025 0.5 87.6767 8.28646)" width="0.58" height="64.06"/>
      <rect class="fil0" transform="matrix(0.258819 0.965926 -0.965926 0.258819 94.0768 23.7377)" width="0.58" height="64.06"/>
      <rect class="fil0" transform="matrix(2.63956E-14 1 -1 2.63956E-14 96.2598 40.3188)" width="0.58" height="64.06"/>
      <rect class="fil0" transform="matrix(-0.258819 0.965926 -0.965926 -0.258819 94.0768 56.9)" width="0.58" height="64.06"/>
      <rect class="fil0" transform="matrix(-0.5 0.866025 -0.866025 -0.5 87.6767 72.3512)" width="0.58" height="64.06"/>
      <rect class="fil0" transform="matrix(-0.707107 0.707107 -0.707107 -0.707107 77.4956 85.6195)" width="0.58" height="64.06"/>
      <rect class="fil0" transform="matrix(-0.866025 0.5 -0.5 -0.866025 64.2274 95.8006)" width="0.58" height="64.06"/>
      <rect class="fil0" transform="matrix(-0.965926 0.258819 -0.258819 -0.965926 48.7762 102.201)" width="0.58" height="64.06"/>
      <rect class="fil0" x="31.62" y="40.32" width="0.58" height="64.06"/>
      <rect class="fil0" transform="matrix(-0.965926 -0.258819 0.258819 -0.965926 15.6138 102.201)" width="0.58" height="64.06"/>
      <rect class="fil0" transform="matrix(-0.866025 -0.5 0.5 -0.866025 0.162612 95.8006)" width="0.58" height="64.06"/>
      <rect class="fil0" transform="matrix(-0.707107 -0.707107 0.707107 -0.707107 -13.1056 85.6195)" width="0.58" height="64.06"/>
      <rect class="fil0" transform="matrix(-0.5 -0.866025 0.866025 -0.5 -23.2867 72.3512)" width="0.58" height="64.06"/>
      <rect class="fil0" transform="matrix(-0.258819 -0.965926 0.965926 -0.258819 -29.6868 56.9)" width="0.58" height="64.06"/>
      <rect class="fil0" transform="matrix(-7.91589E-14 -1 1 -7.91589E-14 -31.8698 40.3188)" width="0.58" height="64.06"/>
      <rect class="fil0" transform="matrix(0.258819 -0.965926 0.965926 0.258819 -29.6868 23.7377)" width="0.58" height="64.06"/>
      <rect class="fil0" transform="matrix(0.5 -0.866025 0.866025 0.5 -23.2867 8.28646)" width="0.58" height="64.06"/>
      <rect class="fil0" transform="matrix(0.707107 -0.707107 0.707107 0.707107 -13.1056 -4.98179)" width="0.58" height="64.06"/>
      <rect class="fil0" transform="matrix(0.866025 -0.5 0.5 0.866025 0.162612 -15.1629)" width="0.58" height="64.06"/>
      <rect class="fil0" transform="matrix(0.965926 -0.258819 0.258819 0.965926 15.6138 -21.563)" width="0.58" height="64.06"/>
     </g>
    </g>
   </g>
   <path class="fil2" d="M39.13 2.41c20.27,0 36.71,16.44 36.71,36.72 0,20.27 -16.44,36.71 -36.71,36.71 -20.28,0 -36.72,-16.44 -36.72,-36.71 0,-20.28 16.44,-36.72 36.72,-36.72z"/>
  </g>
  <path class="fil0" d="M37.71 21.61c0.15,-0.2 0.32,-0.39 0.49,-0.58 2.34,-2.51 6.38,-3.66 9.47,-5.02 3.07,-1.35 5.75,-3.02 7.21,-6.19l0.73 -1.59 0.25 1.73c0.61,4.17 -1.22,7.17 -4.08,9.98 -1.34,1.32 -2.96,2.56 -4.14,4.01 1.75,-1.59 8.85,-5.72 10.77,-3.6 -2.66,1.16 -5.26,3.42 -6.33,6.18 1.93,-2.67 4.9,-3.84 7.5,-5.68 2.06,-1.46 3.51,-3.1 4.47,-5.47l0.82 -2.02 0.17 2.18c0.19,2.32 -0.03,4.45 -0.89,6.63 -1.05,2.65 -2.87,5.07 -4.38,7.49 3.06,-3.94 5.54,-4.72 9.85,-6.42 -3.25,2.58 -4.97,3.79 -7,7.71 3.11,-4.99 -0.66,12.38 -0.78,12.78 -0.91,2.97 -2.34,6.05 -4.99,7.84 -1.46,0.98 -3.1,1.45 -4.81,1.57 0.4,0.39 0.84,0.74 1.33,1.04l1.56 0.94 -1.82 0.02c-1.6,0.01 -3.02,-0.77 -4.06,-1.93 -0.1,0.12 -0.2,0.23 -0.3,0.35 0.94,2.25 2.57,4.04 4.79,5.11l0.41 0.2 -0.28 0.86 -0.45 -0.09c-2.66,-0.5 -4.87,-1.92 -6.4,-4.11 -1.27,1.15 -2.64,2.1 -4.13,2.92 0.06,-0.01 0.11,-0.03 0.16,-0.05l1.48 -0.6 -0.84 1.35c-0.99,1.6 -2.31,2.7 -4.14,2.21 -1.27,1.75 -2.95,3.42 -4.84,4.46l-2.41 1.33c0.7,-0.84 1.48,-1.7 2.12,-2.58 -1.94,1.71 -8.75,5.19 -10.79,4.96l0.28 -0.43c1.74,-2.72 1.26,-5.9 0.05,-8.7 -1.82,1.14 -3.06,-1.27 -3.88,-2.53l1.12 0.4 -0.02 -0.04c-1.95,-3.36 -3.14,-8.4 -3.42,-12.3 -1.72,-3.21 -2.15,-6.79 -0.98,-10.27 0.9,-2.67 2.78,-5.21 5.23,-6.66 0.56,-0.76 0.9,-1.43 1.18,-2.34 1.66,-5.59 5.23,-8.81 9.05,-12.87 -0.47,1.08 -3.71,8.37 -2.59,9.21 0.31,0.23 1.5,-5.99 17.14,-8.56 -1.52,0.96 -8.95,5.82 -8.88,7.17zm-15.72 36.52c0.15,-0.1 0.29,-0.21 0.42,-0.32 -0.2,-0.33 -0.42,-0.66 -0.64,-0.98 -0.03,-0.04 -0.05,-0.09 -0.08,-0.13 0.07,0.39 0.15,0.77 0.24,1.16l0.06 0.27z"/>
  <path class="fil3" d="M30.24 16.33c-0.8,1.84 -3.33,8.76 0.17,6.96 1.03,-3.54 4.49,-5.27 15.35,-8.68 -6.31,3.98 -10.26,6.7 -8.13,7.83 3.62,-5.58 14.03,-4.66 17.57,-12.38 1.33,9.13 -9.95,11.94 -9.19,16.61 1.74,-3.35 6.54,-5.65 11.63,-6.58 -3.68,1.61 -7.13,5.9 -6.56,9.27 2.34,-7 10.15,-5.99 13.3,-13.75 0.67,8.4 -4.39,10.22 -9.39,21.66 3.17,-3.54 4.89,-9.66 11.43,-12.24 -3.3,2.61 -4.62,6.28 -6.71,10.4 -1.71,3.36 -4.62,5.8 -6.29,3.31 -10.17,-15.08 -19.14,-19.44 -30.67,-10.46 2.73,-3.59 -1.15,-2.78 7.49,-11.95z"/>
  <g style="clip-path:url(#id1)">
   <g id="_826301344">
    <path id="1" class="fil2 str0" d="M-15.81 27.47c4.27,2.6 7.97,3.54 11.5,3.36 11.2,-0.59 11.04,21.15 7.45,30.39"/>
    <path class="fil2 str0" d="M-15.79 23.8c4.77,-5.39 17.34,-1.26 26.13,-12.04"/>
    <path class="fil2 str0" d="M-25.95 46.41c-1.75,-7.76 -0.77,-12.37 2.27,-13.57 3.63,-1.43 7.24,-5.21 8,-6.6 5.06,2.49 9.27,3.44 13.01,4.66 9.87,0.91 10.19,20.19 7.09,29.24"/>
    <path class="fil2 str0" d="M-25.96 50.07c-4.46,-10.37 -1.42,-17.19 2,-18.83 3.52,-1.69 7.52,-3.61 8.28,-5 5.31,0.87 11.67,0.78 14.66,4.74 8.54,2.39 9.32,19.22 6.72,28.09"/>
    <path class="fil2 str0" d="M-27.62 49.54c-3.88,-7.75 -1.3,-18.53 5.57,-21.77 2.27,-1.07 3.43,-0.82 6.28,-1.89 15.5,-4.85 26.86,15.21 22.74,32.11"/>
    <path class="fil2 str0" d="M-29.85 31.15c3.08,-4.44 11.26,-6.65 14.13,-5.61 15.02,-7.21 26.91,15.99 23.97,31.37"/>
    <path class="fil2 str0" d="M-29.05 29.25c5.86,-5.48 11.04,-4.97 13.32,-4.18 16.76,-6.8 27.52,14.15 25.26,30.76"/>
    <path class="fil2 str0" d="M-27.27 24.29c4.65,-2.78 10.63,-2.95 11.59,0.35 9.95,-6.11 18.7,1.36 23.23,6.71"/>
    <path class="fil2 str1" d="M22.97 30.21c2.86,-3.46 0.9,-5.97 5.42,-10.68 -1.83,3.42 -0.7,6.08 0.31,8.8"/>
    <path class="fil2 str1" d="M29.91 27.39c1.78,-4.72 1.64,-7.78 11.91,-10.85 -6.3,3.77 -8.66,5.82 -9.71,11.74"/>
    <path class="fil2 str1" d="M34.63 28.73c5.34,-10.9 12.54,-7.63 19.76,-15.89 -2.61,7.1 -12.52,10.49 -14.46,19.31"/>
    <path class="fil2 str1" d="M42.8 32.95c2.93,-4.08 6.02,-9.38 10.66,-11.05 -3.32,2.69 -6.95,5.84 -7.67,13.74"/>
    <path class="fil2 str1" d="M47.84 38.16c7.51,-16.71 9.03,-11.18 15.64,-19.2 -4.2,10.29 -11.24,11.81 -14.16,23.44"/>
    <path class="fil2 str1" d="M50.71 45.71c4.01,-2.74 8.6,-13.97 11.45,-16.8 -3.57,6.5 -6.63,18.21 -11.45,20.12"/>
    <path class="fil2 str1" d="M37.44 30.62c1.59,-7.87 10.73,-10.56 16.95,-17.78"/>
    <path class="fil2 str1" d="M48.68 40.38c1.59,-7.86 8.49,-13.56 14.8,-21.42"/>
    <path class="fil2 str1" d="M46.57 38.43c2.67,-7.56 0.59,-8.67 6.89,-16.53"/>
   </g>
  </g>
  <path class="fil2" d="M30.24 16.33c-0.8,1.84 -3.33,8.76 0.17,6.96 1.03,-3.54 4.49,-5.27 15.35,-8.68 -6.31,3.98 -10.26,6.7 -8.13,7.83 3.62,-5.58 14.03,-4.66 17.57,-12.38 1.33,9.13 -9.95,11.94 -9.19,16.61 1.74,-3.35 6.54,-5.65 11.63,-6.58 -3.68,1.61 -7.13,5.9 -6.56,9.27 2.34,-7 10.15,-5.99 13.3,-13.75 0.67,8.4 -4.39,10.22 -9.39,21.66 3.17,-3.54 4.89,-9.66 11.43,-12.24 -3.3,2.61 -4.62,6.28 -6.71,10.4 -1.71,3.36 -4.62,5.8 -6.29,3.31 -10.17,-15.08 -19.14,-19.44 -30.67,-10.46 2.73,-3.59 -1.15,-2.78 7.49,-11.95z"/>
  <path class="fil3" d="M23.39 28.78c12.55,-12.06 23.95,2.3 29.89,10.55 2.9,4.02 7.63,-4.96 10.13,-8.87 -1.46,14.98 -4,23.45 -14.6,22.08 -2.5,3.08 -5.16,5.02 -8.84,6.62 -1.14,2.19 -3.29,4.82 -5.86,6.24 2.19,-2.62 1.44,-3.54 1.44,-3.54 -2.04,4.61 -10.73,6.27 -11.56,7.54 2.63,-4.1 0.58,-9.13 -1.94,-12.83 -0.6,-0.89 -1.14,-1.87 -1.6,-2.88 -0.96,-2.14 -1.57,-4.45 -1.67,-6.49 -5.76,-8.4 -0.39,-16.7 4.61,-18.42z"/>
  <g style="clip-path:url(#id2)">
   <g id="_1045951928">
    <path id="1" class="fil2 str0" d="M28.98 29.33c4.56,2.78 8.51,3.78 12.29,3.58 11.96,-0.62 11.79,22.62 7.96,32.49"/>
    <path class="fil2 str0" d="M29 25.4c5.1,-5.76 18.07,-2.48 21.13,0.1"/>
    <path class="fil2 str0" d="M18.13 49.57c-1.87,-8.29 -0.82,-13.22 2.44,-14.51 3.87,-1.53 7.73,-5.56 8.54,-7.05 5.41,2.66 9.92,3.67 13.91,4.98 10.55,0.97 11.08,17.18 11.08,25.15"/>
    <path class="fil2 str0" d="M18.12 53.48c-4.76,-11.08 -1.51,-18.37 2.15,-20.13 3.75,-1.8 8.03,-3.85 8.84,-5.34 5.68,0.93 12.48,0.83 15.67,5.06 10.21,4.2 8.38,17.95 14.81,20.06"/>
    <path class="fil2 str0" d="M16.35 52.92c-4.15,-8.29 -1.39,-19.81 5.96,-23.27 2.42,-1.14 3.66,-0.88 6.71,-2.03 24.73,1.02 22.14,22.63 33.43,19.24"/>
    <path class="fil2 str0" d="M13.97 33.26c3.29,-4.74 12.03,-7.11 15.09,-5.99 16.81,-7.31 26.3,28.32 33.96,12.06"/>
    <path class="fil2 str0" d="M14.82 31.22c6.27,-5.85 11.8,-5.31 14.23,-4.46 20.11,-8.34 22.84,32.07 35.7,5.22"/>
    <path class="fil2 str0" d="M16.73 25.93c4.96,-2.98 11.36,-3.16 12.39,0.37 10.62,-6.53 19.98,1.46 24.83,7.17"/>
   </g>
  </g>
  <path class="fil2" d="M23.39 28.78c12.55,-12.06 23.95,2.3 29.89,10.55 2.9,4.02 7.63,-4.96 10.13,-8.87 -1.46,14.98 -4,23.45 -14.6,22.08 -2.5,3.08 -5.16,5.02 -8.84,6.62 -1.14,2.19 -3.29,4.82 -5.86,6.24 2.19,-2.62 1.44,-3.54 1.44,-3.54 -2.04,4.61 -10.73,6.27 -11.56,7.54 2.63,-4.1 0.58,-9.13 -1.94,-12.83 -0.6,-0.89 -1.14,-1.87 -1.6,-2.88 -0.96,-2.14 -1.57,-4.45 -1.67,-6.49 -5.76,-8.4 -0.39,-16.7 4.61,-18.42z"/>
  <path class="fil4" d="M46.25 49.76c-0.02,-0.09 3,-2.49 3.18,-3.51 0.17,-0.93 0.11,-1.75 0.08,-2.67 -0.04,-1.23 -0.62,-2.97 -2.07,-3.14 -0.62,-0.07 -1.18,0.23 -1.61,0.67 -0.69,0.71 -1.06,1.81 -1.25,2.76l-0.49 2.55 -0.25 -2.58c-0.51,-5.37 -0.71,-8.3 -6,-9.31 -3.7,1.09 -8.36,-3.76 -8.99,-5.36 -1.17,4.06 -2.78,4.43 -5.97,6.36 -1.02,0.61 -2.75,1.77 -3.23,4.26 -0.44,0.89 0.13,7.33 0.67,11.65 1.12,3.42 3.13,6.39 6.04,8.23 1.22,0.77 2.47,-0.92 2.47,-1.79 0.38,0.01 0.86,-0.08 1.32,-0.07 1.18,4.04 6.77,1.44 8.51,0.67 2.76,-1.2 5.06,-4.91 6.8,-7.04 0.63,-0.77 0.18,-0.87 0.79,-1.68z"/>
  <path class="fil5" d="M47.73 49.09c0.98,-0.69 1.49,-1.69 1.7,-2.84 0.17,-0.93 0.11,-1.75 0.08,-2.67 -0.04,-1.23 -0.62,-2.97 -2.07,-3.14 -0.62,-0.07 -1.18,0.23 -1.61,0.67 -1.17,1.21 -0.53,1.64 -0.84,3.28 -0.47,-4.8 -0.23,-10.36 -7.15,-9.86 -3.06,0.22 -7.25,-2.48 -8.99,-5.36 -0.93,5.83 -1.13,10.48 -0.29,17.16 -0.26,3.14 -1.61,5.9 -1.84,6.82 0.66,0.22 1.58,0.24 2.08,0.14 0.17,2.37 0.08,2.35 0.48,4.57 0.06,0.01 0.6,-0.06 0.87,-0.05 1.11,3.9 6.18,1.69 8.51,0.67 2.49,-1.08 6.28,-5.94 7.35,-7.98 1.08,-1.08 0.23,-0.57 0.59,-1.49 0.38,-0.98 1.08,0.11 1.13,0.08z"/>
  <path class="fil6" d="M28.95 55.58c0.73,-0.37 3.06,1.84 3.33,1.93 -0.18,0.01 -3.45,-1.33 -5.46,0.26 0.22,-0.14 1.31,-2.43 2.13,-2.19z"/>
  <path class="fil0" d="M47.57 41.09c0.76,-0.07 1.46,1 1.56,2.39 0.08,1.07 -0.21,2.02 -0.7,2.44 0.25,-0.49 0.38,-1.18 0.33,-1.93 -0.11,-1.39 -0.81,-2.46 -1.57,-2.39 -0.18,0.02 -0.35,0.1 -0.5,0.23 0.22,-0.42 0.52,-0.7 0.88,-0.74z"/>
  <path class="fil0" d="M46.75 44.77c0.41,-0.01 0.99,0.4 0.96,0.89 -0.02,0.38 -0.3,0.71 -0.68,0.84 0.21,-0.16 0.36,-0.4 0.37,-0.67 0.03,-0.5 -0.61,-0.9 -0.96,-0.9 -0.34,0 -0.6,-0.63 -0.29,-1.11 -0.08,0.42 0.19,0.95 0.6,0.95z"/>
  <path class="fil0" d="M40.05 34.93c-0.33,-0.04 -7.98,0.17 -11.2,-5.76 1.65,1.6 5.73,4.5 11.3,4.65 4.81,0.14 7.71,3.08 7.86,5.07 0.13,1.84 0.54,4.28 0.69,7.39 0.11,2.44 0.91,6.34 4.25,8.37 -1.05,0.01 -4.17,-0.39 -5.72,-5.76 -0.11,3.84 1.67,8.23 5.94,10.27 -5.07,-0.96 -7.75,-5.22 -8.1,-9.85 -0.28,-3.8 -0.66,-7.52 -0.87,-10.47 -0.22,-3 -3.14,-3.8 -4.15,-3.91z"/>
  <path class="fil0" d="M29.49 54.33c2.55,-2.85 10.47,5.79 13.41,4.58 -3.99,6.47 -8.36,-4.19 -13.41,-4.58z"/>
  <path class="fil0" d="M28.23 54.35c-1.73,-1.89 -5.43,5.19 -7.23,4.55 2.9,4.44 4.38,-3.82 7.23,-4.55z"/>
  <path class="fil0" d="M22.58 36.23c0.22,-0.07 5.2,-2.03 6.27,-7.06 -0.96,1.49 -3.64,4.43 -7.13,6.05 -6.35,2.93 -3.66,17.22 -0.44,22.78 -1.2,-5.24 -1.68,-11.24 -1.64,-16.5 -0.18,-2.48 1.3,-4.71 2.94,-5.27z"/>
  <path class="fil0" d="M40.13 43.38c-0.24,-0.48 -0.23,-0.77 -0.53,-0.9 0.2,-0.17 0.42,-0.75 0.42,-1.37 -0.22,0.38 -1.25,1.17 -1.43,1.15 0.62,-0.52 0.48,-1.09 0.55,-1.59 -0.26,0.81 -1.28,1.5 -1.35,1.5 0.3,-0.29 0.04,-0.92 -0.05,-0.92 -0.16,0.64 -1.33,1.24 -1.42,1.24 -1.01,0.07 -5.97,1.36 -6.93,5.26 1.99,-3.81 8.57,-5.13 10.74,-4.37z"/>
  <path class="fil0" d="M21.33 44.51c0.18,-0.52 0.19,-0.82 0.39,-0.99 -0.11,-0.15 -0.2,-0.73 -0.16,-1.37 0.11,0.37 0.68,1.05 0.79,1.01 -0.34,-0.45 -0.22,-1.06 -0.22,-1.57 0.1,0.79 0.67,1.38 0.71,1.37 -0.16,-0.26 0.05,-0.95 0.1,-0.96 0.05,0.64 0.72,1.11 0.77,1.1 0.62,-0.06 3.54,0.63 3.84,4.54 -0.94,-3.68 -4.84,-4.19 -6.22,-3.13z"/>
  <g id="_830299120">
   <g>
    <g>
     <path class="fil2 str2" d="M30.66 48.32c-0.02,-0.04 1.96,-1.16 1.05,-2.32"/>
    </g>
    <g>
     <path class="fil2 str2" d="M32.39 48.12c0.63,-2.41 2.35,-1.01 2.87,-2.69"/>
    </g>
    <g>
     <path class="fil2 str2" d="M34.27 46.34c0.29,-0.08 0.59,0.1 0.75,0.43"/>
    </g>
    <g>
     <path class="fil2 str2" d="M30.56 49.84c0.31,0.62 -0.1,0.58 -0.31,1.04"/>
    </g>
    <g>
     <path class="fil2 str2" d="M32.53 49.54c0.61,0.24 -0.15,1.26 1.02,1.5"/>
    </g>
    <g>
     <path class="fil2 str2" d="M34.57 48.89c1.08,1.22 1.59,-0.3 2.34,0.88"/>
    </g>
    <g>
     <path class="fil2 str2" d="M36.16 47.24c1.13,-0.76 1.74,-0.07 2.98,-0.48 0.87,-0.28 1.79,-0.79 2.13,-1.69 0.02,-0.04 0.02,-0.06 0.02,-0.1"/>
    </g>
    <g>
     <path class="fil2 str2" d="M37.68 47.95c0.65,-0.36 -0.62,-0.99 0.11,-1.1 0.39,-0.06 0.52,-0.51 0.64,-0.85"/>
    </g>
    <g>
     <path class="fil2 str2" d="M39.51 46.63c0.39,0.19 -0.03,0.49 0.58,0.7"/>
    </g>
    <g>
     <path class="fil2 str2" d="M32.73 50.59c-0.3,0.04 -0.62,0.06 -0.69,0.41"/>
    </g>
   </g>
   <g>
    <path class="fil2 str2" d="M29.5 49.57c0.18,-2.24 3.58,-0.71 6.66,-2.33 -1.01,2.37 -6.72,3.05 -6.66,2.33z"/>
    <path id="1" class="fil1" d="M29.5 49.57c0.18,-2.24 3.58,-0.71 6.66,-2.33 -1.01,2.37 -6.72,3.05 -6.66,2.33z"/>
   </g>
  </g>
  <g>
   <g>
    <g>
     <path class="fil2 str2" d="M26.29 48.19c0.02,-0.03 -1.53,-1.13 -0.82,-2.3"/>
    </g>
    <g>
     <path class="fil2 str2" d="M24.94 48.02c-0.49,-2.41 -1.83,-0.98 -2.24,-2.65"/>
    </g>
    <g>
     <path class="fil2 str2" d="M23.47 46.27c-0.23,-0.09 -0.46,0.1 -0.58,0.43"/>
    </g>
    <g>
     <path class="fil2 str2" d="M26.37 49.71c-0.24,0.62 0.08,0.58 0.24,1.04"/>
    </g>
    <g>
     <path class="fil2 str2" d="M24.83 49.44c-0.48,0.25 0.12,1.25 -0.79,1.51"/>
    </g>
    <g>
     <path class="fil2 str2" d="M23.24 48.81c-0.84,1.24 -1.24,-0.27 -1.83,0.92"/>
    </g>
    <g>
     <path class="fil2 str2" d="M22 47.19c-0.52,-0.52 -0.84,-0.19 -1.21,-0.38"/>
    </g>
    <g>
     <path class="fil2 str2" d="M20.62 47.42c0.25,-0.07 0.51,-0.16 0.38,-0.55 -0.34,-0.01 -0.59,-0.35 -0.65,-0.75"/>
    </g>
    <g>
     <path class="fil2 str2" d="M24.68 50.5c0.23,0.03 0.48,0.04 0.54,0.39"/>
    </g>
   </g>
   <g>
    <path class="fil2 str2" d="M27.2 49.43c-0.14,-2.24 -2.8,-0.67 -5.2,-2.24 0.79,2.35 5.24,2.96 5.2,2.24z"/>
    <path id="1" class="fil1" d="M27.2 49.43c-0.14,-2.24 -2.8,-0.67 -5.2,-2.24 0.79,2.35 5.24,2.96 5.2,2.24z"/>
   </g>
  </g>
  <g>
   <path class="fil2 str2" d="M28.17 35.49c0.69,1.33 1.27,3.35 1.45,4.79 -0.97,-0.17 -2.01,0.04 -2.96,0.19 0.14,-1.53 0.76,-3.54 1.51,-4.98z"/>
   <path id="1" class="fil1" d="M28.17 35.49c0.69,1.33 1.27,3.35 1.45,4.79 -0.97,-0.17 -2.01,0.04 -2.96,0.19 0.14,-1.53 0.76,-3.54 1.51,-4.98z"/>
  </g>
 </g>
</svg>
