<?xml version="1.0" encoding="UTF-8"?>
<!DOCTYPE svg PUBLIC "-//W3C//DTD SVG 1.1//EN" "http://www.w3.org/Graphics/SVG/1.1/DTD/svg11.dtd">
<!-- Creator: CorelDRAW 2019 -->
<svg xmlns="http://www.w3.org/2000/svg" xml:space="preserve" width="580px" height="580px" version="1.1" style="shape-rendering:geometricPrecision; text-rendering:geometricPrecision; image-rendering:optimizeQuality; fill-rule:evenodd; clip-rule:evenodd"
viewBox="0 0 329.62 329.62"
 xmlns:xlink="http://www.w3.org/1999/xlink"
 xmlns:xodm="http://www.corel.com/coreldraw/odm/2003">
 <defs>
  <style type="text/css">
   <![CDATA[
    .str0 {stroke:black;stroke-width:13.73;stroke-linecap:round;stroke-linejoin:round;stroke-miterlimit:2.61313}
    .fil2 {fill:none}
    .fil1 {fill:black}
    .fil8 {fill:#FF6600}
    .fil4 {fill:#FFF045}
    .fil0 {fill:#FFFF66}
    .fil5 {fill:#FFFF7F}
    .fil3 {fill:url(#id1)}
    .fil7 {fill:url(#id2)}
    .fil6 {fill:url(#id3)}
   ]]>
  </style>
   <clipPath id="id0">
    <path d="M164.81 0c91.02,0 164.81,73.79 164.81,164.81 0,91.02 -73.79,164.81 -164.81,164.81 -91.02,0 -164.81,-73.79 -164.81,-164.81 0,-91.02 73.79,-164.81 164.81,-164.81z"/>
   </clipPath>
  <linearGradient id="id1" gradientUnits="userSpaceOnUse" x1="246.63" y1="10.89" x2="21.76" y2="328.92">
   <stop offset="0" style="stop-opacity:1; stop-color:yellow"/>
   <stop offset="0.639216" style="stop-opacity:1; stop-color:#FFC800"/>
   <stop offset="1" style="stop-opacity:1; stop-color:#FF9100"/>
  </linearGradient>
  <linearGradient id="id2" gradientUnits="userSpaceOnUse" x1="159.51" y1="103.33" x2="185.49" y2="103.33">
   <stop offset="0" style="stop-opacity:1; stop-color:#FFD24C"/>
   <stop offset="0.639216" style="stop-opacity:1; stop-color:#F9E826"/>
   <stop offset="1" style="stop-opacity:1; stop-color:#F2FF00"/>
  </linearGradient>
  <linearGradient id="id3" gradientUnits="userSpaceOnUse" x1="163.14" y1="84.1" x2="176.65" y2="115.28">
   <stop offset="0" style="stop-opacity:1; stop-color:#FBFF00"/>
   <stop offset="0.360784" style="stop-opacity:1; stop-color:#FDCC2A"/>
   <stop offset="1" style="stop-opacity:1; stop-color:#FF9854"/>
  </linearGradient>
 </defs>
 <g id="Layer_x0020_1">
  <metadata id="CorelCorpID_0Corel-Layer"/>
  <path class="fil0" d="M164.81 0c91.02,0 164.81,73.79 164.81,164.81 0,91.02 -73.79,164.81 -164.81,164.81 -91.02,0 -164.81,-73.79 -164.81,-164.81 0,-91.02 73.79,-164.81 164.81,-164.81z"/>
  <g style="clip-path:url(#id0)">
   <g id="_1317694168">
    <g>
     <polygon id="1" class="fil1" points="169.13,-94.48 171.67,-93.98 116.61,188.28 114.07,187.78 "/>
     <polygon class="fil1" points="240.31,-70.61 242.64,-69.47 116.4,188.92 114.07,187.78 "/>
     <polygon class="fil1" points="302.88,-29.13 304.84,-27.43 116.02,189.48 114.07,187.78 "/>
     <polygon class="fil1" points="352.59,27.13 354.04,29.28 115.51,189.93 114.07,187.78 "/>
     <polygon class="fil1" points="386.04,94.34 386.89,96.79 114.91,190.23 114.07,187.78 "/>
     <polygon class="fil1" points="400.96,167.91 401.14,170.5 114.25,190.37 114.07,187.78 "/>
     <polygon class="fil1" points="396.33,242.84 395.83,245.39 113.57,190.33 114.07,187.78 "/>
     <polygon class="fil1" points="372.46,314.02 371.32,316.35 112.93,190.11 114.07,187.78 "/>
     <polygon class="fil1" points="330.98,376.6 329.28,378.55 112.37,189.74 114.07,187.78 "/>
     <polygon class="fil1" points="274.72,426.3 272.57,427.75 111.92,189.23 114.07,187.78 "/>
     <polygon class="fil1" points="207.51,459.76 205.06,460.6 111.62,188.62 114.07,187.78 "/>
     <polygon class="fil1" points="133.94,474.68 131.35,474.86 111.48,187.96 114.07,187.78 "/>
     <polygon class="fil1" points="59.01,470.04 56.46,469.55 111.52,187.29 114.07,187.78 "/>
     <polygon class="fil1" points="-12.17,446.17 -14.5,445.04 111.74,186.64 114.07,187.78 "/>
     <polygon class="fil1" points="-74.75,404.7 -76.7,403 112.11,186.08 114.07,187.78 "/>
     <polygon class="fil1" points="-124.46,348.44 -125.9,346.29 112.62,185.63 114.07,187.78 "/>
     <polygon class="fil1" points="-157.91,281.23 -158.75,278.78 113.22,185.33 114.07,187.78 "/>
     <polygon class="fil1" points="-172.83,207.65 -173.01,205.07 113.89,185.2 114.07,187.78 "/>
     <polygon class="fil1" points="-168.19,132.72 -167.7,130.18 114.56,185.24 114.07,187.78 "/>
     <polygon class="fil1" points="-144.33,61.54 -143.19,59.21 115.2,185.45 114.07,187.78 "/>
     <polygon class="fil1" points="-102.85,-1.03 -101.15,-2.99 115.77,185.83 114.07,187.78 "/>
     <polygon class="fil1" points="-46.59,-50.74 -44.44,-52.19 116.22,186.33 114.07,187.78 "/>
     <polygon class="fil1" points="20.62,-84.19 23.07,-85.04 116.52,186.94 114.07,187.78 "/>
     <polygon class="fil1" points="94.2,-99.11 96.78,-99.29 116.65,187.6 114.07,187.78 "/>
    </g>
    <g>
     <path class="fil2 str0" d="M135.63 102.4c0.31,-0.63 0.65,-1.26 0.96,-1.93 7.9,-15.57 16.11,-31.84 24.64,-48.79 -5.99,17.96 -11.83,35.33 -17.43,52.07 -0.27,0.67 -0.46,1.34 -0.68,2.01 4.67,2.44 9.1,5.52 13.15,9.12 15.36,-13.87 31.78,-28.66 49.32,-44.5 25.91,-23.33 54.33,-49.13 85.97,-77.77 -27.48,32.41 -52.5,61.9 -75.29,88.89 -15.69,18.42 -30.44,35.74 -44.29,52.04 3.2,5.22 5.9,10.8 8.04,16.72 0.69,-0.15 1.39,-0.34 2.05,-0.53 17.02,-4.9 35.14,-10.13 54.45,-15.82 -18.31,8.89 -35.46,17.14 -51.62,24.89 -0.72,0.37 -1.39,0.65 -2.1,0.98 1.55,5.89 2.47,12.04 2.78,18.3 20.24,3.46 41.88,7.12 65.36,10.93 34.53,5.55 73.02,11.54 116.1,17.94 -0.32,-0.01 -0.63,-0.03 -0.94,-0.05 0.3,0.08 0.6,0.16 0.91,0.18 -44.01,-0.18 -83.09,-0.6 -118.04,-1.16 -23.63,-0.44 -45.4,-0.91 -65.73,-1.41 -1.34,5.86 -3.24,11.5 -5.66,16.72 0.61,0.45 1.18,0.86 1.8,1.27 14.1,10.17 28.84,20.69 44.29,31.66 -16.98,-8.31 -33.15,-16.2 -48.44,-23.84 -0.63,-0.28 -1.26,-0.55 -1.88,-0.87 -2.96,4.98 -6.35,9.47 -10.15,13.51 10.46,16.81 21.34,34.05 32.52,51.79 15.61,24.86 32.06,50.88 49.23,77.94 -21.4,-25 -41.48,-48.59 -60.57,-70.97 -13.32,-15.65 -26.16,-30.77 -38.42,-45.37 -4.24,2.28 -8.72,4.04 -13.33,5.24 0.13,0.65 0.22,1.25 0.35,1.86 3.15,15.06 6.32,30.15 9.44,45.18 -5.52,-14.75 -11.01,-29.34 -16.44,-43.79 -0.21,-0.57 -0.46,-1.15 -0.66,-1.77 -4.57,0.63 -9.23,0.69 -13.99,0.19 -2.24,15.89 -4.44,31.5 -6.58,46.68 -2.88,20.23 -5.68,39.94 -8.36,59.01 -0.66,-20.57 -1.33,-41.53 -1.99,-62.76 -0.5,-15.7 -1,-31.68 -1.48,-47.78 -4.19,-1.83 -8.21,-4.12 -11.94,-6.77 -0.22,0.47 -0.48,0.89 -0.7,1.28 -5.58,10.23 -10.94,20.13 -16.16,29.66 3.5,-10.98 7.06,-22.28 10.73,-33.92 0.14,-0.48 0.29,-0.96 0.43,-1.44 -3.39,-2.96 -6.5,-6.22 -9.39,-9.75 -9.52,7.35 -18.59,14.36 -27.21,21.02 -11.12,8.62 -21.65,16.7 -31.53,24.36 8.22,-10.6 16.92,-21.75 26.1,-33.49 7.09,-9.12 14.44,-18.58 22.11,-28.43 -2.02,-4.29 -3.77,-8.72 -5.21,-13.33 -0.43,0.09 -0.82,0.17 -1.25,0.23 -9.17,2.01 -17.99,3.91 -26.39,5.72 7.84,-4.02 16.01,-8.23 24.56,-12.65 0.39,-0.17 0.75,-0.38 1.14,-0.59 -1,-4.48 -1.7,-9.12 -2.05,-13.82 -11.01,-2.92 -21.55,-5.78 -31.48,-8.47 -12.86,-3.49 -24.97,-6.83 -36.31,-9.98 0.04,0.03 0.12,0.01 0.2,-0.02 -0.08,0 -0.16,-0.01 -0.2,-0.07 11.37,-0.21 23.51,-0.52 36.46,-0.87 10.08,-0.23 20.73,-0.55 31.91,-0.87 0.62,-4.74 1.61,-9.34 2.86,-13.69 -0.34,-0.3 -0.72,-0.6 -1.1,-0.9 -8.43,-6.69 -16.58,-13.19 -24.48,-19.48 8.59,4.11 17.53,8.31 26.77,12.67 0.43,0.22 0.82,0.37 1.25,0.55 1.76,-4.52 3.87,-8.83 6.22,-12.92 -7.29,-12.68 -14.4,-25.1 -21.34,-37.21 -9.24,-16.07 -18.17,-31.67 -26.81,-46.78 10.55,12.02 21.64,24.56 33.12,37.57 8.73,9.98 17.82,20.28 27.21,30.88 3.29,-3.22 6.85,-6.11 10.68,-8.59 -0.13,-0.57 -0.21,-1.15 -0.33,-1.76 -2.84,-14.17 -5.62,-28.42 -8.44,-42.66 4.81,12.94 9.66,26 14.59,39.16 0.17,0.57 0.37,1.1 0.58,1.63 4.23,-2.08 8.67,-3.71 13.33,-4.76 2.33,-18.73 4.71,-37.88 7.21,-57.55 3.4,-27.49 6.96,-55.87 10.65,-85.28 0.4,28.28 0.83,55.97 1.24,83.25 0.31,19.76 0.61,39.24 0.94,58.45 5.09,0.54 9.99,1.8 14.74,3.61zm-25.66 9.1c33.53,-1.09 65.66,35.43 62.11,78.62 -3.54,43.19 -38.42,67.73 -69.58,60.13 -31.16,-7.59 -49.69,-38.58 -48.61,-73 1.08,-34.41 22.54,-64.65 56.08,-65.75z"/>
     <path id="1" class="fil3" d="M135.63 102.4c0.31,-0.63 0.65,-1.26 0.96,-1.93 7.9,-15.57 16.11,-31.84 24.64,-48.79 -5.99,17.96 -11.83,35.33 -17.43,52.07 -0.27,0.67 -0.46,1.34 -0.68,2.01 4.67,2.44 9.1,5.52 13.15,9.12 15.36,-13.87 31.78,-28.66 49.32,-44.5 25.91,-23.33 54.33,-49.13 85.97,-77.77 -27.48,32.41 -52.5,61.9 -75.29,88.89 -15.69,18.42 -30.44,35.74 -44.29,52.04 3.2,5.22 5.9,10.8 8.04,16.72 0.69,-0.15 1.39,-0.34 2.05,-0.53 17.02,-4.9 35.14,-10.13 54.45,-15.82 -18.31,8.89 -35.46,17.14 -51.62,24.89 -0.72,0.37 -1.39,0.65 -2.1,0.98 1.55,5.89 2.47,12.04 2.78,18.3 20.24,3.46 41.88,7.12 65.36,10.93 34.53,5.55 73.02,11.54 116.1,17.94 -0.32,-0.01 -0.63,-0.03 -0.94,-0.05 0.3,0.08 0.6,0.16 0.91,0.18 -44.01,-0.18 -83.09,-0.6 -118.04,-1.16 -23.63,-0.44 -45.4,-0.91 -65.73,-1.41 -1.34,5.86 -3.24,11.5 -5.66,16.72 0.61,0.45 1.18,0.86 1.8,1.27 14.1,10.17 28.84,20.69 44.29,31.66 -16.98,-8.31 -33.15,-16.2 -48.44,-23.84 -0.63,-0.28 -1.26,-0.55 -1.88,-0.87 -2.96,4.98 -6.35,9.47 -10.15,13.51 10.46,16.81 21.34,34.05 32.52,51.79 15.61,24.86 32.06,50.88 49.23,77.94 -21.4,-25 -41.48,-48.59 -60.57,-70.97 -13.32,-15.65 -26.16,-30.77 -38.42,-45.37 -4.24,2.28 -8.72,4.04 -13.33,5.24 0.13,0.65 0.22,1.25 0.35,1.86 3.15,15.06 6.32,30.15 9.44,45.18 -5.52,-14.75 -11.01,-29.34 -16.44,-43.79 -0.21,-0.57 -0.46,-1.15 -0.66,-1.77 -4.57,0.63 -9.23,0.69 -13.99,0.19 -2.24,15.89 -4.44,31.5 -6.58,46.68 -2.88,20.23 -5.68,39.94 -8.36,59.01 -0.66,-20.57 -1.33,-41.53 -1.99,-62.76 -0.5,-15.7 -1,-31.68 -1.48,-47.78 -4.19,-1.83 -8.21,-4.12 -11.94,-6.77 -0.22,0.47 -0.48,0.89 -0.7,1.28 -5.58,10.23 -10.94,20.13 -16.16,29.66 3.5,-10.98 7.06,-22.28 10.73,-33.92 0.14,-0.48 0.29,-0.96 0.43,-1.44 -3.39,-2.96 -6.5,-6.22 -9.39,-9.75 -9.52,7.35 -18.59,14.36 -27.21,21.02 -11.12,8.62 -21.65,16.7 -31.53,24.36 8.22,-10.6 16.92,-21.75 26.1,-33.49 7.09,-9.12 14.44,-18.58 22.11,-28.43 -2.02,-4.29 -3.77,-8.72 -5.21,-13.33 -0.43,0.09 -0.82,0.17 -1.25,0.23 -9.17,2.01 -17.99,3.91 -26.39,5.72 7.84,-4.02 16.01,-8.23 24.56,-12.65 0.39,-0.17 0.75,-0.38 1.14,-0.59 -1,-4.48 -1.7,-9.12 -2.05,-13.82 -11.01,-2.92 -21.55,-5.78 -31.48,-8.47 -12.86,-3.49 -24.97,-6.83 -36.31,-9.98 0.04,0.03 0.12,0.01 0.2,-0.02 -0.08,0 -0.16,-0.01 -0.2,-0.07 11.37,-0.21 23.51,-0.52 36.46,-0.87 10.08,-0.23 20.73,-0.55 31.91,-0.87 0.62,-4.74 1.61,-9.34 2.86,-13.69 -0.34,-0.3 -0.72,-0.6 -1.1,-0.9 -8.43,-6.69 -16.58,-13.19 -24.48,-19.48 8.59,4.11 17.53,8.31 26.77,12.67 0.43,0.22 0.82,0.37 1.25,0.55 1.76,-4.52 3.87,-8.83 6.22,-12.92 -7.29,-12.68 -14.4,-25.1 -21.34,-37.21 -9.24,-16.07 -18.17,-31.67 -26.81,-46.78 10.55,12.02 21.64,24.56 33.12,37.57 8.73,9.98 17.82,20.28 27.21,30.88 3.29,-3.22 6.85,-6.11 10.68,-8.59 -0.13,-0.57 -0.21,-1.15 -0.33,-1.76 -2.84,-14.17 -5.62,-28.42 -8.44,-42.66 4.81,12.94 9.66,26 14.59,39.16 0.17,0.57 0.37,1.1 0.58,1.63 4.23,-2.08 8.67,-3.71 13.33,-4.76 2.33,-18.73 4.71,-37.88 7.21,-57.55 3.4,-27.49 6.96,-55.87 10.65,-85.28 0.4,28.28 0.83,55.97 1.24,83.25 0.31,19.76 0.61,39.24 0.94,58.45 5.09,0.54 9.99,1.8 14.74,3.61zm-25.66 9.1c33.53,-1.09 65.66,35.43 62.11,78.62 -3.54,43.19 -38.42,67.73 -69.58,60.13 -31.16,-7.59 -49.69,-38.58 -48.61,-73 1.08,-34.41 22.54,-64.65 56.08,-65.75z"/>
    </g>
    <path class="fil4" d="M110.43 109.08c34.7,-1.51 68.46,35.37 64.57,81.2 -3.72,43.89 -38.03,70.36 -72.24,61.77 -29.88,-7.64 -50.7,-40.45 -49.64,-75.01 1.07,-35.78 22.61,-66.45 57.31,-67.96z"/>
    <path class="fil5" d="M175 190.28c-3.22,38.1 -28.41,62.24 -56.89,63.38 -30.83,-39.09 -18.59,-134.74 3.81,-143.99 35.42,5.67 56.01,46.06 53.08,80.61z"/>
    <path class="fil6" d="M109.02 117.01c8.56,-0.17 15.53,8.4 14.87,18.99 -0.67,10.58 -8.51,18.62 -16.89,18.13 -8.39,-0.49 -14.28,-8.8 -13.81,-18.73 0.48,-9.94 7.28,-18.23 15.83,-18.39z"/>
    <path class="fil7" d="M110.49 125.89c0.91,0.24 1.72,0.68 2.45,1.21 0.43,-0.17 0.91,-0.35 1.39,-0.49 0.91,-0.31 1.82,-0.62 2.74,-0.98 -0.36,1.09 -0.69,2.15 -1.01,3.2 -0.16,0.56 -0.33,1.17 -0.49,1.69 0.38,0.91 0.68,1.9 0.82,2.94 0.4,0.31 0.8,0.62 1.23,0.89 0.76,0.59 1.56,1.1 2.4,1.6 -0.9,0.55 -1.75,1.04 -2.59,1.54 -0.45,0.29 -0.9,0.58 -1.3,0.78 -0.29,1.09 -0.68,2.09 -1.18,2.98 0.11,0.56 0.21,1.12 0.32,1.64 0.18,1.08 0.39,2.16 0.61,3.2 -0.89,-0.32 -1.74,-0.68 -2.59,-1.04 -0.48,-0.2 -0.92,-0.36 -1.33,-0.59 -0.81,0.55 -1.64,0.91 -2.54,1.11 -0.27,0.51 -0.54,0.99 -0.77,1.46 -0.49,0.95 -0.96,1.9 -1.41,2.8 -0.38,-0.95 -0.76,-1.9 -1.1,-2.88 -0.19,-0.52 -0.41,-0.99 -0.56,-1.54 -0.86,-0.28 -1.63,-0.71 -2.3,-1.29 -0.48,0.19 -0.91,0.35 -1.34,0.47 -0.86,0.31 -1.73,0.58 -2.59,0.81 0.31,-0.97 0.62,-1.98 0.93,-3.03 0.15,-0.51 0.31,-1.01 0.47,-1.56 -0.39,-0.89 -0.66,-1.85 -0.8,-2.94 -0.41,-0.23 -0.81,-0.53 -1.17,-0.8 -0.76,-0.52 -1.49,-1.05 -2.22,-1.58 0.77,-0.48 1.57,-0.92 2.38,-1.44 0.4,-0.28 0.81,-0.56 1.26,-0.8 0.23,-1.01 0.61,-1.99 1.1,-2.86 -0.11,-0.5 -0.22,-1.08 -0.33,-1.66 -0.19,-1 -0.42,-2 -0.6,-3.08 0.82,0.32 1.68,0.67 2.51,0.95 0.41,0.14 0.86,0.32 1.31,0.5 0.73,-0.53 1.54,-0.95 2.45,-1.18 0.19,-0.52 0.46,-1.04 0.74,-1.6 0.43,-0.92 0.93,-1.89 1.4,-2.89 0.34,1 0.73,1.93 1.11,2.9 0.19,0.55 0.41,1.05 0.6,1.56zm-2.16 3.74c2.79,0.01 4.98,2.79 4.79,6.18 -0.19,3.38 -2.7,6.13 -5.45,6.05 -2.75,-0.08 -4.76,-2.9 -4.59,-6.22 0.17,-3.32 2.46,-6.02 5.25,-6.01z"/>
    <path class="fil1" d="M75.18 166.21c3.83,0.33 7.1,3.38 8.47,7.53 0.07,0.23 0.03,0.53 -0.13,0.69 -0.16,0.17 -0.38,0.17 -0.53,0.05 -2.23,-1.82 -5.02,-3.02 -8.02,-3.29 -2.99,-0.26 -5.79,0.4 -7.99,1.72 -0.19,0.11 -0.38,0.03 -0.52,-0.14 -0.14,-0.18 -0.17,-0.46 -0.07,-0.67 1.68,-3.75 5.03,-6.2 8.79,-5.89z"/>
    <path class="fil1" d="M133.05 169.71c4.66,0.34 8.47,3.77 10.09,8.32 0.1,0.27 0.06,0.59 -0.15,0.75 -0.2,0.16 -0.46,0.14 -0.64,0.01 -2.64,-1.95 -5.95,-3.3 -9.63,-3.62 -3.59,-0.31 -6.88,0.42 -9.6,1.86 -0.18,0.09 -0.42,0.1 -0.59,-0.12 -0.18,-0.21 -0.16,-0.52 -0.05,-0.73 2.09,-4.08 6.09,-6.79 10.57,-6.47z"/>
    <path class="fil1" d="M99.65 197.37c3.46,0.08 6.86,-2.98 7.97,-5.65 0.06,-0.16 0.02,-0.36 -0.12,-0.48 -0.13,-0.12 -0.37,-0.1 -0.51,-0.02 -1.91,1.02 -4.34,1.61 -7.08,1.58 -2.66,-0.03 -5.15,-0.71 -7.17,-1.73 -0.18,-0.09 -0.35,-0.05 -0.47,0.05 -0.13,0.11 -0.14,0.29 -0.04,0.44 1.66,2.63 4.1,5.73 7.42,5.81z"/>
    <path class="fil8" d="M77.98 183.05c3.88,0.49 7.02,2.62 7.02,4.76 0,2.13 -3.14,3.46 -7.02,2.96 -3.88,-0.49 -7.03,-2.62 -7.03,-4.76 0,-2.13 3.15,-3.46 7.03,-2.96z"/>
    <path class="fil8" d="M124.87 185.46c4.59,0 8.3,2.04 8.3,4.56 0,2.53 -3.71,4.57 -8.3,4.57 -4.58,0 -8.3,-2.04 -8.3,-4.57 0,-2.52 3.72,-4.56 8.3,-4.56z"/>
   </g>
  </g>
  <path class="fil2" d="M164.81 0c91.02,0 164.81,73.79 164.81,164.81 0,91.02 -73.79,164.81 -164.81,164.81 -91.02,0 -164.81,-73.79 -164.81,-164.81 0,-91.02 73.79,-164.81 164.81,-164.81z"/>
 </g>
</svg>
