<?xml version="1.0" encoding="UTF-8"?>
<!DOCTYPE svg PUBLIC "-//W3C//DTD SVG 1.1//EN" "http://www.w3.org/Graphics/SVG/1.1/DTD/svg11.dtd">
<!-- Creator: CorelDRAW 2019 -->
<svg xmlns="http://www.w3.org/2000/svg" xml:space="preserve" width="580px" height="580px" version="1.1" style="shape-rendering:geometricPrecision; text-rendering:geometricPrecision; image-rendering:optimizeQuality; fill-rule:evenodd; clip-rule:evenodd"
viewBox="0 0 368.34 368.34"
 xmlns:xlink="http://www.w3.org/1999/xlink"
 xmlns:xodm="http://www.corel.com/coreldraw/odm/2003">
 <defs>
  <style type="text/css">
   <![CDATA[
    .str2 {stroke:black;stroke-width:9.59;stroke-miterlimit:2.61313}
    .str1 {stroke:black;stroke-width:2;stroke-miterlimit:2.61313}
    .str0 {stroke:black;stroke-width:2;stroke-miterlimit:2.61313}
    .str3 {stroke:black;stroke-width:9.59;stroke-linecap:round;stroke-linejoin:round;stroke-miterlimit:2.61313}
    .str4 {stroke:black;stroke-width:15.35;stroke-linecap:round;stroke-linejoin:round;stroke-miterlimit:2.61313}
    .fil2 {fill:none}
    .fil1 {fill:black}
    .fil3 {fill:#1A1A1A}
    .fil4 {fill:#F7B183}
    .fil5 {fill:#FCCAA9}
    .fil0 {fill:#FF6600}
    .fil7 {fill:#FFBF00}
    .fil6 {fill:red;fill-rule:nonzero}
    .fil8 {fill:url(#id5)}
    .fil9 {fill:url(#id6)}
    .fil10 {fill:url(#id7)}
   ]]>
  </style>
    <clipPath id="id0">
     <path d="M184.17 0c101.71,0 184.17,82.46 184.17,184.17 0,101.71 -82.46,184.17 -184.17,184.17 -101.71,0 -184.17,-82.46 -184.17,-184.17 0,-101.71 82.46,-184.17 184.17,-184.17z"/>
    </clipPath>
    <clipPath id="id1">
     <path d="M145.84 168.53l-64.12 -22.76c-7.68,-2.73 -16.48,5.62 -17.24,14.14l-5.65 63.39c-0.75,8.52 4.42,18.36 12.67,16.71l70.88 -14.23c8.25,-1.65 17.6,-5.68 17.24,-14.13l-1.11 -26.42c-0.36,-8.46 -4.99,-13.98 -12.67,-16.7z"/>
    </clipPath>
    <clipPath id="id2">
     <path d="M180.9 84.95c33.19,-4.45 64.72,18.79 70.44,51.91 5.71,33.12 -16.56,63.58 -49.74,68.03 -33.19,4.45 -64.72,-18.78 -70.44,-51.9 -5.71,-33.12 16.55,-63.58 49.74,-68.04z"/>
    </clipPath>
    <clipPath id="id3">
     <path d="M167.15 173.72l100.39 -34.75c12.02,-4.16 24.55,8.58 24.78,21.58l1.71 96.81c0.23,13 -8.74,28.03 -21.16,25.5l-106.68 -21.72c-12.42,-2.52 -26.25,-8.67 -24.79,-21.58l4.59 -40.33c1.47,-12.92 9.14,-21.35 21.16,-25.51z"/>
    </clipPath>
    <clipPath id="id4">
     <path d="M209.4 145.5c38.97,20.56 51,64.06 26.85,97.16 -24.15,33.1 -75.32,43.26 -114.3,22.7 -38.98,-20.56 -51,-64.06 -26.85,-97.16 24.14,-33.09 75.32,-43.26 114.3,-22.7z"/>
    </clipPath>
  <linearGradient id="id5" gradientUnits="userSpaceOnUse" x1="162.28" y1="184.67" x2="118.41" y2="133.81">
   <stop offset="0" style="stop-opacity:1; stop-color:#FF9854"/>
   <stop offset="0.639216" style="stop-opacity:1; stop-color:#F9CB2A"/>
   <stop offset="1" style="stop-opacity:1; stop-color:#F2FF00"/>
  </linearGradient>
  <linearGradient id="id6" gradientUnits="userSpaceOnUse" x1="128.2" y1="166.79" x2="169.29" y2="166.79">
   <stop offset="0" style="stop-opacity:1; stop-color:#FFD24C"/>
   <stop offset="0.639216" style="stop-opacity:1; stop-color:#F9E826"/>
   <stop offset="1" style="stop-opacity:1; stop-color:#F2FF00"/>
  </linearGradient>
  <linearGradient id="id7" gradientUnits="userSpaceOnUse" xlink:href="#id6" x1="0.88" y1="154.66" x2="314.28" y2="154.66">
  </linearGradient>
 </defs>
 <g id="Layer_x0020_1">
  <metadata id="CorelCorpID_0Corel-Layer"/>
  <g id="_1716456872">
   <path class="fil0" d="M184.17 0c101.71,0 184.17,82.46 184.17,184.17 0,101.71 -82.46,184.17 -184.17,184.17 -101.71,0 -184.17,-82.46 -184.17,-184.17 0,-101.71 82.46,-184.17 184.17,-184.17z"/>
   <g style="clip-path:url(#id0)">
    <g>
     <g>
      <polygon id="1" class="fil1" points="140.36,-151.35 143.26,-151.35 143.26,170.02 140.36,170.02 "/>
      <polygon class="fil1" points="223.54,-140.4 226.33,-139.65 143.16,170.77 140.36,170.02 "/>
      <polygon class="fil1" points="301.04,-108.29 303.55,-106.85 142.87,171.47 140.36,170.02 "/>
      <polygon class="fil1" points="367.6,-57.22 369.65,-55.17 142.41,172.07 140.36,170.02 "/>
      <polygon class="fil1" points="418.67,9.34 420.12,11.84 141.81,172.53 140.36,170.02 "/>
      <polygon class="fil1" points="450.78,86.84 451.53,89.64 141.11,172.82 140.36,170.02 "/>
      <polygon class="fil1" points="461.73,170.02 461.73,172.91 140.36,172.91 140.36,170.02 "/>
      <polygon class="fil1" points="450.78,253.2 450.03,255.99 139.61,172.82 140.36,170.02 "/>
      <polygon class="fil1" points="418.67,330.7 417.22,333.21 138.91,172.53 140.36,170.02 "/>
      <polygon class="fil1" points="367.6,397.26 365.55,399.31 138.31,172.07 140.36,170.02 "/>
      <polygon class="fil1" points="301.04,448.33 298.54,449.78 137.85,171.47 140.36,170.02 "/>
      <polygon class="fil1" points="223.54,480.44 220.74,481.19 137.56,170.77 140.36,170.02 "/>
      <polygon class="fil1" points="140.36,491.39 137.46,491.39 137.46,170.02 140.36,170.02 "/>
      <polygon class="fil1" points="57.18,480.44 54.39,479.69 137.56,169.27 140.36,170.02 "/>
      <polygon class="fil1" points="-20.32,448.33 -22.83,446.88 137.85,168.57 140.36,170.02 "/>
      <polygon class="fil1" points="-86.88,397.26 -88.93,395.21 138.31,167.97 140.36,170.02 "/>
      <polygon class="fil1" points="-137.95,330.7 -139.4,328.19 138.91,167.51 140.36,170.02 "/>
      <polygon class="fil1" points="-170.06,253.2 -170.81,250.4 139.61,167.22 140.36,170.02 "/>
      <polygon class="fil1" points="-181.01,170.02 -181.01,167.12 140.36,167.12 140.36,170.02 "/>
      <polygon class="fil1" points="-170.06,86.84 -169.31,84.05 141.11,167.22 140.36,170.02 "/>
      <polygon class="fil1" points="-137.95,9.34 -136.5,6.83 141.81,167.51 140.36,170.02 "/>
      <polygon class="fil1" points="-86.88,-57.22 -84.83,-59.27 142.41,167.97 140.36,170.02 "/>
      <polygon class="fil1" points="-20.32,-108.29 -17.82,-109.74 142.87,168.57 140.36,170.02 "/>
      <polygon class="fil1" points="57.18,-140.4 59.98,-141.15 143.16,169.27 140.36,170.02 "/>
     </g>
    </g>
   </g>
   <path class="fil2" d="M184.17 0c101.71,0 184.17,82.46 184.17,184.17 0,101.71 -82.46,184.17 -184.17,184.17 -101.71,0 -184.17,-82.46 -184.17,-184.17 0,-101.71 82.46,-184.17 184.17,-184.17z"/>
  </g>
  <g id="_1317710856">
   <path class="fil1" d="M201.38 157.26c0.23,1.11 0.44,2.22 0.61,3.33 11.52,0.99 23.05,1.97 34.57,2.95 20.13,1.71 40.25,3.45 60.38,5.15 8.08,0.68 8.08,10.52 0,11.21 -20.26,1.72 -40.52,3.44 -60.78,5.19 -11.85,1.03 -23.7,2.03 -35.56,3.05 -6.55,25.58 -28.22,48.11 -55.42,49.88 -2.39,0.15 -4.79,0.14 -7.18,-0.06 -27.75,-2.28 -45.21,-24.81 -47.58,-51.06 -7.35,-0.89 -14.7,-1.79 -22.04,-2.69 -10.93,-1.34 -21.85,-2.68 -32.78,-4.02 -8.44,-1.04 -7.45,-10.26 0,-11.17 11.23,-1.38 22.45,-2.79 33.68,-4.17 7.8,-0.96 15.6,-1.92 23.4,-2.88 0.23,-0.85 0.48,-1.7 0.74,-2.53 -5.44,-3.44 -10.88,-6.88 -16.33,-10.32 -6.37,-4.03 -3.29,-12.81 4.8,-10.09 5.96,2 11.92,4.02 17.88,6.04 0.46,-0.8 0.94,-1.6 1.43,-2.38 -4.45,-6.96 -8.88,-13.93 -13.34,-20.89 -6.36,-9.95 -12.76,-19.87 -19.09,-29.83 -4.59,-7.22 3.25,-12.32 8.67,-7.05 8.15,7.91 16.32,15.8 24.47,23.7 5.43,5.27 10.86,10.55 16.29,15.81 0.51,-0.37 1.03,-0.74 1.55,-1.09 -1.54,-7.91 -3.07,-15.82 -4.62,-23.72 -1.48,-7.6 7.46,-11.31 10.74,-3.19 2.67,6.61 5.33,13.22 8,19.82 0.49,-0.17 0.99,-0.33 1.48,-0.48 1.67,-10.19 3.33,-20.38 5,-30.57 2.48,-15.07 4.96,-30.14 7.46,-45.21 1.33,-7.98 11.12,-7.22 11.18,0.88 0.12,14.73 0.31,29.47 0.46,44.2 0.09,9.71 0.17,19.42 0.27,29.14 0.48,0.08 0.95,0.18 1.42,0.28 4.62,-8.47 9.25,-16.93 13.9,-25.37 3.8,-6.91 13.23,-3.79 10.23,4.6 -3.15,8.83 -6.3,17.65 -9.45,26.48 0.39,0.23 0.78,0.47 1.17,0.71 8.59,-7.62 17.18,-15.25 25.79,-22.86 14.06,-12.43 28.1,-24.88 42.16,-37.31 5.92,-5.23 13.76,0.91 8.07,7.8 -11.94,14.45 -23.9,28.88 -35.83,43.34 -7.54,9.13 -15.09,18.25 -22.62,27.38 0.47,0.81 0.91,1.62 1.34,2.44 9.38,-3.25 18.77,-6.5 28.15,-9.76 7.65,-2.65 11.66,6.31 4.57,10.24 -9.11,5.05 -18.23,10.09 -27.24,15.08zm-54.14 -27.54c-20.01,1.46 -33.91,19.85 -35.68,38.91 -1.73,18.59 8.55,37.68 28.67,38.77 1.39,0.07 2.79,0.04 4.18,-0.08 9.18,-0.86 17.58,-5.96 23.69,-12.71 6.88,-7.61 11.09,-17.46 11.7,-27.72 0.82,-13.99 -5.21,-28.4 -18.42,-34.58 -4.41,-2.06 -9.27,-2.94 -14.14,-2.59z"/>
   <path class="fil1" d="M109.61 145.52c5.64,-4.33 11.81,-7.95 18.31,-10.83 2.24,-30.09 25.05,-54.33 55.33,-58.39 36.24,-4.86 70.52,20.54 76.73,56.52 0.04,0.26 0.08,0.51 0.13,0.76 9.47,-3.28 14.66,-5.83 25.11,-1.69 8.8,3.49 19.76,5.97 25.47,13.97 3.5,4.9 4.77,10.75 5.41,16.63 0.85,7.81 0.83,16.03 1.02,23.89l1.37 54.32c0.64,25.48 -19.45,54.3 -40.8,48.58l-40.63 -8.27c-13.91,15.39 -28.33,24.71 -48.04,31.78 -14.91,5.35 -30.57,7.29 -46.36,6.53 -10.85,-0.52 -20.9,-4.06 -29.73,-10.37 -20.16,-14.42 -32.07,-42.5 -32.18,-67.52l-5.05 1.02c-18.87,3.78 -20.37,-11.58 -19.37,-22.72l5.64 -63.4c1.02,-11.43 12.87,-23.15 24.73,-18.94l22.91 8.13z"/>
   <path class="fil3" d="M145.84 168.53l-64.12 -22.76c-7.68,-2.73 -16.48,5.62 -17.24,14.14l-5.65 63.39c-0.75,8.52 4.42,18.36 12.67,16.71l70.88 -14.23c8.25,-1.65 17.6,-5.68 17.24,-14.13l-1.11 -26.42c-0.36,-8.46 -4.99,-13.98 -12.67,-16.7z"/>
   <g style="clip-path:url(#id1)">
    <g>
     <path id="1" class="fil1" d="M204.89 173.24c-10.78,-2.55 -22.85,-5.41 -36.44,-8.62 -15.43,-3.66 -33.12,-7.85 -53.61,-12.71 14.69,4.36 27.86,8.28 39.81,11.83 10.88,3.23 20.81,6.18 29.91,8.88 -7.09,-1.09 -14.7,-2.25 -22.86,-3.5 -8.72,-1.34 -18.21,-2.79 -28.39,-4.36 16.44,4.72 30.99,8.87 43.85,12.55 -16.38,-2.75 -35.4,-5.95 -57.77,-9.7 -26.73,-4.49 -59.13,-9.93 -99.21,-16.67 30.43,5.88 56.4,10.88 78.65,15.17 19.38,3.74 36.37,7.02 51.39,9.91 -9.1,-0.59 -18.91,-1.23 -29.48,-1.92 -11.48,-0.74 -23.9,-1.55 -37.49,-2.44 16.6,2.23 31.54,4.25 45.07,6.06 12.26,1.65 23.46,3.16 33.71,4.54 -15.11,-0.28 -32.32,-0.6 -52.01,-0.97 -22.81,-0.42 -49.68,-0.93 -81.51,-1.53 32.05,1.53 59.02,2.8 81.95,3.89 19.74,0.94 36.99,1.76 52.13,2.47 -9.33,0.34 -19.42,0.71 -30.33,1.09 -11.93,0.41 -25.05,0.89 -39.38,1.39 16.54,1.04 31.38,1.98 44.71,2.81 -12.1,0.47 -25.42,0.99 -40.14,1.56 -16.26,0.62 -34.39,1.33 -54.7,2.11 16.23,0.81 31.16,1.55 44.71,2.22 12.49,0.62 24.07,1.2 34.71,1.72 -20.03,2.5 -43.28,5.39 -70.38,8.77 19.6,-0.43 37.12,-0.82 52.83,-1.17 14.21,-0.32 27.11,-0.6 38.83,-0.86 -14.38,1.49 -30.48,3.16 -48.6,5.04 -20.53,2.12 -44.16,4.57 -71.51,7.4 20.34,-0.77 38.52,-1.45 54.9,-2.08 14.9,-0.56 28.41,-1.08 40.81,-1.55 -11.16,3.07 -23.3,6.41 -36.37,10.02 14.34,-3.11 27.55,-5.97 39.6,-8.58 11.05,-2.39 21.33,-4.62 30.77,-6.68 -12.62,3.71 -26.63,7.82 -42.18,12.38 -17.41,5.11 -37.1,10.87 -59.43,17.41 42.06,-9.79 75.07,-17.5 101.66,-23.7 21.89,-5.09 40.22,-9.38 55.77,-13 4.3,-2.79 8.41,-5.46 12.35,-8.01 -0.59,-2.04 -1.2,-4.1 -1.79,-6.17 -0.58,-2.09 -1.23,-4.2 -1.85,-6.33 -4.01,-2.75 -8.25,-5.64 -12.69,-8.67z"/>
    </g>
   </g>
   <path class="fil2 str0" d="M145.84 168.53l-64.12 -22.76c-7.68,-2.73 -16.48,5.62 -17.24,14.14l-5.65 63.39c-0.75,8.52 4.42,18.36 12.67,16.71l70.88 -14.23c8.25,-1.65 17.6,-5.68 17.24,-14.13l-1.11 -26.42c-0.36,-8.46 -4.99,-13.98 -12.67,-16.7z"/>
   <path class="fil3" d="M180.9 84.95c33.19,-4.45 64.72,18.79 70.44,51.91 5.71,33.12 -16.56,63.58 -49.74,68.03 -33.19,4.45 -64.72,-18.78 -70.44,-51.9 -5.71,-33.12 16.55,-63.58 49.74,-68.04z"/>
   <g style="clip-path:url(#id2)">
    <g>
     <path id="1" class="fil2 str0" d="M180.54 90.15c30.91,-4.15 60.28,17.49 65.6,48.34 1.5,8.64 0.94,17.09 -1.31,24.86 1,-6 1.02,-12.3 -0.08,-18.71 -5.33,-30.85 -34.7,-52.49 -65.6,-48.34 -22.25,2.98 -39.23,18.52 -45.02,38.5 3.82,-22.88 21.92,-41.37 46.41,-44.65z"/>
     <g>
      <path class="fil2 str1" d="M179.63 101.14c26.71,-3.58 52.09,15.12 56.69,41.77 1.29,7.47 0.81,14.77 -1.14,21.49 0.87,-5.19 0.89,-10.64 -0.07,-16.17 -4.6,-26.66 -29.98,-45.36 -56.68,-41.77 -19.23,2.58 -33.9,16 -38.9,33.26 3.3,-19.76 18.94,-35.74 40.1,-38.58z"/>
      <path class="fil2 str1" d="M178.72 112.14c22.51,-3.02 43.9,12.74 47.77,35.2 1.09,6.29 0.69,12.44 -0.95,18.1 0.73,-4.37 0.74,-8.96 -0.06,-13.62 -3.88,-22.47 -25.27,-38.23 -47.77,-35.2 -16.2,2.17 -28.57,13.48 -32.78,28.03 2.78,-16.66 15.96,-30.12 33.79,-32.51z"/>
      <path class="fil2 str1" d="M177.81 123.13c18.31,-2.46 35.71,10.36 38.86,28.63 0.88,5.12 0.55,10.12 -0.78,14.73 0.6,-3.56 0.61,-7.29 -0.05,-11.08 -3.15,-18.27 -20.55,-31.09 -38.85,-28.63 -13.18,1.76 -23.23,10.97 -26.66,22.8 2.26,-13.55 12.98,-24.5 27.48,-26.45z"/>
      <path class="fil2 str1" d="M176.91 134.13c14.1,-1.9 27.51,7.98 29.94,22.06 0.68,3.94 0.42,7.8 -0.6,11.35 0.45,-2.74 0.46,-5.62 -0.04,-8.55 -2.43,-14.07 -15.84,-23.95 -29.94,-22.05 -10.15,1.36 -17.9,8.45 -20.54,17.56 1.74,-10.44 10,-18.87 21.18,-20.37z"/>
     </g>
     <path class="fil2 str0" d="M176 145.12c9.9,-1.33 19.32,5.61 21.02,15.49 0.48,2.77 0.3,5.48 -0.42,7.97 0.32,-1.92 0.33,-3.94 -0.03,-6 -1.7,-9.88 -11.11,-16.82 -21.02,-15.49 -7.13,0.96 -12.57,5.94 -14.42,12.34 1.22,-7.33 7.02,-13.25 14.87,-14.31z"/>
    </g>
   </g>
   <path class="fil2 str0" d="M180.9 84.95c33.19,-4.45 64.72,18.79 70.44,51.91 5.71,33.12 -16.56,63.58 -49.74,68.03 -33.19,4.45 -64.72,-18.78 -70.44,-51.9 -5.71,-33.12 16.55,-63.58 49.74,-68.04z"/>
   <path class="fil1 str2" d="M167.15 173.72c34.6,-11.94 69.2,-23.87 103.81,-35.8 37.87,9.08 36.49,13.79 37.44,51.68l1.37 54.31c0.32,12.79 -4.25,31.05 -33.36,39.67l-110.22 -22.44c-12.42,-2.52 -26.25,-8.67 -24.79,-21.58l4.59 -40.33c1.47,-12.92 9.13,-21.36 21.16,-25.51z"/>
   <path class="fil3" d="M167.15 173.72l100.39 -34.75c12.02,-4.16 24.55,8.58 24.78,21.58l1.71 96.81c0.23,13 -8.74,28.03 -21.16,25.5l-106.68 -21.72c-12.42,-2.52 -26.25,-8.67 -24.79,-21.58l4.59 -40.33c1.47,-12.92 9.14,-21.35 21.16,-25.51z"/>
   <g style="clip-path:url(#id3)">
    <g>
     <path id="1" class="fil1" d="M76.48 180.92c16.74,-3.9 35.47,-8.26 56.57,-13.17 23.97,-5.58 51.43,-11.98 83.26,-19.41 -22.91,6.67 -43.45,12.66 -62.09,18.07 -16.96,4.93 -32.45,9.43 -46.63,13.56 10.94,-1.66 22.69,-3.44 35.28,-5.35 13.47,-2.04 28.12,-4.26 43.83,-6.65 -25.62,7.2 -48.29,13.54 -68.33,19.17 25.31,-4.21 54.71,-9.09 89.27,-14.82 41.3,-6.86 91.37,-15.17 153.3,-25.45 -47.1,8.97 -87.31,16.62 -121.75,23.16 -29.99,5.71 -56.3,10.71 -79.55,15.14 13.97,-0.91 29.02,-1.89 45.23,-2.93 17.61,-1.14 36.66,-2.38 57.51,-3.74 -25.59,3.42 -48.63,6.49 -69.48,9.26 -18.89,2.51 -36.16,4.82 -51.96,6.93 23.1,-0.43 49.41,-0.92 79.51,-1.48 34.88,-0.65 75.97,-1.42 124.63,-2.34 -49.1,2.34 -90.43,4.28 -125.56,5.95 -30.23,1.43 -56.67,2.67 -79.86,3.77 14.21,0.51 29.58,1.07 46.2,1.65 18.17,0.64 38.15,1.36 59.97,2.13 -25.38,1.59 -48.13,3.02 -68.58,4.3 18.43,0.72 38.72,1.51 61.13,2.37 24.75,0.95 52.36,2.03 83.29,3.22 -24.88,1.25 -47.76,2.38 -68.52,3.4 -19.13,0.94 -36.87,1.82 -53.17,2.62 30.29,3.81 65.49,8.23 106.51,13.38 -29.9,-0.65 -56.61,-1.24 -80.55,-1.77 -21.66,-0.49 -41.33,-0.92 -59.19,-1.32 21.79,2.28 46.19,4.83 73.66,7.69 31.1,3.24 66.92,6.98 108.37,11.3 -30.98,-1.17 -58.66,-2.21 -83.59,-3.16 -22.7,-0.87 -43.27,-1.66 -62.16,-2.38 16.71,4.7 34.88,9.79 54.46,15.3 -21.58,-4.75 -41.43,-9.11 -59.54,-13.09 -16.61,-3.66 -32.07,-7.07 -46.26,-10.21 18.86,5.67 39.81,11.93 63.06,18.9 26.03,7.8 55.45,16.61 88.84,26.59 -63.15,-14.95 -112.71,-26.72 -152.64,-36.18 -32.86,-7.79 -60.38,-14.33 -83.73,-19.87 -6.26,-4.25 -12.25,-8.32 -17.98,-12.23 1.12,-3.11 2.28,-6.25 3.39,-9.41 1.13,-3.19 2.34,-6.42 3.53,-9.67 6.42,-4.2 13.21,-8.6 20.32,-13.23z"/>
    </g>
   </g>
   <path class="fil2 str0" d="M167.15 173.72l100.39 -34.75c12.02,-4.16 24.55,8.58 24.78,21.58l1.71 96.81c0.23,13 -8.74,28.03 -21.16,25.5l-106.68 -21.72c-12.42,-2.52 -26.25,-8.67 -24.79,-21.58l4.59 -40.33c1.47,-12.92 9.14,-21.35 21.16,-25.51z"/>
   <path class="fil3" d="M209.4 145.5c38.97,20.56 51,64.06 26.85,97.16 -24.15,33.1 -75.32,43.26 -114.3,22.7 -38.98,-20.56 -51,-64.06 -26.85,-97.16 24.14,-33.09 75.32,-43.26 114.3,-22.7z"/>
   <g style="clip-path:url(#id4)">
    <g>
     <path id="1" class="fil2 str0" d="M87.39 217.27c-5.52,-47.28 23.78,-78.69 91.13,-84.61"/>
     <g>
      <path class="fil2 str1" d="M105.29 217.79c-2.84,-45.39 22.16,-77.38 73.23,-85.13"/>
      <path class="fil2 str1" d="M123.2 218.31c-0.18,-43.49 20.52,-76.07 55.32,-85.65"/>
      <path class="fil2 str1" d="M141.1 218.82c2.5,-41.59 18.9,-74.75 37.42,-86.16"/>
      <path class="fil2 str1" d="M159 219.34c5.17,-39.69 17.28,-73.44 19.52,-86.68"/>
      <path class="fil2 str1" d="M176.91 219.86c7.84,-37.79 15.64,-72.13 1.61,-87.2"/>
      <path class="fil2 str1" d="M194.81 220.38c10.52,-35.9 14.02,-70.82 -16.29,-87.72"/>
      <path class="fil2 str1" d="M212.71 220.89c13.19,-33.99 12.4,-69.5 -34.19,-88.23"/>
     </g>
     <path class="fil2 str0" d="M230.62 221.41c15.86,-32.09 10.76,-68.19 -52.1,-88.75"/>
     <path class="fil2 str0" d="M99.32 199.56c-2.25,-10.13 -0.57,-21.38 5.62,-27.57"/>
     <g>
      <path class="fil2 str1" d="M116 204.34c-1.66,-9.69 2.34,-23.9 6.55,-31.95"/>
      <path class="fil2 str1" d="M132.68 209.13c-1.06,-9.26 5.24,-26.44 7.47,-36.34"/>
      <path class="fil2 str1" d="M149.36 213.91c-0.46,-8.83 8.14,-28.96 8.4,-40.71"/>
      <path class="fil2 str1" d="M166.04 218.69c0.14,-8.39 11.05,-31.49 9.32,-45.09"/>
      <path class="fil2 str1" d="M182.72 223.47c0.73,-7.95 13.95,-34.01 10.25,-49.47"/>
      <path class="fil2 str1" d="M199.4 228.25c1.33,-7.52 16.85,-36.54 11.17,-53.85"/>
     </g>
     <path class="fil2 str0" d="M216.08 233.03c1.93,-7.08 19.75,-39.06 12.09,-58.23"/>
    </g>
   </g>
   <path class="fil2 str0" d="M209.4 145.5c38.97,20.56 51,64.06 26.85,97.16 -24.15,33.1 -75.32,43.26 -114.3,22.7 -38.98,-20.56 -51,-64.06 -26.85,-97.16 24.14,-33.09 75.32,-43.26 114.3,-22.7z"/>
   <path class="fil1" d="M139.36 210.08c14.93,-32.76 54,-38.2 80.04,-21.19 2.17,1.42 2.17,4.03 2.08,5.4 -0.75,12.53 -4.9,11.77 -3.43,38.69 7.49,-28.18 30.71,-21.71 29.79,0.88 -0.26,6.37 0.41,22.34 -12.35,30.14 0,2.25 -0.27,5.78 -0.07,9.26 -26.23,31.07 -57.76,45.33 -95.59,43.52 -41.44,-1.98 -61.04,-52.23 -55.67,-83.5 -7.69,-45.23 44.92,-65.83 55.2,-23.2z"/>
   <path class="fil4" d="M233.42 272.58c-0.11,-2.89 0.1,-5.69 0.1,-8.58l0 -1.1 0.94 -0.57c5.41,-3.31 8.46,-8.38 9.98,-14.42 1.23,-4.85 1.23,-9.22 1.43,-14.14 0.27,-6.53 -2.1,-15.97 -9.65,-17.38 -3.25,-0.6 -6.28,0.76 -8.67,2.91 -3.93,3.54 -6.27,9.19 -7.6,14.19l-3.55 13.35 -0.32 -13.81c-0.66,-28.35 -1.7,-29.59 1.02,-37.74 1.32,-3.95 1.19,-3.97 -0.78,-5.96 -11.97,-7.11 -26.62,-9.69 -40.54,-6.62 -15.71,3.47 -27.97,13.56 -34.63,28.19l-2.37 5.19 -1.34 -5.55c-2.45,-10.16 -8.45,-19.97 -19.6,-21.6 -9.12,-1.33 -18.05,3.47 -23.81,10.31 -7.91,9.38 -9.95,21.83 -7.93,33.7l0.05 0.33 -0.05 0.33c-2.57,14.97 0.91,32.4 7.28,46.04 8.89,19.01 24.67,34.12 46.55,35.16 14.79,0.71 29.46,-1.07 43.43,-6.09 19.99,-7.17 36.39,-20.11 50.06,-36.14z"/>
   <path class="fil5" d="M233.42 272.58c-0.11,-2.89 0.1,-5.69 0.1,-8.58 0,-0.36 0,-0.73 0,-1.1 0.31,-0.19 0.63,-0.38 0.94,-0.57 5.41,-3.31 8.46,-8.38 9.98,-14.42 1.23,-4.85 1.23,-9.22 1.43,-14.14 0.27,-6.53 -2.1,-15.97 -9.65,-17.38 -3.25,-0.6 -6.28,0.76 -8.67,2.91 -3.93,3.54 -6.27,9.19 -7.6,14.19 -1.18,4.45 -2.37,8.9 -3.55,13.35 -0.11,-4.61 -0.22,-9.21 -0.32,-13.81 -0.69,-29.54 2.41,-27.09 3.1,-38.19 0.1,-1.6 -0.49,-4.05 -2.15,-5.08 -12.1,-7.43 -27.05,-10.18 -41.25,-7.05 -15.71,3.47 -27.97,13.56 -34.63,28.19 -0.67,1.45 -1.33,2.91 -1.99,4.37 -3.45,18.77 0.11,40.81 -15.65,55.44 2.25,3.38 7.32,6.75 10.13,6.75 0,12.65 0.66,25 1.9,36.95 1.43,0.19 2.9,0.33 4.39,0.4 14.79,0.71 29.46,-1.07 43.43,-6.09 19.99,-7.17 36.39,-20.11 50.06,-36.14z"/>
   <path class="fil1" d="M144.77 256.37c42.89,-6.77 34.88,-23.07 52.73,-24.13 -25.6,-4.71 -35.16,16.94 -52.73,24.13z"/>
   <path class="fil6" d="M133.97 289.55c0.23,-2.1 1.66,-2.78 3.91,-2.34 2.45,0.48 6.06,2.33 10.39,5.4 -5.77,5.88 -10.62,7.82 -14.61,6.9 -3.44,-0.8 -6.35,-3.74 -8.76,-8.32 2.06,-1.79 4.12,-3.19 5.78,-3.7 1.8,-0.55 3.07,-0.03 3.29,2.06z"/>
   <path class="fil1" d="M125.88 255.49c-12.01,-1.97 -19.89,-7.79 -22.74,-11.17 -2.85,-3.38 -3.44,-6.03 -8.53,-6.43 16.62,-3.31 18.48,10.43 31.27,17.6z"/>
   <path class="fil1" d="M234.38 219.89c5.27,-0.15 9.55,7.62 9.55,17.36 0,7.43 -2.49,13.85 -6.01,16.55 1.95,-3.28 3.18,-8 3.18,-13.21 0,-9.74 -4.28,-17.52 -9.56,-17.37 -1.25,0.04 -2.45,0.51 -3.54,1.35 1.69,-2.85 3.92,-4.62 6.38,-4.68z"/>
   <path class="fil1" d="M230.96 239.04c2.14,0.15 5.01,2.5 4.68,5.13 -0.25,2 -1.84,3.62 -3.88,4.18 1.19,-0.79 2.02,-2.01 2.2,-3.41 0.33,-2.63 -2.87,-5 -4.68,-5.13 -1.8,-0.12 -2.92,-3.57 -1.11,-5.99 -0.58,2.2 0.66,5.07 2.79,5.22z"/>
   <path class="fil7" d="M154.15 119.16c3.39,0.25 6.68,0.89 9.82,1.89 0.2,-0.4 0.41,-0.81 0.66,-1.22 5.07,-9.29 10.18,-18.63 15.34,-28 -3.55,9.93 -7.09,19.86 -10.64,29.81 -0.15,0.42 -0.3,0.87 -0.46,1.29 3.06,1.36 5.89,3.1 8.53,5.14 9.53,-8.45 19.2,-17.05 29.11,-25.8 13.71,-12.13 27.73,-24.57 42.16,-37.32 -12.15,14.71 -24.13,29.15 -35.83,43.35 -8.52,10.31 -16.95,20.49 -25.23,30.55 2.11,2.99 3.88,6.32 5.33,9.86 0.42,-0.16 0.87,-0.32 1.29,-0.47 10.3,-3.58 20.87,-7.23 31.67,-10.98 -10.13,5.61 -20.04,11.09 -29.77,16.47 -0.4,0.24 -0.82,0.47 -1.24,0.71 1.02,3.6 1.75,7.41 2.06,11.37 12.56,1.08 25.57,2.2 39.13,3.33 19.1,1.64 39.19,3.37 60.38,5.15 -21.26,1.81 -41.51,3.54 -60.78,5.2 -13.7,1.19 -26.89,2.29 -39.67,3.4 -5.65,29.99 -31.72,51.58 -57.55,49.46 -25.83,-2.12 -42.2,-24.2 -42.68,-50.46 -9.17,-1.12 -18.09,-2.21 -26.72,-3.27 -11.34,-1.39 -22.26,-2.73 -32.77,-4.02 10.82,-1.33 22.02,-2.72 33.67,-4.16 8.8,-1.08 17.91,-2.21 27.27,-3.37 0.73,-3.44 1.75,-6.79 2.96,-10 -0.29,-0.17 -0.58,-0.36 -0.85,-0.55 -6.57,-4.15 -13,-8.21 -19.25,-12.16 6.97,2.34 14.08,4.76 21.39,7.22 0.32,0.12 0.65,0.24 1,0.33 1.59,-3.21 3.42,-6.31 5.44,-9.15 -5.24,-8.2 -10.35,-16.19 -15.32,-23.99 -6.58,-10.26 -12.96,-20.19 -19.08,-29.82 7.85,7.62 16.01,15.53 24.47,23.71 6.41,6.24 13.02,12.66 19.85,19.25 2.57,-2.22 5.27,-4.19 8.18,-5.88 -0.1,-0.38 -0.17,-0.78 -0.24,-1.17 -1.74,-8.91 -3.44,-17.67 -5.12,-26.32 3.16,7.84 6.37,15.82 9.67,23.93 0.13,0.36 0.25,0.73 0.43,1.09 3.05,-1.43 6.25,-2.54 9.56,-3.31 1.88,-11.46 3.74,-22.84 5.58,-34.14 2.51,-15.21 4.99,-30.26 7.46,-45.2 0.12,14.51 0.29,29.24 0.46,44.22 0.09,11.19 0.2,22.54 0.33,34.03zm-7.32 4.95c21.6,-1.57 40.12,17.1 38.58,43.12 -1.54,26.01 -23.29,46.98 -45.48,45.79 -22.2,-1.2 -36.14,-21.67 -33.97,-44.91 2.16,-23.24 19.28,-42.42 40.87,-44z"/>
   <g>
    <path class="fil2 str3" d="M146.32 130.54c14.68,-0.93 26.78,11.75 25.64,28.97 -1.13,17.22 -15.3,31.34 -30.28,31.01 -14.97,-0.32 -24.9,-13.87 -23.49,-29.82 1.42,-15.96 13.45,-29.22 28.13,-30.16z"/>
    <path id="1" class="fil8" d="M146.32 130.54c14.68,-0.93 26.78,11.75 25.64,28.97 -1.13,17.22 -15.3,31.34 -30.28,31.01 -14.97,-0.32 -24.9,-13.87 -23.49,-29.82 1.42,-15.96 13.45,-29.22 28.13,-30.16z"/>
   </g>
   <path class="fil9" d="M148.68 144.23c1.49,0.33 2.84,0.94 4.09,1.76 0.82,-0.3 1.66,-0.6 2.5,-0.9 1.58,-0.57 3.18,-1.15 4.76,-1.74 -0.59,1.74 -1.16,3.45 -1.76,5.15 -0.31,0.92 -0.65,1.82 -0.94,2.73 0.71,1.42 1.21,3 1.46,4.71 0.72,0.44 1.45,0.85 2.2,1.26 1.39,0.84 2.79,1.64 4.19,2.46 -1.5,0.89 -3.03,1.78 -4.55,2.64 -0.81,0.48 -1.62,0.96 -2.39,1.41 -0.53,1.73 -1.22,3.37 -2.17,4.84 0.18,0.93 0.38,1.85 0.56,2.76 0.36,1.72 0.69,3.46 1.03,5.2 -1.5,-0.54 -3.03,-1.07 -4.56,-1.59 -0.82,-0.27 -1.63,-0.54 -2.42,-0.82 -1.39,0.91 -2.86,1.57 -4.43,2.01 -0.47,0.82 -0.94,1.67 -1.41,2.49 -0.89,1.56 -1.75,3.15 -2.62,4.71 -0.62,-1.58 -1.24,-3.16 -1.84,-4.73 -0.33,-0.83 -0.67,-1.65 -1,-2.49 -1.45,-0.41 -2.81,-1.08 -4.02,-1.96 -0.81,0.26 -1.6,0.55 -2.38,0.81 -1.52,0.5 -3.01,1 -4.51,1.52 0.57,-1.67 1.13,-3.34 1.72,-5 0.3,-0.88 0.6,-1.78 0.93,-2.67 -0.65,-1.4 -1.08,-2.96 -1.32,-4.61 -0.7,-0.42 -1.36,-0.85 -2,-1.29 -1.24,-0.76 -2.47,-1.55 -3.71,-2.33 1.36,-0.84 2.74,-1.67 4.12,-2.51 0.71,-0.45 1.46,-0.89 2.22,-1.34 0.48,-1.66 1.19,-3.22 2.07,-4.63 -0.17,-0.86 -0.34,-1.73 -0.48,-2.59 -0.3,-1.6 -0.61,-3.22 -0.9,-4.84 1.4,0.43 2.81,0.87 4.22,1.28 0.72,0.24 1.48,0.48 2.23,0.68 1.35,-0.92 2.79,-1.62 4.31,-2.08 0.44,-0.81 0.91,-1.65 1.38,-2.46 0.82,-1.54 1.67,-3.11 2.54,-4.65 0.59,1.48 1.21,2.96 1.86,4.42 0.33,0.81 0.68,1.6 1.02,2.39zm-3.88 6.09c4.86,-0.17 8.55,4.1 8.14,9.6 -0.42,5.5 -4.8,10.06 -9.68,10.1 -4.89,0.04 -8.37,-4.35 -7.93,-9.72 0.44,-5.36 4.61,-9.8 9.47,-9.98z"/>
   <g>
    <path class="fil2 str4" d="M154.15 119.16c3.39,0.25 6.68,0.89 9.82,1.89 0.2,-0.4 0.41,-0.81 0.66,-1.22 5.07,-9.29 10.18,-18.63 15.34,-28 -3.55,9.93 -7.09,19.86 -10.64,29.81 -0.15,0.42 -0.3,0.87 -0.46,1.29 3.06,1.36 5.89,3.1 8.53,5.14 9.53,-8.45 19.2,-17.05 29.11,-25.8 13.71,-12.13 27.73,-24.57 42.16,-37.32 -12.15,14.71 -24.13,29.15 -35.83,43.35 -8.52,10.31 -16.95,20.49 -25.23,30.55 2.11,2.99 3.88,6.32 5.33,9.86 0.42,-0.16 0.87,-0.32 1.29,-0.47 10.3,-3.58 20.87,-7.23 31.67,-10.98 -10.13,5.61 -20.04,11.09 -29.77,16.47 -0.4,0.24 -0.82,0.47 -1.24,0.71 1.02,3.6 1.75,7.41 2.06,11.37 12.56,1.08 25.57,2.2 39.13,3.33 19.1,1.64 39.19,3.37 60.38,5.15 -21.26,1.81 -41.51,3.54 -60.78,5.2 -13.7,1.19 -26.89,2.29 -39.67,3.4 -5.65,29.99 -31.72,51.58 -57.55,49.46 -25.83,-2.12 -42.2,-24.2 -42.68,-50.46 -9.17,-1.12 -18.09,-2.21 -26.72,-3.27 -11.34,-1.39 -22.26,-2.73 -32.77,-4.02 10.82,-1.33 22.02,-2.72 33.67,-4.16 8.8,-1.08 17.91,-2.21 27.27,-3.37 0.73,-3.44 1.75,-6.79 2.96,-10 -0.29,-0.17 -0.58,-0.36 -0.85,-0.55 -6.57,-4.15 -13,-8.21 -19.25,-12.16 6.97,2.34 14.08,4.76 21.39,7.22 0.32,0.12 0.65,0.24 1,0.33 1.59,-3.21 3.42,-6.31 5.44,-9.15 -5.24,-8.2 -10.35,-16.19 -15.32,-23.99 -6.58,-10.26 -12.96,-20.19 -19.08,-29.82 7.85,7.62 16.01,15.53 24.47,23.71 6.41,6.24 13.02,12.66 19.85,19.25 2.57,-2.22 5.27,-4.19 8.18,-5.88 -0.1,-0.38 -0.17,-0.78 -0.24,-1.17 -1.74,-8.91 -3.44,-17.67 -5.12,-26.32 3.16,7.84 6.37,15.82 9.67,23.93 0.13,0.36 0.25,0.73 0.43,1.09 3.05,-1.43 6.25,-2.54 9.56,-3.31 1.88,-11.46 3.74,-22.84 5.58,-34.14 2.51,-15.21 4.99,-30.26 7.46,-45.2 0.12,14.51 0.29,29.24 0.46,44.22 0.09,11.19 0.2,22.54 0.33,34.03zm-7.32 4.95c21.6,-1.57 40.12,17.1 38.58,43.12 -1.54,26.01 -23.29,46.98 -45.48,45.79 -22.2,-1.2 -36.14,-21.67 -33.97,-44.91 2.16,-23.24 19.28,-42.42 40.87,-44z"/>
    <path id="1" class="fil10" d="M154.15 119.16c3.39,0.25 6.68,0.89 9.82,1.89 0.2,-0.4 0.41,-0.81 0.66,-1.22 5.07,-9.29 10.18,-18.63 15.34,-28 -3.55,9.93 -7.09,19.86 -10.64,29.81 -0.15,0.42 -0.3,0.87 -0.46,1.29 3.06,1.36 5.89,3.1 8.53,5.14 9.53,-8.45 19.2,-17.05 29.11,-25.8 13.71,-12.13 27.73,-24.57 42.16,-37.32 -12.15,14.71 -24.13,29.15 -35.83,43.35 -8.52,10.31 -16.95,20.49 -25.23,30.55 2.11,2.99 3.88,6.32 5.33,9.86 0.42,-0.16 0.87,-0.32 1.29,-0.47 10.3,-3.58 20.87,-7.23 31.67,-10.98 -10.13,5.61 -20.04,11.09 -29.77,16.47 -0.4,0.24 -0.82,0.47 -1.24,0.71 1.02,3.6 1.75,7.41 2.06,11.37 12.56,1.08 25.57,2.2 39.13,3.33 19.1,1.64 39.19,3.37 60.38,5.15 -21.26,1.81 -41.51,3.54 -60.78,5.2 -13.7,1.19 -26.89,2.29 -39.67,3.4 -5.65,29.99 -31.72,51.58 -57.55,49.46 -25.83,-2.12 -42.2,-24.2 -42.68,-50.46 -9.17,-1.12 -18.09,-2.21 -26.72,-3.27 -11.34,-1.39 -22.26,-2.73 -32.77,-4.02 10.82,-1.33 22.02,-2.72 33.67,-4.16 8.8,-1.08 17.91,-2.21 27.27,-3.37 0.73,-3.44 1.75,-6.79 2.96,-10 -0.29,-0.17 -0.58,-0.36 -0.85,-0.55 -6.57,-4.15 -13,-8.21 -19.25,-12.16 6.97,2.34 14.08,4.76 21.39,7.22 0.32,0.12 0.65,0.24 1,0.33 1.59,-3.21 3.42,-6.31 5.44,-9.15 -5.24,-8.2 -10.35,-16.19 -15.32,-23.99 -6.58,-10.26 -12.96,-20.19 -19.08,-29.82 7.85,7.62 16.01,15.53 24.47,23.71 6.41,6.24 13.02,12.66 19.85,19.25 2.57,-2.22 5.27,-4.19 8.18,-5.88 -0.1,-0.38 -0.17,-0.78 -0.24,-1.17 -1.74,-8.91 -3.44,-17.67 -5.12,-26.32 3.16,7.84 6.37,15.82 9.67,23.93 0.13,0.36 0.25,0.73 0.43,1.09 3.05,-1.43 6.25,-2.54 9.56,-3.31 1.88,-11.46 3.74,-22.84 5.58,-34.14 2.51,-15.21 4.99,-30.26 7.46,-45.2 0.12,14.51 0.29,29.24 0.46,44.22 0.09,11.19 0.2,22.54 0.33,34.03zm-7.32 4.95c21.6,-1.57 40.12,17.1 38.58,43.12 -1.54,26.01 -23.29,46.98 -45.48,45.79 -22.2,-1.2 -36.14,-21.67 -33.97,-44.91 2.16,-23.24 19.28,-42.42 40.87,-44z"/>
   </g>
  </g>
 </g>
</svg>
