<?xml version="1.0" encoding="UTF-8"?>
<!DOCTYPE svg PUBLIC "-//W3C//DTD SVG 1.1//EN" "http://www.w3.org/Graphics/SVG/1.1/DTD/svg11.dtd">
<!-- Creator: CorelDRAW 2019 -->
<svg xmlns="http://www.w3.org/2000/svg" xml:space="preserve" width="580px" height="580px" version="1.1" style="shape-rendering:geometricPrecision; text-rendering:geometricPrecision; image-rendering:optimizeQuality; fill-rule:evenodd; clip-rule:evenodd"
viewBox="0 0 343.28 343.28"
 xmlns:xlink="http://www.w3.org/1999/xlink"
 xmlns:xodm="http://www.corel.com/coreldraw/odm/2003">
 <defs>
  <style type="text/css">
   <![CDATA[
    .str1 {stroke:black;stroke-width:8.71;stroke-miterlimit:2.61313}
    .str0 {stroke:black;stroke-width:13.94;stroke-linecap:round;stroke-linejoin:round;stroke-miterlimit:2.61313}
    .fil2 {fill:none}
    .fil1 {fill:black}
    .fil8 {fill:#FF6600}
    .fil4 {fill:#FFF045}
    .fil0 {fill:#FFFF66}
    .fil5 {fill:#FFFF7F}
    .fil3 {fill:url(#id1)}
    .fil7 {fill:url(#id2)}
    .fil6 {fill:url(#id3)}
   ]]>
  </style>
   <clipPath id="id0">
    <path d="M171.64 4.36c92.39,0 167.28,74.89 167.28,167.28 0,92.39 -74.89,167.28 -167.28,167.28 -92.39,0 -167.28,-74.89 -167.28,-167.28 0,-92.39 74.89,-167.28 167.28,-167.28z"/>
   </clipPath>
  <linearGradient id="id1" gradientUnits="userSpaceOnUse" x1="254.69" y1="15.41" x2="26.45" y2="338.22">
   <stop offset="0" style="stop-opacity:1; stop-color:yellow"/>
   <stop offset="0.639216" style="stop-opacity:1; stop-color:#FFC800"/>
   <stop offset="1" style="stop-opacity:1; stop-color:#FF9100"/>
  </linearGradient>
  <linearGradient id="id2" gradientUnits="userSpaceOnUse" x1="166.26" y1="109.24" x2="192.63" y2="109.24">
   <stop offset="0" style="stop-opacity:1; stop-color:#FFD24C"/>
   <stop offset="0.639216" style="stop-opacity:1; stop-color:#F9E826"/>
   <stop offset="1" style="stop-opacity:1; stop-color:#F2FF00"/>
  </linearGradient>
  <linearGradient id="id3" gradientUnits="userSpaceOnUse" x1="169.95" y1="89.72" x2="183.66" y2="121.37">
   <stop offset="0" style="stop-opacity:1; stop-color:#FBFF00"/>
   <stop offset="0.360784" style="stop-opacity:1; stop-color:#FDCC2A"/>
   <stop offset="1" style="stop-opacity:1; stop-color:#FF9854"/>
  </linearGradient>
 </defs>
 <g id="Layer_x0020_1">
  <metadata id="CorelCorpID_0Corel-Layer"/>
  <path class="fil0" d="M171.64 4.36c92.39,0 167.28,74.89 167.28,167.28 0,92.39 -74.89,167.28 -167.28,167.28 -92.39,0 -167.28,-74.89 -167.28,-167.28 0,-92.39 74.89,-167.28 167.28,-167.28z"/>
  <g style="clip-path:url(#id0)">
   <g id="_1319853192">
    <g>
     <polygon id="1" class="fil1" points="176.02,-91.54 178.61,-91.04 122.72,195.46 120.14,194.96 "/>
     <polygon class="fil1" points="248.27,-67.32 250.64,-66.16 122.5,196.11 120.14,194.96 "/>
     <polygon class="fil1" points="311.79,-25.21 313.77,-23.49 122.12,196.69 120.14,194.96 "/>
     <polygon class="fil1" points="362.24,31.89 363.71,34.07 121.61,197.14 120.14,194.96 "/>
     <polygon class="fil1" points="396.2,100.11 397.05,102.6 120.99,197.45 120.14,194.96 "/>
     <polygon class="fil1" points="411.34,174.79 411.52,177.41 120.32,197.58 120.14,194.96 "/>
     <polygon class="fil1" points="406.64,250.85 406.13,253.43 119.63,197.54 120.14,194.96 "/>
     <polygon class="fil1" points="382.41,323.09 381.26,325.46 118.98,197.32 120.14,194.96 "/>
     <polygon class="fil1" points="340.31,386.61 338.58,388.59 118.41,196.94 120.14,194.96 "/>
     <polygon class="fil1" points="283.2,437.06 281.02,438.53 117.95,196.43 120.14,194.96 "/>
     <polygon class="fil1" points="214.99,471.02 212.5,471.88 117.65,195.81 120.14,194.96 "/>
     <polygon class="fil1" points="140.3,486.16 137.68,486.34 117.51,195.14 120.14,194.96 "/>
     <polygon class="fil1" points="64.25,481.46 61.67,480.96 117.55,194.46 120.14,194.96 "/>
     <polygon class="fil1" points="-8,457.23 -10.36,456.08 117.77,193.8 120.14,194.96 "/>
     <polygon class="fil1" points="-71.52,415.13 -73.5,413.41 118.15,193.23 120.14,194.96 "/>
     <polygon class="fil1" points="-121.97,358.03 -123.44,355.85 118.67,192.78 120.14,194.96 "/>
     <polygon class="fil1" points="-155.93,289.81 -156.78,287.32 119.28,192.47 120.14,194.96 "/>
     <polygon class="fil1" points="-171.07,215.13 -171.25,212.5 119.95,192.33 120.14,194.96 "/>
     <polygon class="fil1" points="-166.37,139.07 -165.86,136.49 120.64,192.38 120.14,194.96 "/>
     <polygon class="fil1" points="-142.14,66.82 -140.98,64.46 121.29,192.59 120.14,194.96 "/>
     <polygon class="fil1" points="-100.04,3.31 -98.31,1.32 121.86,192.97 120.14,194.96 "/>
     <polygon class="fil1" points="-42.93,-47.15 -40.75,-48.62 122.32,193.49 120.14,194.96 "/>
     <polygon class="fil1" points="25.29,-81.1 27.77,-81.96 122.62,194.1 120.14,194.96 "/>
     <polygon class="fil1" points="99.97,-96.25 102.59,-96.43 122.76,194.78 120.14,194.96 "/>
    </g>
    <g>
     <path class="fil2 str0" d="M142.03 108.29c0.3,-0.63 0.65,-1.27 0.96,-1.96 8.02,-15.8 16.36,-32.31 25.02,-49.52 -6.08,18.23 -12.01,35.86 -17.69,52.86 -0.28,0.68 -0.47,1.36 -0.7,2.04 4.74,2.48 9.25,5.6 13.35,9.25 15.59,-14.07 32.26,-29.09 50.06,-45.17 26.3,-23.68 55.15,-49.86 87.27,-78.93 -27.89,32.89 -53.29,62.82 -76.43,90.22 -15.92,18.69 -30.89,36.28 -44.95,52.82 3.25,5.3 5.99,10.96 8.15,16.97 0.71,-0.15 1.42,-0.34 2.09,-0.53 17.28,-4.98 35.67,-10.29 55.27,-16.06 -18.59,9.02 -35.99,17.39 -52.4,25.26 -0.72,0.38 -1.4,0.66 -2.13,0.99 1.58,5.98 2.51,12.23 2.82,18.58 20.54,3.52 42.51,7.23 66.34,11.09 35.06,5.64 74.12,11.72 117.85,18.21 -0.32,-0.01 -0.64,-0.03 -0.95,-0.04 0.3,0.08 0.61,0.16 0.92,0.17 -44.67,-0.17 -84.34,-0.61 -119.81,-1.17 -23.99,-0.45 -46.09,-0.93 -66.72,-1.43 -1.36,5.95 -3.29,11.67 -5.75,16.97 0.62,0.46 1.2,0.87 1.83,1.28 14.31,10.33 29.28,21.01 44.96,32.15 -17.24,-8.44 -33.65,-16.45 -49.18,-24.2 -0.63,-0.28 -1.27,-0.56 -1.9,-0.89 -3,5.06 -6.45,9.61 -10.3,13.72 10.62,17.06 21.66,34.56 33.01,52.56 15.84,25.24 32.54,51.65 49.97,79.11 -21.72,-25.37 -42.1,-49.31 -61.48,-72.03 -13.53,-15.88 -26.56,-31.24 -39.01,-46.05 -4.3,2.31 -8.85,4.1 -13.52,5.32 0.13,0.65 0.22,1.26 0.36,1.88 3.19,15.29 6.41,30.6 9.57,45.87 -5.6,-14.98 -11.17,-29.78 -16.68,-44.45 -0.21,-0.59 -0.46,-1.17 -0.68,-1.8 -4.63,0.64 -9.37,0.7 -14.19,0.19 -2.28,16.13 -4.5,31.97 -6.68,47.38 -2.92,20.54 -5.76,40.54 -8.49,59.9 -0.67,-20.88 -1.35,-42.16 -2.02,-63.7 -0.5,-15.94 -1.01,-32.16 -1.49,-48.5 -4.26,-1.86 -8.34,-4.18 -12.13,-6.87 -0.22,0.47 -0.48,0.9 -0.71,1.29 -5.66,10.39 -11.1,20.44 -16.41,30.11 3.56,-11.15 7.18,-22.61 10.9,-34.43 0.14,-0.49 0.29,-0.98 0.44,-1.46 -3.44,-3.01 -6.6,-6.32 -9.53,-9.89 -9.67,7.46 -18.87,14.57 -27.62,21.33 -11.29,8.74 -21.98,16.95 -32.01,24.72 8.35,-10.75 17.18,-22.07 26.5,-33.99 7.19,-9.25 14.65,-18.86 22.43,-28.86 -2.04,-4.35 -3.82,-8.85 -5.28,-13.53 -0.44,0.09 -0.83,0.18 -1.26,0.23 -9.32,2.05 -18.27,3.98 -26.8,5.81 7.96,-4.07 16.25,-8.35 24.93,-12.84 0.4,-0.17 0.76,-0.38 1.16,-0.59 -1.02,-4.55 -1.73,-9.26 -2.08,-14.04 -11.18,-2.95 -21.87,-5.85 -31.96,-8.59 -13.05,-3.55 -25.34,-6.93 -36.85,-10.13 0.04,0.03 0.12,0.01 0.2,-0.02 -0.08,0 -0.16,-0.01 -0.2,-0.07 11.54,-0.22 23.86,-0.53 37.01,-0.89 10.23,-0.23 21.04,-0.56 32.38,-0.88 0.64,-4.81 1.64,-9.48 2.91,-13.89 -0.35,-0.31 -0.73,-0.61 -1.12,-0.91 -8.55,-6.8 -16.82,-13.39 -24.84,-19.78 8.72,4.17 17.79,8.43 27.17,12.86 0.44,0.23 0.83,0.38 1.27,0.56 1.78,-4.59 3.93,-8.96 6.32,-13.11 -7.41,-12.87 -14.62,-25.48 -21.67,-37.77 -9.38,-16.32 -18.44,-32.15 -27.21,-47.49 10.71,12.2 21.96,24.93 33.61,38.14 8.86,10.13 18.09,20.58 27.63,31.34 3.34,-3.27 6.95,-6.2 10.83,-8.72 -0.12,-0.58 -0.21,-1.16 -0.33,-1.78 -2.89,-14.39 -5.7,-28.85 -8.57,-43.3 4.89,13.13 9.81,26.39 14.82,39.74 0.16,0.58 0.37,1.12 0.58,1.66 4.29,-2.12 8.81,-3.76 13.53,-4.84 2.36,-19.01 4.79,-38.44 7.31,-58.4 3.46,-27.91 7.08,-56.71 10.82,-86.56 0.41,28.7 0.84,56.81 1.26,84.49 0.31,20.05 0.61,39.83 0.95,59.33 5.17,0.55 10.14,1.82 14.97,3.66zm-26.06 9.24c34.05,-1.11 66.65,35.96 63.05,79.8 -3.59,43.84 -38.99,68.75 -70.62,61.04 -31.63,-7.71 -50.44,-39.17 -49.34,-74.1 1.09,-34.93 22.87,-65.63 56.91,-66.74z"/>
     <path id="1" class="fil3" d="M142.03 108.29c0.3,-0.63 0.65,-1.27 0.96,-1.96 8.02,-15.8 16.36,-32.31 25.02,-49.52 -6.08,18.23 -12.01,35.86 -17.69,52.86 -0.28,0.68 -0.47,1.36 -0.7,2.04 4.74,2.48 9.25,5.6 13.35,9.25 15.59,-14.07 32.26,-29.09 50.06,-45.17 26.3,-23.68 55.15,-49.86 87.27,-78.93 -27.89,32.89 -53.29,62.82 -76.43,90.22 -15.92,18.69 -30.89,36.28 -44.95,52.82 3.25,5.3 5.99,10.96 8.15,16.97 0.71,-0.15 1.42,-0.34 2.09,-0.53 17.28,-4.98 35.67,-10.29 55.27,-16.06 -18.59,9.02 -35.99,17.39 -52.4,25.26 -0.72,0.38 -1.4,0.66 -2.13,0.99 1.58,5.98 2.51,12.23 2.82,18.58 20.54,3.52 42.51,7.23 66.34,11.09 35.06,5.64 74.12,11.72 117.85,18.21 -0.32,-0.01 -0.64,-0.03 -0.95,-0.04 0.3,0.08 0.61,0.16 0.92,0.17 -44.67,-0.17 -84.34,-0.61 -119.81,-1.17 -23.99,-0.45 -46.09,-0.93 -66.72,-1.43 -1.36,5.95 -3.29,11.67 -5.75,16.97 0.62,0.46 1.2,0.87 1.83,1.28 14.31,10.33 29.28,21.01 44.96,32.15 -17.24,-8.44 -33.65,-16.45 -49.18,-24.2 -0.63,-0.28 -1.27,-0.56 -1.9,-0.89 -3,5.06 -6.45,9.61 -10.3,13.72 10.62,17.06 21.66,34.56 33.01,52.56 15.84,25.24 32.54,51.65 49.97,79.11 -21.72,-25.37 -42.1,-49.31 -61.48,-72.03 -13.53,-15.88 -26.56,-31.24 -39.01,-46.05 -4.3,2.31 -8.85,4.1 -13.52,5.32 0.13,0.65 0.22,1.26 0.36,1.88 3.19,15.29 6.41,30.6 9.57,45.87 -5.6,-14.98 -11.17,-29.78 -16.68,-44.45 -0.21,-0.59 -0.46,-1.17 -0.68,-1.8 -4.63,0.64 -9.37,0.7 -14.19,0.19 -2.28,16.13 -4.5,31.97 -6.68,47.38 -2.92,20.54 -5.76,40.54 -8.49,59.9 -0.67,-20.88 -1.35,-42.16 -2.02,-63.7 -0.5,-15.94 -1.01,-32.16 -1.49,-48.5 -4.26,-1.86 -8.34,-4.18 -12.13,-6.87 -0.22,0.47 -0.48,0.9 -0.71,1.29 -5.66,10.39 -11.1,20.44 -16.41,30.11 3.56,-11.15 7.18,-22.61 10.9,-34.43 0.14,-0.49 0.29,-0.98 0.44,-1.46 -3.44,-3.01 -6.6,-6.32 -9.53,-9.89 -9.67,7.46 -18.87,14.57 -27.62,21.33 -11.29,8.74 -21.98,16.95 -32.01,24.72 8.35,-10.75 17.18,-22.07 26.5,-33.99 7.19,-9.25 14.65,-18.86 22.43,-28.86 -2.04,-4.35 -3.82,-8.85 -5.28,-13.53 -0.44,0.09 -0.83,0.18 -1.26,0.23 -9.32,2.05 -18.27,3.98 -26.8,5.81 7.96,-4.07 16.25,-8.35 24.93,-12.84 0.4,-0.17 0.76,-0.38 1.16,-0.59 -1.02,-4.55 -1.73,-9.26 -2.08,-14.04 -11.18,-2.95 -21.87,-5.85 -31.96,-8.59 -13.05,-3.55 -25.34,-6.93 -36.85,-10.13 0.04,0.03 0.12,0.01 0.2,-0.02 -0.08,0 -0.16,-0.01 -0.2,-0.07 11.54,-0.22 23.86,-0.53 37.01,-0.89 10.23,-0.23 21.04,-0.56 32.38,-0.88 0.64,-4.81 1.64,-9.48 2.91,-13.89 -0.35,-0.31 -0.73,-0.61 -1.12,-0.91 -8.55,-6.8 -16.82,-13.39 -24.84,-19.78 8.72,4.17 17.79,8.43 27.17,12.86 0.44,0.23 0.83,0.38 1.27,0.56 1.78,-4.59 3.93,-8.96 6.32,-13.11 -7.41,-12.87 -14.62,-25.48 -21.67,-37.77 -9.38,-16.32 -18.44,-32.15 -27.21,-47.49 10.71,12.2 21.96,24.93 33.61,38.14 8.86,10.13 18.09,20.58 27.63,31.34 3.34,-3.27 6.95,-6.2 10.83,-8.72 -0.12,-0.58 -0.21,-1.16 -0.33,-1.78 -2.89,-14.39 -5.7,-28.85 -8.57,-43.3 4.89,13.13 9.81,26.39 14.82,39.74 0.16,0.58 0.37,1.12 0.58,1.66 4.29,-2.12 8.81,-3.76 13.53,-4.84 2.36,-19.01 4.79,-38.44 7.31,-58.4 3.46,-27.91 7.08,-56.71 10.82,-86.56 0.41,28.7 0.84,56.81 1.26,84.49 0.31,20.05 0.61,39.83 0.95,59.33 5.17,0.55 10.14,1.82 14.97,3.66zm-26.06 9.24c34.05,-1.11 66.65,35.96 63.05,79.8 -3.59,43.84 -38.99,68.75 -70.62,61.04 -31.63,-7.71 -50.44,-39.17 -49.34,-74.1 1.09,-34.93 22.87,-65.63 56.91,-66.74z"/>
    </g>
    <path class="fil4" d="M116.44 115.07c35.23,-1.53 69.49,35.91 65.55,82.42 -3.78,44.56 -38.61,71.42 -73.33,62.7 -30.33,-7.75 -51.46,-41.05 -50.39,-76.13 1.09,-36.32 22.95,-67.46 58.17,-68.99z"/>
    <path class="fil5" d="M181.99 197.49c-3.28,38.68 -28.84,63.18 -57.75,64.34 -31.29,-39.68 -18.87,-136.76 3.86,-146.15 35.96,5.75 56.86,46.74 53.89,81.81z"/>
    <path class="fil6" d="M115.02 123.12c8.68,-0.16 15.76,8.53 15.08,19.28 -0.67,10.74 -8.63,18.9 -17.14,18.4 -8.51,-0.49 -14.5,-8.93 -14.01,-19.01 0.48,-10.09 7.39,-18.51 16.07,-18.67z"/>
    <path class="fil7" d="M116.51 132.13c0.92,0.25 1.74,0.7 2.48,1.24 0.44,-0.18 0.93,-0.36 1.41,-0.5 0.92,-0.32 1.85,-0.64 2.78,-1 -0.37,1.11 -0.69,2.18 -1.02,3.25 -0.17,0.57 -0.34,1.19 -0.5,1.72 0.39,0.92 0.69,1.93 0.84,2.98 0.4,0.32 0.8,0.63 1.24,0.91 0.77,0.59 1.59,1.11 2.44,1.62 -0.91,0.55 -1.77,1.06 -2.63,1.56 -0.46,0.29 -0.91,0.59 -1.32,0.79 -0.29,1.11 -0.69,2.13 -1.19,3.03 0.1,0.56 0.21,1.13 0.32,1.66 0.18,1.1 0.39,2.19 0.61,3.25 -0.9,-0.32 -1.76,-0.69 -2.62,-1.05 -0.49,-0.2 -0.94,-0.37 -1.35,-0.61 -0.82,0.57 -1.67,0.93 -2.58,1.13 -0.27,0.52 -0.54,1.01 -0.78,1.49 -0.5,0.96 -0.97,1.92 -1.43,2.84 -0.39,-0.97 -0.77,-1.93 -1.12,-2.93 -0.19,-0.52 -0.42,-1 -0.57,-1.56 -0.87,-0.28 -1.65,-0.72 -2.34,-1.31 -0.48,0.2 -0.91,0.35 -1.35,0.47 -0.88,0.32 -1.76,0.6 -2.63,0.83 0.31,-0.98 0.63,-2.01 0.94,-3.07 0.16,-0.52 0.32,-1.03 0.48,-1.59 -0.4,-0.9 -0.67,-1.88 -0.82,-2.98 -0.41,-0.23 -0.81,-0.54 -1.18,-0.81 -0.78,-0.54 -1.51,-1.07 -2.25,-1.61 0.78,-0.48 1.59,-0.93 2.41,-1.46 0.41,-0.28 0.83,-0.57 1.28,-0.81 0.23,-1.03 0.62,-2.03 1.12,-2.91 -0.11,-0.51 -0.23,-1.09 -0.34,-1.68 -0.19,-1.02 -0.42,-2.03 -0.61,-3.13 0.84,0.33 1.71,0.69 2.55,0.97 0.42,0.14 0.87,0.33 1.33,0.51 0.74,-0.55 1.56,-0.97 2.48,-1.21 0.2,-0.52 0.48,-1.05 0.76,-1.62 0.43,-0.93 0.94,-1.91 1.42,-2.93 0.35,1.02 0.74,1.96 1.13,2.94 0.19,0.56 0.42,1.07 0.61,1.58zm-2.2 3.8c2.83,0.02 5.06,2.83 4.86,6.27 -0.19,3.44 -2.74,6.23 -5.53,6.15 -2.79,-0.08 -4.83,-2.95 -4.66,-6.32 0.18,-3.36 2.5,-6.11 5.33,-6.1z"/>
    <path class="fil1" d="M80.66 173.07c3.89,0.32 7.21,3.43 8.6,7.64 0.08,0.23 0.04,0.53 -0.13,0.7 -0.16,0.16 -0.39,0.16 -0.54,0.05 -2.27,-1.85 -5.09,-3.07 -8.13,-3.34 -3.05,-0.27 -5.88,0.4 -8.12,1.74 -0.19,0.11 -0.39,0.04 -0.53,-0.14 -0.14,-0.18 -0.16,-0.47 -0.07,-0.68 1.7,-3.81 5.1,-6.29 8.92,-5.97z"/>
    <path class="fil1" d="M139.4 176.61c4.73,0.35 8.6,3.83 10.25,8.45 0.09,0.27 0.06,0.6 -0.15,0.76 -0.21,0.16 -0.48,0.14 -0.66,0.01 -2.68,-1.98 -6.04,-3.35 -9.77,-3.67 -3.65,-0.32 -6.99,0.43 -9.75,1.88 -0.17,0.09 -0.42,0.1 -0.6,-0.11 -0.17,-0.22 -0.16,-0.53 -0.05,-0.75 2.12,-4.14 6.19,-6.89 10.73,-6.57z"/>
    <path class="fil1" d="M105.5 204.69c3.51,0.08 6.96,-3.03 8.09,-5.74 0.06,-0.15 0.02,-0.36 -0.12,-0.48 -0.14,-0.12 -0.38,-0.1 -0.52,-0.02 -1.94,1.03 -4.4,1.63 -7.18,1.6 -2.7,-0.03 -5.23,-0.72 -7.28,-1.75 -0.18,-0.09 -0.36,-0.05 -0.48,0.05 -0.13,0.1 -0.14,0.29 -0.04,0.44 1.69,2.68 4.16,5.82 7.53,5.9z"/>
    <path class="fil8" d="M83.5 190.15c3.94,0.5 7.13,2.67 7.13,4.83 0,2.17 -3.19,3.52 -7.13,3.02 -3.93,-0.51 -7.12,-2.67 -7.12,-4.84 0,-2.16 3.19,-3.51 7.12,-3.01z"/>
    <path class="fil8" d="M131.1 192.6c4.66,0 8.43,2.07 8.43,4.63 0,2.57 -3.77,4.64 -8.43,4.64 -4.65,0 -8.42,-2.07 -8.42,-4.64 0,-2.56 3.77,-4.63 8.42,-4.63z"/>
   </g>
  </g>
  <path class="fil2 str1" d="M171.64 4.36c92.39,0 167.28,74.89 167.28,167.28 0,92.39 -74.89,167.28 -167.28,167.28 -92.39,0 -167.28,-74.89 -167.28,-167.28 0,-92.39 74.89,-167.28 167.28,-167.28z"/>
 </g>
</svg>
